<ttFont>
    <TTGlyph name="A" xMin="40" yMin="0" xMax="1024" yMax="644">
      <contour>
        <pt x="1021" y="585" on="1"/>
        <pt x="1024" y="583" on="0"/>
        <pt x="1024" y="576" on="0"/>
        <pt x="1018" y="570" on="1"/>
        <pt x="985" y="534" on="0"/>
        <pt x="933" y="441" on="0"/>
        <pt x="897" y="331" on="0"/>
        <pt x="877" y="209" on="0"/>
        <pt x="877" y="145" on="1"/>
        <pt x="877" y="97" on="0"/>
        <pt x="900" y="44" on="0"/>
        <pt x="929" y="44" on="1"/>
        <pt x="969" y="44" on="0"/>
        <pt x="1005" y="100" on="1"/>
        <pt x="1008" y="102" on="0"/>
        <pt x="1014" y="98" on="0"/>
        <pt x="1013" y="94" on="1"/>
        <pt x="987" y="52" on="0"/>
        <pt x="924" y="0" on="0"/>
        <pt x="897" y="0" on="1"/>
        <pt x="857" y="0" on="0"/>
        <pt x="816" y="62" on="0"/>
        <pt x="816" y="119" on="1"/>
        <pt x="816" y="199" on="0"/>
        <pt x="834" y="282" on="1"/>
        <pt x="787" y="282" on="0"/>
        <pt x="696" y="280" on="0"/>
        <pt x="653" y="278" on="1"/>
        <pt x="620" y="243" on="0"/>
        <pt x="559" y="181" on="0"/>
        <pt x="530" y="155" on="1"/>
        <pt x="450" y="82" on="0"/>
        <pt x="281" y="0" on="0"/>
        <pt x="180" y="0" on="1"/>
        <pt x="126" y="0" on="0"/>
        <pt x="61" y="48" on="0"/>
        <pt x="40" y="122" on="0"/>
        <pt x="62" y="210" on="0"/>
        <pt x="95" y="251" on="1"/>
        <pt x="98" y="253" on="0"/>
        <pt x="106" y="248" on="0"/>
        <pt x="105" y="241" on="1"/>
        <pt x="82" y="216" on="0"/>
        <pt x="77" y="151" on="0"/>
        <pt x="110" y="94" on="0"/>
        <pt x="180" y="55" on="0"/>
        <pt x="233" y="55" on="1"/>
        <pt x="318" y="55" on="0"/>
        <pt x="467" y="125" on="0"/>
        <pt x="533" y="185" on="1"/>
        <pt x="556" y="205" on="0"/>
        <pt x="602" y="251" on="0"/>
        <pt x="627" y="276" on="1"/>
        <pt x="592" y="274" on="0"/>
        <pt x="530" y="269" on="0"/>
        <pt x="503" y="265" on="1"/>
        <pt x="498" y="266" on="0"/>
        <pt x="504" y="274" on="0"/>
        <pt x="516" y="283" on="0"/>
        <pt x="533" y="290" on="0"/>
        <pt x="541" y="291" on="1"/>
        <pt x="554" y="292" on="0"/>
        <pt x="609" y="293" on="0"/>
        <pt x="644" y="294" on="1"/>
        <pt x="700" y="352" on="0"/>
        <pt x="837" y="487" on="0"/>
        <pt x="931" y="561" on="1"/>
        <pt x="864" y="583" on="0"/>
        <pt x="721" y="612" on="0"/>
        <pt x="655" y="612" on="1"/>
        <pt x="580" y="612" on="0"/>
        <pt x="484" y="529" on="0"/>
        <pt x="473" y="440" on="1"/>
        <pt x="471" y="435" on="0"/>
        <pt x="464" y="437" on="0"/>
        <pt x="463" y="442" on="1"/>
        <pt x="475" y="540" on="0"/>
        <pt x="597" y="644" on="0"/>
        <pt x="694" y="644" on="1"/>
        <pt x="735" y="644" on="0"/>
        <pt x="825" y="633" on="0"/>
        <pt x="912" y="616" on="0"/>
        <pt x="991" y="595" on="0"/>
      </contour>
      <contour>
        <pt x="837" y="295" on="1"/>
        <pt x="853" y="367" on="0"/>
        <pt x="911" y="503" on="0"/>
        <pt x="953" y="560" on="1"/>
        <pt x="865" y="489" on="0"/>
        <pt x="727" y="355" on="0"/>
        <pt x="669" y="294" on="1"/>
        <pt x="717" y="295" on="0"/>
        <pt x="810" y="295" on="0"/>
      </contour>
    </TTGlyph>
    <TTGlyph name="AE" xMin="40" yMin="0" xMax="1377" yMax="644">
      <contour>
        <pt x="1244" y="644" on="1"/>
        <pt x="1271" y="644" on="0"/>
        <pt x="1319" y="634" on="0"/>
        <pt x="1356" y="618" on="0"/>
        <pt x="1377" y="597" on="0"/>
        <pt x="1377" y="587" on="1"/>
        <pt x="1377" y="579" on="0"/>
        <pt x="1369" y="555" on="0"/>
        <pt x="1359" y="531" on="0"/>
        <pt x="1347" y="510" on="0"/>
        <pt x="1344" y="506" on="1"/>
        <pt x="1342" y="504" on="0"/>
        <pt x="1335" y="508" on="0"/>
        <pt x="1337" y="512" on="1"/>
        <pt x="1342" y="523" on="0"/>
        <pt x="1347" y="549" on="0"/>
        <pt x="1340" y="563" on="1"/>
        <pt x="1329" y="588" on="0"/>
        <pt x="1264" y="623" on="0"/>
        <pt x="1220" y="623" on="1"/>
        <pt x="1160" y="623" on="0"/>
        <pt x="1100" y="568" on="0"/>
        <pt x="1100" y="523" on="1"/>
        <pt x="1100" y="488" on="0"/>
        <pt x="1147" y="439" on="0"/>
        <pt x="1204" y="422" on="1"/>
        <pt x="1207" y="420" on="0"/>
        <pt x="1201" y="409" on="0"/>
        <pt x="1189" y="396" on="0"/>
        <pt x="1175" y="386" on="0"/>
        <pt x="1171" y="385" on="1"/>
        <pt x="1060" y="390" on="0"/>
        <pt x="939" y="285" on="0"/>
        <pt x="939" y="182" on="1"/>
        <pt x="939" y="147" on="0"/>
        <pt x="960" y="87" on="0"/>
        <pt x="999" y="43" on="0"/>
        <pt x="1054" y="18" on="0"/>
        <pt x="1089" y="18" on="1"/>
        <pt x="1171" y="18" on="0"/>
        <pt x="1275" y="94" on="0"/>
        <pt x="1298" y="179" on="1"/>
        <pt x="1301" y="184" on="0"/>
        <pt x="1308" y="180" on="0"/>
        <pt x="1309" y="174" on="1"/>
        <pt x="1296" y="118" on="0"/>
        <pt x="1264" y="44" on="0"/>
        <pt x="1250" y="38" on="1"/>
        <pt x="1208" y="19" on="0"/>
        <pt x="1122" y="0" on="0"/>
        <pt x="1063" y="0" on="1"/>
        <pt x="970" y="0" on="0"/>
        <pt x="872" y="83" on="0"/>
        <pt x="872" y="158" on="1"/>
        <pt x="872" y="187" on="0"/>
        <pt x="875" y="250" on="0"/>
        <pt x="880" y="282" on="1"/>
        <pt x="827" y="282" on="0"/>
        <pt x="710" y="279" on="0"/>
        <pt x="653" y="277" on="1"/>
        <pt x="620" y="242" on="0"/>
        <pt x="560" y="181" on="0"/>
        <pt x="531" y="155" on="1"/>
        <pt x="451" y="82" on="0"/>
        <pt x="282" y="0" on="0"/>
        <pt x="181" y="0" on="1"/>
        <pt x="127" y="0" on="0"/>
        <pt x="62" y="48" on="0"/>
        <pt x="40" y="122" on="0"/>
        <pt x="62" y="210" on="0"/>
        <pt x="95" y="251" on="1"/>
        <pt x="99" y="253" on="0"/>
        <pt x="107" y="248" on="0"/>
        <pt x="106" y="241" on="1"/>
        <pt x="83" y="216" on="0"/>
        <pt x="78" y="151" on="0"/>
        <pt x="111" y="94" on="0"/>
        <pt x="181" y="55" on="0"/>
        <pt x="234" y="55" on="1"/>
        <pt x="319" y="55" on="0"/>
        <pt x="468" y="125" on="0"/>
        <pt x="534" y="185" on="1"/>
        <pt x="557" y="205" on="0"/>
        <pt x="602" y="250" on="0"/>
        <pt x="627" y="276" on="1"/>
        <pt x="591" y="274" on="0"/>
        <pt x="528" y="269" on="0"/>
        <pt x="504" y="265" on="1"/>
        <pt x="499" y="266" on="0"/>
        <pt x="505" y="274" on="0"/>
        <pt x="517" y="283" on="0"/>
        <pt x="534" y="290" on="0"/>
        <pt x="542" y="291" on="1"/>
        <pt x="553" y="292" on="0"/>
        <pt x="609" y="293" on="0"/>
        <pt x="644" y="294" on="1"/>
        <pt x="701" y="352" on="0"/>
        <pt x="838" y="487" on="0"/>
        <pt x="932" y="561" on="1"/>
        <pt x="865" y="583" on="0"/>
        <pt x="722" y="612" on="0"/>
        <pt x="656" y="612" on="1"/>
        <pt x="581" y="612" on="0"/>
        <pt x="485" y="529" on="0"/>
        <pt x="474" y="440" on="1"/>
        <pt x="472" y="435" on="0"/>
        <pt x="465" y="437" on="0"/>
        <pt x="464" y="442" on="1"/>
        <pt x="475" y="540" on="0"/>
        <pt x="598" y="644" on="0"/>
        <pt x="695" y="644" on="1"/>
        <pt x="736" y="644" on="0"/>
        <pt x="824" y="633" on="0"/>
        <pt x="909" y="616" on="0"/>
        <pt x="986" y="595" on="0"/>
        <pt x="1016" y="585" on="1"/>
        <pt x="1019" y="583" on="0"/>
        <pt x="1023" y="578" on="0"/>
        <pt x="1019" y="570" on="1"/>
        <pt x="985" y="507" on="0"/>
        <pt x="950" y="389" on="0"/>
        <pt x="942" y="318" on="1"/>
        <pt x="976" y="350" on="0"/>
        <pt x="1068" y="395" on="0"/>
        <pt x="1124" y="405" on="1"/>
        <pt x="1086" y="421" on="0"/>
        <pt x="1040" y="475" on="0"/>
        <pt x="1040" y="510" on="1"/>
        <pt x="1040" y="537" on="0"/>
        <pt x="1067" y="586" on="0"/>
        <pt x="1119" y="622" on="0"/>
        <pt x="1195" y="644" on="0"/>
      </contour>
      <contour>
        <pt x="670" y="294" on="1"/>
        <pt x="699" y="294" on="0"/>
        <pt x="761" y="295" on="0"/>
        <pt x="817" y="295" on="0"/>
        <pt x="865" y="295" on="0"/>
        <pt x="881" y="295" on="1"/>
        <pt x="891" y="367" on="0"/>
        <pt x="928" y="506" on="0"/>
        <pt x="954" y="560" on="1"/>
        <pt x="866" y="489" on="0"/>
        <pt x="728" y="354" on="0"/>
      </contour>
    </TTGlyph>
    <TTGlyph name="Aacute" xMin="40" yMin="0" xMax="1033" yMax="737">
      <contour>
        <pt x="988" y="734" on="1"/>
        <pt x="993" y="737" on="0"/>
        <pt x="1020" y="728" on="0"/>
        <pt x="1029" y="724" on="1"/>
        <pt x="1031" y="722" on="0"/>
        <pt x="1033" y="717" on="0"/>
        <pt x="1030" y="715" on="1"/>
        <pt x="1020" y="708" on="0"/>
        <pt x="989" y="692" on="0"/>
        <pt x="954" y="677" on="0"/>
        <pt x="917" y="663" on="0"/>
        <pt x="902" y="658" on="1"/>
        <pt x="898" y="658" on="0"/>
        <pt x="898" y="666" on="0"/>
        <pt x="901" y="669" on="1"/>
        <pt x="921" y="681" on="0"/>
        <pt x="969" y="714" on="0"/>
      </contour>
      <contour>
        <pt x="1021" y="585" on="1"/>
        <pt x="1024" y="583" on="0"/>
        <pt x="1024" y="576" on="0"/>
        <pt x="1018" y="570" on="1"/>
        <pt x="985" y="534" on="0"/>
        <pt x="933" y="441" on="0"/>
        <pt x="897" y="331" on="0"/>
        <pt x="877" y="209" on="0"/>
        <pt x="877" y="145" on="1"/>
        <pt x="877" y="97" on="0"/>
        <pt x="900" y="44" on="0"/>
        <pt x="929" y="44" on="1"/>
        <pt x="969" y="44" on="0"/>
        <pt x="1005" y="100" on="1"/>
        <pt x="1008" y="102" on="0"/>
        <pt x="1014" y="98" on="0"/>
        <pt x="1013" y="94" on="1"/>
        <pt x="987" y="52" on="0"/>
        <pt x="924" y="0" on="0"/>
        <pt x="897" y="0" on="1"/>
        <pt x="857" y="0" on="0"/>
        <pt x="816" y="62" on="0"/>
        <pt x="816" y="119" on="1"/>
        <pt x="816" y="199" on="0"/>
        <pt x="834" y="282" on="1"/>
        <pt x="787" y="282" on="0"/>
        <pt x="696" y="280" on="0"/>
        <pt x="653" y="278" on="1"/>
        <pt x="620" y="243" on="0"/>
        <pt x="559" y="181" on="0"/>
        <pt x="530" y="155" on="1"/>
        <pt x="450" y="82" on="0"/>
        <pt x="281" y="0" on="0"/>
        <pt x="180" y="0" on="1"/>
        <pt x="126" y="0" on="0"/>
        <pt x="61" y="48" on="0"/>
        <pt x="40" y="122" on="0"/>
        <pt x="62" y="210" on="0"/>
        <pt x="95" y="251" on="1"/>
        <pt x="98" y="253" on="0"/>
        <pt x="106" y="248" on="0"/>
        <pt x="105" y="241" on="1"/>
        <pt x="82" y="216" on="0"/>
        <pt x="77" y="151" on="0"/>
        <pt x="110" y="94" on="0"/>
        <pt x="180" y="55" on="0"/>
        <pt x="233" y="55" on="1"/>
        <pt x="318" y="55" on="0"/>
        <pt x="467" y="125" on="0"/>
        <pt x="533" y="185" on="1"/>
        <pt x="556" y="205" on="0"/>
        <pt x="602" y="251" on="0"/>
        <pt x="627" y="276" on="1"/>
        <pt x="592" y="274" on="0"/>
        <pt x="530" y="269" on="0"/>
        <pt x="503" y="265" on="1"/>
        <pt x="498" y="266" on="0"/>
        <pt x="504" y="274" on="0"/>
        <pt x="516" y="283" on="0"/>
        <pt x="533" y="290" on="0"/>
        <pt x="541" y="291" on="1"/>
        <pt x="554" y="292" on="0"/>
        <pt x="609" y="293" on="0"/>
        <pt x="644" y="294" on="1"/>
        <pt x="700" y="352" on="0"/>
        <pt x="837" y="487" on="0"/>
        <pt x="931" y="561" on="1"/>
        <pt x="864" y="583" on="0"/>
        <pt x="721" y="612" on="0"/>
        <pt x="655" y="612" on="1"/>
        <pt x="580" y="612" on="0"/>
        <pt x="484" y="529" on="0"/>
        <pt x="473" y="440" on="1"/>
        <pt x="471" y="435" on="0"/>
        <pt x="464" y="437" on="0"/>
        <pt x="463" y="442" on="1"/>
        <pt x="475" y="540" on="0"/>
        <pt x="597" y="644" on="0"/>
        <pt x="694" y="644" on="1"/>
        <pt x="735" y="644" on="0"/>
        <pt x="825" y="633" on="0"/>
        <pt x="912" y="616" on="0"/>
        <pt x="991" y="595" on="0"/>
      </contour>
      <contour>
        <pt x="837" y="295" on="1"/>
        <pt x="853" y="367" on="0"/>
        <pt x="911" y="503" on="0"/>
        <pt x="953" y="560" on="1"/>
        <pt x="865" y="489" on="0"/>
        <pt x="727" y="355" on="0"/>
        <pt x="669" y="294" on="1"/>
        <pt x="717" y="295" on="0"/>
        <pt x="810" y="295" on="0"/>
      </contour>
    </TTGlyph>
    <TTGlyph name="Acircumflex" xMin="40" yMin="0" xMax="1064" yMax="751">
      <contour>
        <pt x="973" y="746" on="1"/>
        <pt x="978" y="751" on="0"/>
        <pt x="985" y="745" on="1"/>
        <pt x="998" y="728" on="0"/>
        <pt x="1039" y="693" on="0"/>
        <pt x="1059" y="684" on="1"/>
        <pt x="1064" y="679" on="0"/>
        <pt x="1045" y="669" on="0"/>
        <pt x="1033" y="671" on="1"/>
        <pt x="1014" y="679" on="0"/>
        <pt x="983" y="702" on="0"/>
        <pt x="967" y="715" on="1"/>
        <pt x="961" y="710" on="0"/>
        <pt x="941" y="698" on="0"/>
        <pt x="920" y="685" on="0"/>
        <pt x="899" y="673" on="0"/>
        <pt x="892" y="670" on="1"/>
        <pt x="882" y="670" on="0"/>
        <pt x="887" y="679" on="1"/>
        <pt x="904" y="689" on="0"/>
        <pt x="957" y="727" on="0"/>
      </contour>
      <contour>
        <pt x="1021" y="585" on="1"/>
        <pt x="1024" y="583" on="0"/>
        <pt x="1024" y="576" on="0"/>
        <pt x="1018" y="570" on="1"/>
        <pt x="985" y="534" on="0"/>
        <pt x="933" y="441" on="0"/>
        <pt x="897" y="331" on="0"/>
        <pt x="877" y="209" on="0"/>
        <pt x="877" y="145" on="1"/>
        <pt x="877" y="97" on="0"/>
        <pt x="900" y="44" on="0"/>
        <pt x="929" y="44" on="1"/>
        <pt x="969" y="44" on="0"/>
        <pt x="1005" y="100" on="1"/>
        <pt x="1008" y="102" on="0"/>
        <pt x="1014" y="98" on="0"/>
        <pt x="1013" y="94" on="1"/>
        <pt x="987" y="52" on="0"/>
        <pt x="924" y="0" on="0"/>
        <pt x="897" y="0" on="1"/>
        <pt x="857" y="0" on="0"/>
        <pt x="816" y="62" on="0"/>
        <pt x="816" y="119" on="1"/>
        <pt x="816" y="199" on="0"/>
        <pt x="834" y="282" on="1"/>
        <pt x="787" y="282" on="0"/>
        <pt x="696" y="280" on="0"/>
        <pt x="653" y="278" on="1"/>
        <pt x="620" y="243" on="0"/>
        <pt x="559" y="181" on="0"/>
        <pt x="530" y="155" on="1"/>
        <pt x="450" y="82" on="0"/>
        <pt x="281" y="0" on="0"/>
        <pt x="180" y="0" on="1"/>
        <pt x="126" y="0" on="0"/>
        <pt x="61" y="48" on="0"/>
        <pt x="40" y="122" on="0"/>
        <pt x="62" y="210" on="0"/>
        <pt x="95" y="251" on="1"/>
        <pt x="98" y="253" on="0"/>
        <pt x="106" y="248" on="0"/>
        <pt x="105" y="241" on="1"/>
        <pt x="82" y="216" on="0"/>
        <pt x="77" y="151" on="0"/>
        <pt x="110" y="94" on="0"/>
        <pt x="180" y="55" on="0"/>
        <pt x="233" y="55" on="1"/>
        <pt x="318" y="55" on="0"/>
        <pt x="467" y="125" on="0"/>
        <pt x="533" y="185" on="1"/>
        <pt x="556" y="205" on="0"/>
        <pt x="602" y="251" on="0"/>
        <pt x="627" y="276" on="1"/>
        <pt x="592" y="274" on="0"/>
        <pt x="530" y="269" on="0"/>
        <pt x="503" y="265" on="1"/>
        <pt x="498" y="266" on="0"/>
        <pt x="504" y="274" on="0"/>
        <pt x="516" y="283" on="0"/>
        <pt x="533" y="290" on="0"/>
        <pt x="541" y="291" on="1"/>
        <pt x="554" y="292" on="0"/>
        <pt x="609" y="293" on="0"/>
        <pt x="644" y="294" on="1"/>
        <pt x="700" y="352" on="0"/>
        <pt x="837" y="487" on="0"/>
        <pt x="931" y="561" on="1"/>
        <pt x="864" y="583" on="0"/>
        <pt x="721" y="612" on="0"/>
        <pt x="655" y="612" on="1"/>
        <pt x="580" y="612" on="0"/>
        <pt x="484" y="529" on="0"/>
        <pt x="473" y="440" on="1"/>
        <pt x="471" y="435" on="0"/>
        <pt x="464" y="437" on="0"/>
        <pt x="463" y="442" on="1"/>
        <pt x="475" y="540" on="0"/>
        <pt x="597" y="644" on="0"/>
        <pt x="694" y="644" on="1"/>
        <pt x="735" y="644" on="0"/>
        <pt x="825" y="633" on="0"/>
        <pt x="912" y="616" on="0"/>
        <pt x="991" y="595" on="0"/>
      </contour>
      <contour>
        <pt x="837" y="295" on="1"/>
        <pt x="853" y="367" on="0"/>
        <pt x="911" y="503" on="0"/>
        <pt x="953" y="560" on="1"/>
        <pt x="865" y="489" on="0"/>
        <pt x="727" y="355" on="0"/>
        <pt x="669" y="294" on="1"/>
        <pt x="717" y="295" on="0"/>
        <pt x="810" y="295" on="0"/>
      </contour>
    </TTGlyph>
    <TTGlyph name="Adieresis" xMin="40" yMin="0" xMax="1046" yMax="721">
      <contour>
        <pt x="937" y="667" on="1"/>
        <pt x="926" y="667" on="0"/>
        <pt x="926" y="684" on="1"/>
        <pt x="926" y="694" on="0"/>
        <pt x="946" y="721" on="0"/>
        <pt x="962" y="721" on="1"/>
        <pt x="971" y="721" on="0"/>
        <pt x="971" y="708" on="1"/>
        <pt x="971" y="694" on="0"/>
        <pt x="951" y="667" on="0"/>
      </contour>
      <contour>
        <pt x="1014" y="667" on="1"/>
        <pt x="1002" y="667" on="0"/>
        <pt x="1002" y="684" on="1"/>
        <pt x="1002" y="694" on="0"/>
        <pt x="1022" y="721" on="0"/>
        <pt x="1037" y="721" on="1"/>
        <pt x="1046" y="721" on="0"/>
        <pt x="1046" y="708" on="1"/>
        <pt x="1046" y="694" on="0"/>
        <pt x="1026" y="667" on="0"/>
      </contour>
      <contour>
        <pt x="1021" y="585" on="1"/>
        <pt x="1024" y="583" on="0"/>
        <pt x="1024" y="576" on="0"/>
        <pt x="1018" y="570" on="1"/>
        <pt x="985" y="534" on="0"/>
        <pt x="933" y="441" on="0"/>
        <pt x="897" y="331" on="0"/>
        <pt x="877" y="209" on="0"/>
        <pt x="877" y="145" on="1"/>
        <pt x="877" y="97" on="0"/>
        <pt x="900" y="44" on="0"/>
        <pt x="929" y="44" on="1"/>
        <pt x="969" y="44" on="0"/>
        <pt x="1005" y="100" on="1"/>
        <pt x="1008" y="102" on="0"/>
        <pt x="1014" y="98" on="0"/>
        <pt x="1013" y="94" on="1"/>
        <pt x="987" y="52" on="0"/>
        <pt x="924" y="0" on="0"/>
        <pt x="897" y="0" on="1"/>
        <pt x="857" y="0" on="0"/>
        <pt x="816" y="62" on="0"/>
        <pt x="816" y="119" on="1"/>
        <pt x="816" y="199" on="0"/>
        <pt x="834" y="282" on="1"/>
        <pt x="787" y="282" on="0"/>
        <pt x="696" y="280" on="0"/>
        <pt x="653" y="278" on="1"/>
        <pt x="620" y="243" on="0"/>
        <pt x="559" y="181" on="0"/>
        <pt x="530" y="155" on="1"/>
        <pt x="450" y="82" on="0"/>
        <pt x="281" y="0" on="0"/>
        <pt x="180" y="0" on="1"/>
        <pt x="126" y="0" on="0"/>
        <pt x="61" y="48" on="0"/>
        <pt x="40" y="122" on="0"/>
        <pt x="62" y="210" on="0"/>
        <pt x="95" y="251" on="1"/>
        <pt x="98" y="253" on="0"/>
        <pt x="106" y="248" on="0"/>
        <pt x="105" y="241" on="1"/>
        <pt x="82" y="216" on="0"/>
        <pt x="77" y="151" on="0"/>
        <pt x="110" y="94" on="0"/>
        <pt x="180" y="55" on="0"/>
        <pt x="233" y="55" on="1"/>
        <pt x="318" y="55" on="0"/>
        <pt x="467" y="125" on="0"/>
        <pt x="533" y="185" on="1"/>
        <pt x="556" y="205" on="0"/>
        <pt x="602" y="251" on="0"/>
        <pt x="627" y="276" on="1"/>
        <pt x="592" y="274" on="0"/>
        <pt x="530" y="269" on="0"/>
        <pt x="503" y="265" on="1"/>
        <pt x="498" y="266" on="0"/>
        <pt x="504" y="274" on="0"/>
        <pt x="516" y="283" on="0"/>
        <pt x="533" y="290" on="0"/>
        <pt x="541" y="291" on="1"/>
        <pt x="554" y="292" on="0"/>
        <pt x="609" y="293" on="0"/>
        <pt x="644" y="294" on="1"/>
        <pt x="700" y="352" on="0"/>
        <pt x="837" y="487" on="0"/>
        <pt x="931" y="561" on="1"/>
        <pt x="864" y="583" on="0"/>
        <pt x="721" y="612" on="0"/>
        <pt x="655" y="612" on="1"/>
        <pt x="580" y="612" on="0"/>
        <pt x="484" y="529" on="0"/>
        <pt x="473" y="440" on="1"/>
        <pt x="471" y="435" on="0"/>
        <pt x="464" y="437" on="0"/>
        <pt x="463" y="442" on="1"/>
        <pt x="475" y="540" on="0"/>
        <pt x="597" y="644" on="0"/>
        <pt x="694" y="644" on="1"/>
        <pt x="735" y="644" on="0"/>
        <pt x="825" y="633" on="0"/>
        <pt x="912" y="616" on="0"/>
        <pt x="991" y="595" on="0"/>
      </contour>
      <contour>
        <pt x="837" y="295" on="1"/>
        <pt x="853" y="367" on="0"/>
        <pt x="911" y="503" on="0"/>
        <pt x="953" y="560" on="1"/>
        <pt x="865" y="489" on="0"/>
        <pt x="727" y="355" on="0"/>
        <pt x="669" y="294" on="1"/>
        <pt x="717" y="295" on="0"/>
        <pt x="810" y="295" on="0"/>
      </contour>
    </TTGlyph>
    <TTGlyph name="Agrave" xMin="40" yMin="0" xMax="1024" yMax="733">
      <contour>
        <pt x="996" y="669" on="1"/>
        <pt x="998" y="667" on="0"/>
        <pt x="993" y="660" on="0"/>
        <pt x="988" y="660" on="1"/>
        <pt x="976" y="663" on="0"/>
        <pt x="942" y="675" on="0"/>
        <pt x="908" y="689" on="0"/>
        <pt x="876" y="703" on="0"/>
        <pt x="865" y="709" on="1"/>
        <pt x="863" y="710" on="0"/>
        <pt x="863" y="715" on="0"/>
        <pt x="865" y="717" on="1"/>
        <pt x="875" y="725" on="0"/>
        <pt x="903" y="733" on="0"/>
        <pt x="905" y="731" on="1"/>
        <pt x="922" y="717" on="0"/>
        <pt x="969" y="684" on="0"/>
      </contour>
      <contour>
        <pt x="1021" y="585" on="1"/>
        <pt x="1024" y="583" on="0"/>
        <pt x="1024" y="576" on="0"/>
        <pt x="1018" y="570" on="1"/>
        <pt x="985" y="534" on="0"/>
        <pt x="933" y="441" on="0"/>
        <pt x="897" y="331" on="0"/>
        <pt x="877" y="209" on="0"/>
        <pt x="877" y="145" on="1"/>
        <pt x="877" y="97" on="0"/>
        <pt x="900" y="44" on="0"/>
        <pt x="929" y="44" on="1"/>
        <pt x="969" y="44" on="0"/>
        <pt x="1005" y="100" on="1"/>
        <pt x="1008" y="102" on="0"/>
        <pt x="1014" y="98" on="0"/>
        <pt x="1013" y="94" on="1"/>
        <pt x="987" y="52" on="0"/>
        <pt x="924" y="0" on="0"/>
        <pt x="897" y="0" on="1"/>
        <pt x="857" y="0" on="0"/>
        <pt x="816" y="62" on="0"/>
        <pt x="816" y="119" on="1"/>
        <pt x="816" y="199" on="0"/>
        <pt x="834" y="282" on="1"/>
        <pt x="787" y="282" on="0"/>
        <pt x="696" y="280" on="0"/>
        <pt x="653" y="278" on="1"/>
        <pt x="620" y="243" on="0"/>
        <pt x="559" y="181" on="0"/>
        <pt x="530" y="155" on="1"/>
        <pt x="450" y="82" on="0"/>
        <pt x="281" y="0" on="0"/>
        <pt x="180" y="0" on="1"/>
        <pt x="126" y="0" on="0"/>
        <pt x="61" y="48" on="0"/>
        <pt x="40" y="122" on="0"/>
        <pt x="62" y="210" on="0"/>
        <pt x="95" y="251" on="1"/>
        <pt x="98" y="253" on="0"/>
        <pt x="106" y="248" on="0"/>
        <pt x="105" y="241" on="1"/>
        <pt x="82" y="216" on="0"/>
        <pt x="77" y="151" on="0"/>
        <pt x="110" y="94" on="0"/>
        <pt x="180" y="55" on="0"/>
        <pt x="233" y="55" on="1"/>
        <pt x="318" y="55" on="0"/>
        <pt x="467" y="125" on="0"/>
        <pt x="533" y="185" on="1"/>
        <pt x="556" y="205" on="0"/>
        <pt x="602" y="251" on="0"/>
        <pt x="627" y="276" on="1"/>
        <pt x="592" y="274" on="0"/>
        <pt x="530" y="269" on="0"/>
        <pt x="503" y="265" on="1"/>
        <pt x="498" y="266" on="0"/>
        <pt x="504" y="274" on="0"/>
        <pt x="516" y="283" on="0"/>
        <pt x="533" y="290" on="0"/>
        <pt x="541" y="291" on="1"/>
        <pt x="554" y="292" on="0"/>
        <pt x="609" y="293" on="0"/>
        <pt x="644" y="294" on="1"/>
        <pt x="700" y="352" on="0"/>
        <pt x="837" y="487" on="0"/>
        <pt x="931" y="561" on="1"/>
        <pt x="864" y="583" on="0"/>
        <pt x="721" y="612" on="0"/>
        <pt x="655" y="612" on="1"/>
        <pt x="580" y="612" on="0"/>
        <pt x="484" y="529" on="0"/>
        <pt x="473" y="440" on="1"/>
        <pt x="471" y="435" on="0"/>
        <pt x="464" y="437" on="0"/>
        <pt x="463" y="442" on="1"/>
        <pt x="475" y="540" on="0"/>
        <pt x="597" y="644" on="0"/>
        <pt x="694" y="644" on="1"/>
        <pt x="735" y="644" on="0"/>
        <pt x="825" y="633" on="0"/>
        <pt x="912" y="616" on="0"/>
        <pt x="991" y="595" on="0"/>
      </contour>
      <contour>
        <pt x="837" y="295" on="1"/>
        <pt x="853" y="367" on="0"/>
        <pt x="911" y="503" on="0"/>
        <pt x="953" y="560" on="1"/>
        <pt x="865" y="489" on="0"/>
        <pt x="727" y="355" on="0"/>
        <pt x="669" y="294" on="1"/>
        <pt x="717" y="295" on="0"/>
        <pt x="810" y="295" on="0"/>
      </contour>
    </TTGlyph>
    <TTGlyph name="Aring" xMin="40" yMin="0" xMax="1034" yMax="765">
      <contour>
        <pt x="989" y="753" on="1"/>
        <pt x="973" y="753" on="0"/>
        <pt x="956" y="732" on="0"/>
        <pt x="956" y="714" on="1"/>
        <pt x="956" y="700" on="0"/>
        <pt x="970" y="682" on="0"/>
        <pt x="986" y="682" on="1"/>
        <pt x="1001" y="682" on="0"/>
        <pt x="1018" y="704" on="0"/>
        <pt x="1018" y="722" on="1"/>
        <pt x="1018" y="753" on="0"/>
      </contour>
      <contour>
        <pt x="973" y="670" on="1"/>
        <pt x="957" y="670" on="0"/>
        <pt x="940" y="691" on="0"/>
        <pt x="940" y="706" on="1"/>
        <pt x="940" y="729" on="0"/>
        <pt x="975" y="765" on="0"/>
        <pt x="1001" y="765" on="1"/>
        <pt x="1018" y="765" on="0"/>
        <pt x="1034" y="745" on="0"/>
        <pt x="1034" y="730" on="1"/>
        <pt x="1034" y="707" on="0"/>
        <pt x="1000" y="670" on="0"/>
      </contour>
      <contour>
        <pt x="1021" y="585" on="1"/>
        <pt x="1024" y="583" on="0"/>
        <pt x="1024" y="576" on="0"/>
        <pt x="1018" y="570" on="1"/>
        <pt x="985" y="534" on="0"/>
        <pt x="933" y="441" on="0"/>
        <pt x="897" y="331" on="0"/>
        <pt x="877" y="209" on="0"/>
        <pt x="877" y="145" on="1"/>
        <pt x="877" y="97" on="0"/>
        <pt x="900" y="44" on="0"/>
        <pt x="929" y="44" on="1"/>
        <pt x="969" y="44" on="0"/>
        <pt x="1005" y="100" on="1"/>
        <pt x="1008" y="102" on="0"/>
        <pt x="1014" y="98" on="0"/>
        <pt x="1013" y="94" on="1"/>
        <pt x="987" y="52" on="0"/>
        <pt x="924" y="0" on="0"/>
        <pt x="897" y="0" on="1"/>
        <pt x="857" y="0" on="0"/>
        <pt x="816" y="62" on="0"/>
        <pt x="816" y="119" on="1"/>
        <pt x="816" y="199" on="0"/>
        <pt x="834" y="282" on="1"/>
        <pt x="787" y="282" on="0"/>
        <pt x="696" y="280" on="0"/>
        <pt x="653" y="278" on="1"/>
        <pt x="620" y="243" on="0"/>
        <pt x="559" y="181" on="0"/>
        <pt x="530" y="155" on="1"/>
        <pt x="450" y="82" on="0"/>
        <pt x="281" y="0" on="0"/>
        <pt x="180" y="0" on="1"/>
        <pt x="126" y="0" on="0"/>
        <pt x="61" y="48" on="0"/>
        <pt x="40" y="122" on="0"/>
        <pt x="62" y="210" on="0"/>
        <pt x="95" y="251" on="1"/>
        <pt x="98" y="253" on="0"/>
        <pt x="106" y="248" on="0"/>
        <pt x="105" y="241" on="1"/>
        <pt x="82" y="216" on="0"/>
        <pt x="77" y="151" on="0"/>
        <pt x="110" y="94" on="0"/>
        <pt x="180" y="55" on="0"/>
        <pt x="233" y="55" on="1"/>
        <pt x="318" y="55" on="0"/>
        <pt x="467" y="125" on="0"/>
        <pt x="533" y="185" on="1"/>
        <pt x="556" y="205" on="0"/>
        <pt x="602" y="251" on="0"/>
        <pt x="627" y="276" on="1"/>
        <pt x="592" y="274" on="0"/>
        <pt x="530" y="269" on="0"/>
        <pt x="503" y="265" on="1"/>
        <pt x="498" y="266" on="0"/>
        <pt x="504" y="274" on="0"/>
        <pt x="516" y="283" on="0"/>
        <pt x="533" y="290" on="0"/>
        <pt x="541" y="291" on="1"/>
        <pt x="554" y="292" on="0"/>
        <pt x="609" y="293" on="0"/>
        <pt x="644" y="294" on="1"/>
        <pt x="700" y="352" on="0"/>
        <pt x="837" y="487" on="0"/>
        <pt x="931" y="561" on="1"/>
        <pt x="864" y="583" on="0"/>
        <pt x="721" y="612" on="0"/>
        <pt x="655" y="612" on="1"/>
        <pt x="580" y="612" on="0"/>
        <pt x="484" y="529" on="0"/>
        <pt x="473" y="440" on="1"/>
        <pt x="471" y="435" on="0"/>
        <pt x="464" y="437" on="0"/>
        <pt x="463" y="442" on="1"/>
        <pt x="475" y="540" on="0"/>
        <pt x="597" y="644" on="0"/>
        <pt x="694" y="644" on="1"/>
        <pt x="735" y="644" on="0"/>
        <pt x="825" y="633" on="0"/>
        <pt x="912" y="616" on="0"/>
        <pt x="991" y="595" on="0"/>
      </contour>
      <contour>
        <pt x="837" y="295" on="1"/>
        <pt x="853" y="367" on="0"/>
        <pt x="911" y="503" on="0"/>
        <pt x="953" y="560" on="1"/>
        <pt x="865" y="489" on="0"/>
        <pt x="727" y="355" on="0"/>
        <pt x="669" y="294" on="1"/>
        <pt x="717" y="295" on="0"/>
        <pt x="810" y="295" on="0"/>
      </contour>
    </TTGlyph>
    <TTGlyph name="Atilde" xMin="40" yMin="0" xMax="1088" yMax="730">
      <contour>
        <pt x="870" y="673" on="1"/>
        <pt x="881" y="689" on="0"/>
        <pt x="918" y="719" on="0"/>
        <pt x="935" y="719" on="1"/>
        <pt x="947" y="719" on="0"/>
        <pt x="966" y="708" on="0"/>
        <pt x="987" y="695" on="0"/>
        <pt x="1012" y="684" on="0"/>
        <pt x="1028" y="684" on="1"/>
        <pt x="1046" y="684" on="0"/>
        <pt x="1069" y="707" on="0"/>
        <pt x="1079" y="728" on="1"/>
        <pt x="1081" y="730" on="0"/>
        <pt x="1088" y="727" on="0"/>
        <pt x="1087" y="724" on="1"/>
        <pt x="1075" y="697" on="0"/>
        <pt x="1041" y="665" on="0"/>
        <pt x="1011" y="665" on="1"/>
        <pt x="997" y="665" on="0"/>
        <pt x="974" y="675" on="0"/>
        <pt x="953" y="688" on="0"/>
        <pt x="933" y="698" on="0"/>
        <pt x="923" y="698" on="1"/>
        <pt x="910" y="698" on="0"/>
        <pt x="888" y="681" on="0"/>
        <pt x="877" y="667" on="1"/>
        <pt x="873" y="665" on="0"/>
        <pt x="868" y="670" on="0"/>
      </contour>
      <contour>
        <pt x="1021" y="585" on="1"/>
        <pt x="1024" y="583" on="0"/>
        <pt x="1024" y="576" on="0"/>
        <pt x="1018" y="570" on="1"/>
        <pt x="985" y="534" on="0"/>
        <pt x="933" y="441" on="0"/>
        <pt x="897" y="331" on="0"/>
        <pt x="877" y="209" on="0"/>
        <pt x="877" y="145" on="1"/>
        <pt x="877" y="97" on="0"/>
        <pt x="900" y="44" on="0"/>
        <pt x="929" y="44" on="1"/>
        <pt x="969" y="44" on="0"/>
        <pt x="1005" y="100" on="1"/>
        <pt x="1008" y="102" on="0"/>
        <pt x="1014" y="98" on="0"/>
        <pt x="1013" y="94" on="1"/>
        <pt x="987" y="52" on="0"/>
        <pt x="924" y="0" on="0"/>
        <pt x="897" y="0" on="1"/>
        <pt x="857" y="0" on="0"/>
        <pt x="816" y="62" on="0"/>
        <pt x="816" y="119" on="1"/>
        <pt x="816" y="199" on="0"/>
        <pt x="834" y="282" on="1"/>
        <pt x="787" y="282" on="0"/>
        <pt x="696" y="280" on="0"/>
        <pt x="653" y="278" on="1"/>
        <pt x="620" y="243" on="0"/>
        <pt x="559" y="181" on="0"/>
        <pt x="530" y="155" on="1"/>
        <pt x="450" y="82" on="0"/>
        <pt x="281" y="0" on="0"/>
        <pt x="180" y="0" on="1"/>
        <pt x="126" y="0" on="0"/>
        <pt x="61" y="48" on="0"/>
        <pt x="40" y="122" on="0"/>
        <pt x="62" y="210" on="0"/>
        <pt x="95" y="251" on="1"/>
        <pt x="98" y="253" on="0"/>
        <pt x="106" y="248" on="0"/>
        <pt x="105" y="241" on="1"/>
        <pt x="82" y="216" on="0"/>
        <pt x="77" y="151" on="0"/>
        <pt x="110" y="94" on="0"/>
        <pt x="180" y="55" on="0"/>
        <pt x="233" y="55" on="1"/>
        <pt x="318" y="55" on="0"/>
        <pt x="467" y="125" on="0"/>
        <pt x="533" y="185" on="1"/>
        <pt x="556" y="205" on="0"/>
        <pt x="602" y="251" on="0"/>
        <pt x="627" y="276" on="1"/>
        <pt x="592" y="274" on="0"/>
        <pt x="530" y="269" on="0"/>
        <pt x="503" y="265" on="1"/>
        <pt x="498" y="266" on="0"/>
        <pt x="504" y="274" on="0"/>
        <pt x="516" y="283" on="0"/>
        <pt x="533" y="290" on="0"/>
        <pt x="541" y="291" on="1"/>
        <pt x="554" y="292" on="0"/>
        <pt x="609" y="293" on="0"/>
        <pt x="644" y="294" on="1"/>
        <pt x="700" y="352" on="0"/>
        <pt x="837" y="487" on="0"/>
        <pt x="931" y="561" on="1"/>
        <pt x="864" y="583" on="0"/>
        <pt x="721" y="612" on="0"/>
        <pt x="655" y="612" on="1"/>
        <pt x="580" y="612" on="0"/>
        <pt x="484" y="529" on="0"/>
        <pt x="473" y="440" on="1"/>
        <pt x="471" y="435" on="0"/>
        <pt x="464" y="437" on="0"/>
        <pt x="463" y="442" on="1"/>
        <pt x="475" y="540" on="0"/>
        <pt x="597" y="644" on="0"/>
        <pt x="694" y="644" on="1"/>
        <pt x="735" y="644" on="0"/>
        <pt x="825" y="633" on="0"/>
        <pt x="912" y="616" on="0"/>
        <pt x="991" y="595" on="0"/>
      </contour>
      <contour>
        <pt x="837" y="295" on="1"/>
        <pt x="853" y="367" on="0"/>
        <pt x="911" y="503" on="0"/>
        <pt x="953" y="560" on="1"/>
        <pt x="865" y="489" on="0"/>
        <pt x="727" y="355" on="0"/>
        <pt x="669" y="294" on="1"/>
        <pt x="717" y="295" on="0"/>
        <pt x="810" y="295" on="0"/>
      </contour>
    </TTGlyph>
    <TTGlyph name="B" xMin="27" yMin="0" xMax="681" yMax="680">
      <contour>
        <pt x="526" y="364" on="1"/>
        <pt x="556" y="355" on="0"/>
        <pt x="603" y="319" on="0"/>
        <pt x="636" y="272" on="0"/>
        <pt x="654" y="221" on="0"/>
        <pt x="654" y="197" on="1"/>
        <pt x="654" y="154" on="0"/>
        <pt x="621" y="82" on="0"/>
        <pt x="554" y="29" on="0"/>
        <pt x="450" y="0" on="0"/>
        <pt x="379" y="0" on="1"/>
        <pt x="266" y="0" on="0"/>
        <pt x="99" y="61" on="0"/>
        <pt x="30" y="118" on="1"/>
        <pt x="27" y="123" on="0"/>
        <pt x="36" y="136" on="0"/>
        <pt x="54" y="146" on="0"/>
        <pt x="75" y="150" on="0"/>
        <pt x="84" y="146" on="1"/>
        <pt x="103" y="127" on="0"/>
        <pt x="141" y="116" on="0"/>
        <pt x="169" y="121" on="1"/>
        <pt x="195" y="126" on="0"/>
        <pt x="230" y="155" on="0"/>
        <pt x="259" y="217" on="0"/>
        <pt x="290" y="317" on="0"/>
        <pt x="311" y="393" on="1"/>
        <pt x="332" y="468" on="0"/>
        <pt x="395" y="578" on="0"/>
        <pt x="440" y="616" on="1"/>
        <pt x="434" y="616" on="0"/>
        <pt x="421" y="617" on="0"/>
        <pt x="413" y="617" on="1"/>
        <pt x="380" y="617" on="0"/>
        <pt x="316" y="599" on="0"/>
        <pt x="259" y="563" on="0"/>
        <pt x="213" y="512" on="0"/>
        <pt x="199" y="479" on="1"/>
        <pt x="196" y="477" on="0"/>
        <pt x="191" y="480" on="0"/>
        <pt x="192" y="485" on="1"/>
        <pt x="204" y="516" on="0"/>
        <pt x="252" y="574" on="0"/>
        <pt x="320" y="618" on="0"/>
        <pt x="406" y="644" on="0"/>
        <pt x="454" y="644" on="1"/>
        <pt x="461" y="644" on="0"/>
        <pt x="473" y="644" on="0"/>
        <pt x="479" y="643" on="1"/>
        <pt x="500" y="655" on="0"/>
        <pt x="546" y="674" on="0"/>
        <pt x="572" y="680" on="1"/>
        <pt x="577" y="680" on="0"/>
        <pt x="577" y="673" on="0"/>
        <pt x="572" y="671" on="1"/>
        <pt x="536" y="662" on="0"/>
        <pt x="506" y="641" on="1"/>
        <pt x="594" y="630" on="0"/>
        <pt x="681" y="552" on="0"/>
        <pt x="681" y="500" on="1"/>
        <pt x="681" y="470" on="0"/>
        <pt x="657" y="420" on="0"/>
        <pt x="616" y="384" on="0"/>
        <pt x="559" y="364" on="0"/>
      </contour>
      <contour>
        <pt x="401" y="15" on="1"/>
        <pt x="446" y="15" on="0"/>
        <pt x="517" y="40" on="0"/>
        <pt x="565" y="83" on="0"/>
        <pt x="590" y="141" on="0"/>
        <pt x="590" y="175" on="1"/>
        <pt x="590" y="305" on="0"/>
        <pt x="430" y="348" on="1"/>
        <pt x="427" y="351" on="0"/>
        <pt x="438" y="364" on="0"/>
        <pt x="456" y="377" on="0"/>
        <pt x="476" y="385" on="0"/>
        <pt x="482" y="384" on="1"/>
        <pt x="492" y="380" on="0"/>
        <pt x="507" y="376" on="0"/>
        <pt x="519" y="376" on="1"/>
        <pt x="537" y="376" on="0"/>
        <pt x="572" y="392" on="0"/>
        <pt x="599" y="419" on="0"/>
        <pt x="616" y="457" on="0"/>
        <pt x="616" y="479" on="1"/>
        <pt x="616" y="527" on="0"/>
        <pt x="544" y="601" on="0"/>
        <pt x="472" y="612" on="1"/>
        <pt x="408" y="546" on="0"/>
        <pt x="372" y="411" on="1"/>
        <pt x="346" y="314" on="0"/>
        <pt x="295" y="195" on="0"/>
        <pt x="240" y="128" on="0"/>
        <pt x="178" y="104" on="0"/>
        <pt x="139" y="102" on="1"/>
        <pt x="190" y="64" on="0"/>
        <pt x="326" y="15" on="0"/>
      </contour>
    </TTGlyph>
    <TTGlyph name="C" xMin="69" yMin="0" xMax="650" yMax="644">
      <contour>
        <pt x="485" y="644" on="1"/>
        <pt x="521" y="644" on="0"/>
        <pt x="581" y="637" on="0"/>
        <pt x="625" y="623" on="0"/>
        <pt x="650" y="604" on="0"/>
        <pt x="650" y="592" on="1"/>
        <pt x="650" y="584" on="0"/>
        <pt x="642" y="557" on="0"/>
        <pt x="631" y="528" on="0"/>
        <pt x="617" y="500" on="0"/>
        <pt x="611" y="492" on="1"/>
        <pt x="608" y="490" on="0"/>
        <pt x="599" y="495" on="0"/>
        <pt x="601" y="500" on="1"/>
        <pt x="622" y="537" on="0"/>
        <pt x="610" y="557" on="1"/>
        <pt x="597" y="578" on="0"/>
        <pt x="513" y="616" on="0"/>
        <pt x="451" y="616" on="1"/>
        <pt x="373" y="616" on="0"/>
        <pt x="256" y="568" on="0"/>
        <pt x="178" y="480" on="0"/>
        <pt x="139" y="354" on="0"/>
        <pt x="139" y="276" on="1"/>
        <pt x="139" y="220" on="0"/>
        <pt x="169" y="125" on="0"/>
        <pt x="227" y="56" on="0"/>
        <pt x="311" y="17" on="0"/>
        <pt x="365" y="17" on="1"/>
        <pt x="437" y="17" on="0"/>
        <pt x="533" y="106" on="0"/>
        <pt x="553" y="180" on="1"/>
        <pt x="555" y="185" on="0"/>
        <pt x="565" y="183" on="0"/>
        <pt x="565" y="178" on="1"/>
        <pt x="561" y="157" on="0"/>
        <pt x="546" y="106" on="0"/>
        <pt x="528" y="61" on="0"/>
        <pt x="510" y="28" on="0"/>
        <pt x="504" y="26" on="1"/>
        <pt x="472" y="14" on="0"/>
        <pt x="393" y="0" on="0"/>
        <pt x="349" y="0" on="1"/>
        <pt x="209" y="0" on="0"/>
        <pt x="69" y="130" on="0"/>
        <pt x="69" y="245" on="1"/>
        <pt x="69" y="330" on="0"/>
        <pt x="130" y="477" on="0"/>
        <pt x="241" y="583" on="0"/>
        <pt x="393" y="644" on="0"/>
      </contour>
    </TTGlyph>
    <TTGlyph name="Ccedilla" xMin="69" yMin="-119" xMax="651" yMax="644">
      <contour>
        <pt x="486" y="644" on="1"/>
        <pt x="522" y="644" on="0"/>
        <pt x="582" y="637" on="0"/>
        <pt x="626" y="623" on="0"/>
        <pt x="651" y="604" on="0"/>
        <pt x="651" y="592" on="1"/>
        <pt x="651" y="584" on="0"/>
        <pt x="643" y="557" on="0"/>
        <pt x="632" y="528" on="0"/>
        <pt x="618" y="501" on="0"/>
        <pt x="612" y="493" on="1"/>
        <pt x="609" y="491" on="0"/>
        <pt x="600" y="496" on="0"/>
        <pt x="602" y="500" on="1"/>
        <pt x="623" y="537" on="0"/>
        <pt x="611" y="557" on="1"/>
        <pt x="598" y="578" on="0"/>
        <pt x="513" y="617" on="0"/>
        <pt x="451" y="617" on="1"/>
        <pt x="373" y="617" on="0"/>
        <pt x="256" y="569" on="0"/>
        <pt x="178" y="480" on="0"/>
        <pt x="140" y="354" on="0"/>
        <pt x="140" y="276" on="1"/>
        <pt x="140" y="220" on="0"/>
        <pt x="170" y="126" on="0"/>
        <pt x="227" y="57" on="0"/>
        <pt x="311" y="18" on="0"/>
        <pt x="365" y="18" on="1"/>
        <pt x="437" y="18" on="0"/>
        <pt x="533" y="106" on="0"/>
        <pt x="553" y="181" on="1"/>
        <pt x="556" y="185" on="0"/>
        <pt x="566" y="183" on="0"/>
        <pt x="566" y="178" on="1"/>
        <pt x="562" y="157" on="0"/>
        <pt x="546" y="107" on="0"/>
        <pt x="528" y="61" on="0"/>
        <pt x="511" y="29" on="0"/>
        <pt x="505" y="26" on="1"/>
        <pt x="476" y="15" on="0"/>
        <pt x="402" y="2" on="0"/>
        <pt x="361" y="0" on="1"/>
        <pt x="354" y="-6" on="0"/>
        <pt x="351" y="-24" on="0"/>
        <pt x="354" y="-32" on="1"/>
        <pt x="363" y="-55" on="0"/>
        <pt x="335" y="-105" on="0"/>
        <pt x="300" y="-119" on="1"/>
        <pt x="297" y="-118" on="0"/>
        <pt x="296" y="-111" on="0"/>
        <pt x="298" y="-109" on="1"/>
        <pt x="324" y="-97" on="0"/>
        <pt x="335" y="-69" on="0"/>
        <pt x="328" y="-49" on="1"/>
        <pt x="324" y="-36" on="0"/>
        <pt x="330" y="-11" on="0"/>
        <pt x="344" y="0" on="1"/>
        <pt x="206" y="2" on="0"/>
        <pt x="69" y="131" on="0"/>
        <pt x="69" y="246" on="1"/>
        <pt x="69" y="331" on="0"/>
        <pt x="131" y="477" on="0"/>
        <pt x="241" y="583" on="0"/>
        <pt x="394" y="644" on="0"/>
      </contour>
    </TTGlyph>
    <TTGlyph name="D" xMin="30" yMin="0" xMax="812" yMax="661">
      <contour>
        <pt x="587" y="594" on="1"/>
        <pt x="636" y="567" on="0"/>
        <pt x="719" y="492" on="0"/>
        <pt x="779" y="402" on="0"/>
        <pt x="812" y="304" on="0"/>
        <pt x="812" y="255" on="1"/>
        <pt x="812" y="200" on="0"/>
        <pt x="770" y="106" on="0"/>
        <pt x="694" y="38" on="0"/>
        <pt x="587" y="0" on="0"/>
        <pt x="522" y="0" on="1"/>
        <pt x="484" y="0" on="0"/>
        <pt x="418" y="9" on="0"/>
        <pt x="359" y="24" on="0"/>
        <pt x="304" y="43" on="0"/>
        <pt x="277" y="52" on="1"/>
        <pt x="239" y="25" on="0"/>
        <pt x="146" y="0" on="0"/>
        <pt x="89" y="0" on="1"/>
        <pt x="57" y="0" on="0"/>
        <pt x="30" y="15" on="0"/>
        <pt x="30" y="28" on="1"/>
        <pt x="30" y="41" on="0"/>
        <pt x="49" y="72" on="0"/>
        <pt x="84" y="98" on="0"/>
        <pt x="131" y="115" on="0"/>
        <pt x="160" y="115" on="1"/>
        <pt x="199" y="115" on="0"/>
        <pt x="264" y="101" on="0"/>
        <pt x="296" y="90" on="1"/>
        <pt x="331" y="130" on="0"/>
        <pt x="393" y="266" on="0"/>
        <pt x="427" y="372" on="1"/>
        <pt x="447" y="434" on="0"/>
        <pt x="494" y="530" on="0"/>
        <pt x="525" y="565" on="1"/>
        <pt x="485" y="585" on="0"/>
        <pt x="396" y="606" on="0"/>
        <pt x="348" y="606" on="1"/>
        <pt x="304" y="606" on="0"/>
        <pt x="239" y="580" on="0"/>
        <pt x="195" y="536" on="0"/>
        <pt x="169" y="478" on="0"/>
        <pt x="164" y="446" on="1"/>
        <pt x="162" y="444" on="0"/>
        <pt x="156" y="446" on="0"/>
        <pt x="156" y="450" on="1"/>
        <pt x="160" y="491" on="0"/>
        <pt x="196" y="562" on="0"/>
        <pt x="257" y="614" on="0"/>
        <pt x="341" y="644" on="0"/>
        <pt x="394" y="644" on="1"/>
        <pt x="440" y="644" on="0"/>
        <pt x="526" y="623" on="0"/>
        <pt x="566" y="604" on="1"/>
        <pt x="592" y="625" on="0"/>
        <pt x="653" y="653" on="0"/>
        <pt x="691" y="661" on="1"/>
        <pt x="694" y="661" on="0"/>
        <pt x="694" y="654" on="0"/>
        <pt x="691" y="652" on="1"/>
        <pt x="632" y="636" on="0"/>
      </contour>
      <contour>
        <pt x="123" y="18" on="1"/>
        <pt x="165" y="18" on="0"/>
        <pt x="232" y="35" on="0"/>
        <pt x="261" y="57" on="1"/>
        <pt x="228" y="67" on="0"/>
        <pt x="158" y="81" on="0"/>
        <pt x="116" y="81" on="1"/>
        <pt x="93" y="81" on="0"/>
        <pt x="72" y="65" on="0"/>
        <pt x="72" y="51" on="1"/>
        <pt x="72" y="36" on="0"/>
        <pt x="97" y="18" on="0"/>
      </contour>
      <contour>
        <pt x="571" y="33" on="1"/>
        <pt x="667" y="33" on="0"/>
        <pt x="757" y="134" on="0"/>
        <pt x="757" y="224" on="1"/>
        <pt x="757" y="271" on="0"/>
        <pt x="727" y="365" on="0"/>
        <pt x="673" y="451" on="0"/>
        <pt x="597" y="525" on="0"/>
        <pt x="550" y="552" on="1"/>
        <pt x="505" y="491" on="0"/>
        <pt x="473" y="393" on="1"/>
        <pt x="438" y="282" on="0"/>
        <pt x="363" y="131" on="0"/>
        <pt x="315" y="83" on="1"/>
        <pt x="340" y="74" on="0"/>
        <pt x="393" y="57" on="0"/>
        <pt x="455" y="42" on="0"/>
        <pt x="527" y="33" on="0"/>
      </contour>
    </TTGlyph>
    <TTGlyph name="E" xMin="60" yMin="0" xMax="565" yMax="644">
      <contour>
        <pt x="288" y="523" on="1"/>
        <pt x="288" y="488" on="0"/>
        <pt x="336" y="439" on="0"/>
        <pt x="393" y="422" on="1"/>
        <pt x="396" y="420" on="0"/>
        <pt x="389" y="409" on="0"/>
        <pt x="377" y="396" on="0"/>
        <pt x="363" y="386" on="0"/>
        <pt x="359" y="385" on="1"/>
        <pt x="248" y="390" on="0"/>
        <pt x="127" y="285" on="0"/>
        <pt x="127" y="182" on="1"/>
        <pt x="127" y="147" on="0"/>
        <pt x="148" y="87" on="0"/>
        <pt x="187" y="43" on="0"/>
        <pt x="242" y="18" on="0"/>
        <pt x="277" y="18" on="1"/>
        <pt x="359" y="18" on="0"/>
        <pt x="463" y="94" on="0"/>
        <pt x="486" y="179" on="1"/>
        <pt x="489" y="184" on="0"/>
        <pt x="496" y="180" on="0"/>
        <pt x="497" y="174" on="1"/>
        <pt x="485" y="118" on="0"/>
        <pt x="452" y="44" on="0"/>
        <pt x="438" y="38" on="1"/>
        <pt x="396" y="19" on="0"/>
        <pt x="310" y="0" on="0"/>
        <pt x="252" y="0" on="1"/>
        <pt x="158" y="0" on="0"/>
        <pt x="60" y="83" on="0"/>
        <pt x="60" y="158" on="1"/>
        <pt x="60" y="206" on="0"/>
        <pt x="98" y="287" on="0"/>
        <pt x="165" y="351" on="0"/>
        <pt x="257" y="395" on="0"/>
        <pt x="312" y="405" on="1"/>
        <pt x="274" y="421" on="0"/>
        <pt x="228" y="475" on="0"/>
        <pt x="228" y="510" on="1"/>
        <pt x="228" y="537" on="0"/>
        <pt x="255" y="586" on="0"/>
        <pt x="307" y="622" on="0"/>
        <pt x="383" y="644" on="0"/>
        <pt x="432" y="644" on="1"/>
        <pt x="459" y="644" on="0"/>
        <pt x="507" y="634" on="0"/>
        <pt x="544" y="618" on="0"/>
        <pt x="565" y="597" on="0"/>
        <pt x="565" y="587" on="1"/>
        <pt x="565" y="579" on="0"/>
        <pt x="558" y="555" on="0"/>
        <pt x="547" y="531" on="0"/>
        <pt x="536" y="510" on="0"/>
        <pt x="533" y="506" on="1"/>
        <pt x="530" y="504" on="0"/>
        <pt x="524" y="508" on="0"/>
        <pt x="525" y="512" on="1"/>
        <pt x="531" y="523" on="0"/>
        <pt x="535" y="549" on="0"/>
        <pt x="529" y="563" on="1"/>
        <pt x="517" y="588" on="0"/>
        <pt x="452" y="623" on="0"/>
        <pt x="408" y="623" on="1"/>
        <pt x="348" y="623" on="0"/>
        <pt x="288" y="568" on="0"/>
      </contour>
    </TTGlyph>
    <TTGlyph name="Eacute" xMin="60" yMin="0" xMax="565" yMax="737">
      <contour>
        <pt x="432" y="734" on="1"/>
        <pt x="437" y="737" on="0"/>
        <pt x="464" y="728" on="0"/>
        <pt x="473" y="724" on="1"/>
        <pt x="475" y="722" on="0"/>
        <pt x="477" y="717" on="0"/>
        <pt x="474" y="715" on="1"/>
        <pt x="464" y="708" on="0"/>
        <pt x="433" y="692" on="0"/>
        <pt x="398" y="677" on="0"/>
        <pt x="361" y="663" on="0"/>
        <pt x="346" y="658" on="1"/>
        <pt x="342" y="658" on="0"/>
        <pt x="342" y="666" on="0"/>
        <pt x="345" y="669" on="1"/>
        <pt x="365" y="681" on="0"/>
        <pt x="413" y="714" on="0"/>
      </contour>
      <contour>
        <pt x="288" y="523" on="1"/>
        <pt x="288" y="488" on="0"/>
        <pt x="336" y="439" on="0"/>
        <pt x="393" y="422" on="1"/>
        <pt x="396" y="420" on="0"/>
        <pt x="389" y="409" on="0"/>
        <pt x="377" y="396" on="0"/>
        <pt x="363" y="386" on="0"/>
        <pt x="359" y="385" on="1"/>
        <pt x="248" y="390" on="0"/>
        <pt x="127" y="285" on="0"/>
        <pt x="127" y="182" on="1"/>
        <pt x="127" y="147" on="0"/>
        <pt x="148" y="87" on="0"/>
        <pt x="187" y="43" on="0"/>
        <pt x="242" y="18" on="0"/>
        <pt x="277" y="18" on="1"/>
        <pt x="359" y="18" on="0"/>
        <pt x="463" y="94" on="0"/>
        <pt x="486" y="179" on="1"/>
        <pt x="489" y="184" on="0"/>
        <pt x="496" y="180" on="0"/>
        <pt x="497" y="174" on="1"/>
        <pt x="485" y="118" on="0"/>
        <pt x="452" y="44" on="0"/>
        <pt x="438" y="38" on="1"/>
        <pt x="396" y="19" on="0"/>
        <pt x="310" y="0" on="0"/>
        <pt x="252" y="0" on="1"/>
        <pt x="158" y="0" on="0"/>
        <pt x="60" y="83" on="0"/>
        <pt x="60" y="158" on="1"/>
        <pt x="60" y="206" on="0"/>
        <pt x="98" y="287" on="0"/>
        <pt x="165" y="351" on="0"/>
        <pt x="257" y="395" on="0"/>
        <pt x="312" y="405" on="1"/>
        <pt x="274" y="421" on="0"/>
        <pt x="228" y="475" on="0"/>
        <pt x="228" y="510" on="1"/>
        <pt x="228" y="537" on="0"/>
        <pt x="255" y="586" on="0"/>
        <pt x="307" y="622" on="0"/>
        <pt x="383" y="644" on="0"/>
        <pt x="432" y="644" on="1"/>
        <pt x="459" y="644" on="0"/>
        <pt x="507" y="634" on="0"/>
        <pt x="544" y="618" on="0"/>
        <pt x="565" y="597" on="0"/>
        <pt x="565" y="587" on="1"/>
        <pt x="565" y="579" on="0"/>
        <pt x="558" y="555" on="0"/>
        <pt x="547" y="531" on="0"/>
        <pt x="536" y="510" on="0"/>
        <pt x="533" y="506" on="1"/>
        <pt x="530" y="504" on="0"/>
        <pt x="524" y="508" on="0"/>
        <pt x="525" y="512" on="1"/>
        <pt x="531" y="523" on="0"/>
        <pt x="535" y="549" on="0"/>
        <pt x="529" y="563" on="1"/>
        <pt x="517" y="588" on="0"/>
        <pt x="452" y="623" on="0"/>
        <pt x="408" y="623" on="1"/>
        <pt x="348" y="623" on="0"/>
        <pt x="288" y="568" on="0"/>
      </contour>
    </TTGlyph>
    <TTGlyph name="Ecircumflex" xMin="60" yMin="0" xMax="565" yMax="751">
      <contour>
        <pt x="391" y="746" on="1"/>
        <pt x="396" y="751" on="0"/>
        <pt x="403" y="745" on="1"/>
        <pt x="416" y="728" on="0"/>
        <pt x="457" y="693" on="0"/>
        <pt x="477" y="684" on="1"/>
        <pt x="482" y="679" on="0"/>
        <pt x="463" y="669" on="0"/>
        <pt x="451" y="671" on="1"/>
        <pt x="432" y="679" on="0"/>
        <pt x="401" y="702" on="0"/>
        <pt x="385" y="715" on="1"/>
        <pt x="379" y="710" on="0"/>
        <pt x="359" y="698" on="0"/>
        <pt x="338" y="685" on="0"/>
        <pt x="317" y="673" on="0"/>
        <pt x="310" y="670" on="1"/>
        <pt x="300" y="670" on="0"/>
        <pt x="305" y="679" on="1"/>
        <pt x="322" y="689" on="0"/>
        <pt x="375" y="727" on="0"/>
      </contour>
      <contour>
        <pt x="288" y="523" on="1"/>
        <pt x="288" y="488" on="0"/>
        <pt x="336" y="439" on="0"/>
        <pt x="393" y="422" on="1"/>
        <pt x="396" y="420" on="0"/>
        <pt x="389" y="409" on="0"/>
        <pt x="377" y="396" on="0"/>
        <pt x="363" y="386" on="0"/>
        <pt x="359" y="385" on="1"/>
        <pt x="248" y="390" on="0"/>
        <pt x="127" y="285" on="0"/>
        <pt x="127" y="182" on="1"/>
        <pt x="127" y="147" on="0"/>
        <pt x="148" y="87" on="0"/>
        <pt x="187" y="43" on="0"/>
        <pt x="242" y="18" on="0"/>
        <pt x="277" y="18" on="1"/>
        <pt x="359" y="18" on="0"/>
        <pt x="463" y="94" on="0"/>
        <pt x="486" y="179" on="1"/>
        <pt x="489" y="184" on="0"/>
        <pt x="496" y="180" on="0"/>
        <pt x="497" y="174" on="1"/>
        <pt x="485" y="118" on="0"/>
        <pt x="452" y="44" on="0"/>
        <pt x="438" y="38" on="1"/>
        <pt x="396" y="19" on="0"/>
        <pt x="310" y="0" on="0"/>
        <pt x="252" y="0" on="1"/>
        <pt x="158" y="0" on="0"/>
        <pt x="60" y="83" on="0"/>
        <pt x="60" y="158" on="1"/>
        <pt x="60" y="206" on="0"/>
        <pt x="98" y="287" on="0"/>
        <pt x="165" y="351" on="0"/>
        <pt x="257" y="395" on="0"/>
        <pt x="312" y="405" on="1"/>
        <pt x="274" y="421" on="0"/>
        <pt x="228" y="475" on="0"/>
        <pt x="228" y="510" on="1"/>
        <pt x="228" y="537" on="0"/>
        <pt x="255" y="586" on="0"/>
        <pt x="307" y="622" on="0"/>
        <pt x="383" y="644" on="0"/>
        <pt x="432" y="644" on="1"/>
        <pt x="459" y="644" on="0"/>
        <pt x="507" y="634" on="0"/>
        <pt x="544" y="618" on="0"/>
        <pt x="565" y="597" on="0"/>
        <pt x="565" y="587" on="1"/>
        <pt x="565" y="579" on="0"/>
        <pt x="558" y="555" on="0"/>
        <pt x="547" y="531" on="0"/>
        <pt x="536" y="510" on="0"/>
        <pt x="533" y="506" on="1"/>
        <pt x="530" y="504" on="0"/>
        <pt x="524" y="508" on="0"/>
        <pt x="525" y="512" on="1"/>
        <pt x="531" y="523" on="0"/>
        <pt x="535" y="549" on="0"/>
        <pt x="529" y="563" on="1"/>
        <pt x="517" y="588" on="0"/>
        <pt x="452" y="623" on="0"/>
        <pt x="408" y="623" on="1"/>
        <pt x="348" y="623" on="0"/>
        <pt x="288" y="568" on="0"/>
      </contour>
    </TTGlyph>
    <TTGlyph name="Edieresis" xMin="60" yMin="0" xMax="565" yMax="721">
      <contour>
        <pt x="361" y="667" on="1"/>
        <pt x="350" y="667" on="0"/>
        <pt x="350" y="684" on="1"/>
        <pt x="350" y="694" on="0"/>
        <pt x="370" y="721" on="0"/>
        <pt x="386" y="721" on="1"/>
        <pt x="395" y="721" on="0"/>
        <pt x="395" y="708" on="1"/>
        <pt x="395" y="694" on="0"/>
        <pt x="375" y="667" on="0"/>
      </contour>
      <contour>
        <pt x="438" y="667" on="1"/>
        <pt x="426" y="667" on="0"/>
        <pt x="426" y="684" on="1"/>
        <pt x="426" y="694" on="0"/>
        <pt x="446" y="721" on="0"/>
        <pt x="461" y="721" on="1"/>
        <pt x="470" y="721" on="0"/>
        <pt x="470" y="708" on="1"/>
        <pt x="470" y="694" on="0"/>
        <pt x="450" y="667" on="0"/>
      </contour>
      <contour>
        <pt x="288" y="523" on="1"/>
        <pt x="288" y="488" on="0"/>
        <pt x="336" y="439" on="0"/>
        <pt x="393" y="422" on="1"/>
        <pt x="396" y="420" on="0"/>
        <pt x="389" y="409" on="0"/>
        <pt x="377" y="396" on="0"/>
        <pt x="363" y="386" on="0"/>
        <pt x="359" y="385" on="1"/>
        <pt x="248" y="390" on="0"/>
        <pt x="127" y="285" on="0"/>
        <pt x="127" y="182" on="1"/>
        <pt x="127" y="147" on="0"/>
        <pt x="148" y="87" on="0"/>
        <pt x="187" y="43" on="0"/>
        <pt x="242" y="18" on="0"/>
        <pt x="277" y="18" on="1"/>
        <pt x="359" y="18" on="0"/>
        <pt x="463" y="94" on="0"/>
        <pt x="486" y="179" on="1"/>
        <pt x="489" y="184" on="0"/>
        <pt x="496" y="180" on="0"/>
        <pt x="497" y="174" on="1"/>
        <pt x="485" y="118" on="0"/>
        <pt x="452" y="44" on="0"/>
        <pt x="438" y="38" on="1"/>
        <pt x="396" y="19" on="0"/>
        <pt x="310" y="0" on="0"/>
        <pt x="252" y="0" on="1"/>
        <pt x="158" y="0" on="0"/>
        <pt x="60" y="83" on="0"/>
        <pt x="60" y="158" on="1"/>
        <pt x="60" y="206" on="0"/>
        <pt x="98" y="287" on="0"/>
        <pt x="165" y="351" on="0"/>
        <pt x="257" y="395" on="0"/>
        <pt x="312" y="405" on="1"/>
        <pt x="274" y="421" on="0"/>
        <pt x="228" y="475" on="0"/>
        <pt x="228" y="510" on="1"/>
        <pt x="228" y="537" on="0"/>
        <pt x="255" y="586" on="0"/>
        <pt x="307" y="622" on="0"/>
        <pt x="383" y="644" on="0"/>
        <pt x="432" y="644" on="1"/>
        <pt x="459" y="644" on="0"/>
        <pt x="507" y="634" on="0"/>
        <pt x="544" y="618" on="0"/>
        <pt x="565" y="597" on="0"/>
        <pt x="565" y="587" on="1"/>
        <pt x="565" y="579" on="0"/>
        <pt x="558" y="555" on="0"/>
        <pt x="547" y="531" on="0"/>
        <pt x="536" y="510" on="0"/>
        <pt x="533" y="506" on="1"/>
        <pt x="530" y="504" on="0"/>
        <pt x="524" y="508" on="0"/>
        <pt x="525" y="512" on="1"/>
        <pt x="531" y="523" on="0"/>
        <pt x="535" y="549" on="0"/>
        <pt x="529" y="563" on="1"/>
        <pt x="517" y="588" on="0"/>
        <pt x="452" y="623" on="0"/>
        <pt x="408" y="623" on="1"/>
        <pt x="348" y="623" on="0"/>
        <pt x="288" y="568" on="0"/>
      </contour>
    </TTGlyph>
    <TTGlyph name="Egrave" xMin="60" yMin="0" xMax="565" yMax="733">
      <contour>
        <pt x="469" y="669" on="1"/>
        <pt x="471" y="667" on="0"/>
        <pt x="466" y="660" on="0"/>
        <pt x="461" y="660" on="1"/>
        <pt x="449" y="663" on="0"/>
        <pt x="415" y="675" on="0"/>
        <pt x="381" y="689" on="0"/>
        <pt x="349" y="703" on="0"/>
        <pt x="338" y="709" on="1"/>
        <pt x="336" y="710" on="0"/>
        <pt x="336" y="715" on="0"/>
        <pt x="338" y="717" on="1"/>
        <pt x="348" y="725" on="0"/>
        <pt x="376" y="733" on="0"/>
        <pt x="378" y="731" on="1"/>
        <pt x="395" y="717" on="0"/>
        <pt x="442" y="684" on="0"/>
      </contour>
      <contour>
        <pt x="288" y="523" on="1"/>
        <pt x="288" y="488" on="0"/>
        <pt x="336" y="439" on="0"/>
        <pt x="393" y="422" on="1"/>
        <pt x="396" y="420" on="0"/>
        <pt x="389" y="409" on="0"/>
        <pt x="377" y="396" on="0"/>
        <pt x="363" y="386" on="0"/>
        <pt x="359" y="385" on="1"/>
        <pt x="248" y="390" on="0"/>
        <pt x="127" y="285" on="0"/>
        <pt x="127" y="182" on="1"/>
        <pt x="127" y="147" on="0"/>
        <pt x="148" y="87" on="0"/>
        <pt x="187" y="43" on="0"/>
        <pt x="242" y="18" on="0"/>
        <pt x="277" y="18" on="1"/>
        <pt x="359" y="18" on="0"/>
        <pt x="463" y="94" on="0"/>
        <pt x="486" y="179" on="1"/>
        <pt x="489" y="184" on="0"/>
        <pt x="496" y="180" on="0"/>
        <pt x="497" y="174" on="1"/>
        <pt x="485" y="118" on="0"/>
        <pt x="452" y="44" on="0"/>
        <pt x="438" y="38" on="1"/>
        <pt x="396" y="19" on="0"/>
        <pt x="310" y="0" on="0"/>
        <pt x="252" y="0" on="1"/>
        <pt x="158" y="0" on="0"/>
        <pt x="60" y="83" on="0"/>
        <pt x="60" y="158" on="1"/>
        <pt x="60" y="206" on="0"/>
        <pt x="98" y="287" on="0"/>
        <pt x="165" y="351" on="0"/>
        <pt x="257" y="395" on="0"/>
        <pt x="312" y="405" on="1"/>
        <pt x="274" y="421" on="0"/>
        <pt x="228" y="475" on="0"/>
        <pt x="228" y="510" on="1"/>
        <pt x="228" y="537" on="0"/>
        <pt x="255" y="586" on="0"/>
        <pt x="307" y="622" on="0"/>
        <pt x="383" y="644" on="0"/>
        <pt x="432" y="644" on="1"/>
        <pt x="459" y="644" on="0"/>
        <pt x="507" y="634" on="0"/>
        <pt x="544" y="618" on="0"/>
        <pt x="565" y="597" on="0"/>
        <pt x="565" y="587" on="1"/>
        <pt x="565" y="579" on="0"/>
        <pt x="558" y="555" on="0"/>
        <pt x="547" y="531" on="0"/>
        <pt x="536" y="510" on="0"/>
        <pt x="533" y="506" on="1"/>
        <pt x="530" y="504" on="0"/>
        <pt x="524" y="508" on="0"/>
        <pt x="525" y="512" on="1"/>
        <pt x="531" y="523" on="0"/>
        <pt x="535" y="549" on="0"/>
        <pt x="529" y="563" on="1"/>
        <pt x="517" y="588" on="0"/>
        <pt x="452" y="623" on="0"/>
        <pt x="408" y="623" on="1"/>
        <pt x="348" y="623" on="0"/>
        <pt x="288" y="568" on="0"/>
      </contour>
    </TTGlyph>
    <TTGlyph name="Eth" xMin="30" yMin="0" xMax="812" yMax="662">
      <contour>
        <pt x="587" y="594" on="1"/>
        <pt x="636" y="567" on="0"/>
        <pt x="719" y="492" on="0"/>
        <pt x="779" y="402" on="0"/>
        <pt x="812" y="304" on="0"/>
        <pt x="812" y="255" on="1"/>
        <pt x="812" y="200" on="0"/>
        <pt x="770" y="106" on="0"/>
        <pt x="694" y="38" on="0"/>
        <pt x="587" y="0" on="0"/>
        <pt x="522" y="0" on="1"/>
        <pt x="484" y="0" on="0"/>
        <pt x="418" y="10" on="0"/>
        <pt x="359" y="25" on="0"/>
        <pt x="305" y="43" on="0"/>
        <pt x="278" y="52" on="1"/>
        <pt x="239" y="25" on="0"/>
        <pt x="146" y="0" on="0"/>
        <pt x="89" y="0" on="1"/>
        <pt x="57" y="0" on="0"/>
        <pt x="30" y="15" on="0"/>
        <pt x="30" y="28" on="1"/>
        <pt x="30" y="41" on="0"/>
        <pt x="50" y="72" on="0"/>
        <pt x="84" y="98" on="0"/>
        <pt x="132" y="115" on="0"/>
        <pt x="161" y="115" on="1"/>
        <pt x="199" y="115" on="0"/>
        <pt x="264" y="101" on="0"/>
        <pt x="296" y="90" on="1"/>
        <pt x="323" y="121" on="0"/>
        <pt x="372" y="216" on="0"/>
        <pt x="398" y="285" on="1"/>
        <pt x="362" y="283" on="0"/>
        <pt x="296" y="276" on="0"/>
        <pt x="271" y="271" on="1"/>
        <pt x="267" y="273" on="0"/>
        <pt x="278" y="285" on="0"/>
        <pt x="289" y="289" on="1"/>
        <pt x="304" y="291" on="0"/>
        <pt x="366" y="296" on="0"/>
        <pt x="402" y="298" on="1"/>
        <pt x="409" y="315" on="0"/>
        <pt x="421" y="353" on="0"/>
        <pt x="428" y="373" on="1"/>
        <pt x="448" y="434" on="0"/>
        <pt x="495" y="530" on="0"/>
        <pt x="525" y="565" on="1"/>
        <pt x="485" y="585" on="0"/>
        <pt x="396" y="606" on="0"/>
        <pt x="348" y="606" on="1"/>
        <pt x="304" y="606" on="0"/>
        <pt x="240" y="580" on="0"/>
        <pt x="195" y="537" on="0"/>
        <pt x="169" y="479" on="0"/>
        <pt x="164" y="447" on="1"/>
        <pt x="162" y="444" on="0"/>
        <pt x="157" y="447" on="0"/>
        <pt x="156" y="450" on="1"/>
        <pt x="160" y="492" on="0"/>
        <pt x="196" y="563" on="0"/>
        <pt x="257" y="615" on="0"/>
        <pt x="341" y="644" on="0"/>
        <pt x="394" y="644" on="1"/>
        <pt x="440" y="644" on="0"/>
        <pt x="526" y="624" on="0"/>
        <pt x="566" y="605" on="1"/>
        <pt x="617" y="646" on="0"/>
        <pt x="691" y="662" on="1"/>
        <pt x="694" y="662" on="0"/>
        <pt x="695" y="655" on="0"/>
        <pt x="691" y="653" on="1"/>
        <pt x="633" y="637" on="0"/>
      </contour>
      <contour>
        <pt x="123" y="18" on="1"/>
        <pt x="165" y="18" on="0"/>
        <pt x="233" y="35" on="0"/>
        <pt x="262" y="57" on="1"/>
        <pt x="229" y="68" on="0"/>
        <pt x="159" y="81" on="0"/>
        <pt x="117" y="81" on="1"/>
        <pt x="94" y="81" on="0"/>
        <pt x="72" y="65" on="0"/>
        <pt x="72" y="51" on="1"/>
        <pt x="72" y="36" on="0"/>
        <pt x="97" y="18" on="0"/>
      </contour>
      <contour>
        <pt x="572" y="33" on="1"/>
        <pt x="667" y="33" on="0"/>
        <pt x="757" y="135" on="0"/>
        <pt x="757" y="224" on="1"/>
        <pt x="757" y="271" on="0"/>
        <pt x="727" y="365" on="0"/>
        <pt x="673" y="451" on="0"/>
        <pt x="597" y="525" on="0"/>
        <pt x="550" y="552" on="1"/>
        <pt x="527" y="521" on="0"/>
        <pt x="489" y="442" on="0"/>
        <pt x="473" y="393" on="1"/>
        <pt x="465" y="367" on="0"/>
        <pt x="448" y="321" on="0"/>
        <pt x="440" y="299" on="1"/>
        <pt x="475" y="301" on="0"/>
        <pt x="538" y="301" on="0"/>
        <pt x="560" y="300" on="1"/>
        <pt x="562" y="298" on="0"/>
        <pt x="561" y="293" on="0"/>
        <pt x="555" y="291" on="1"/>
        <pt x="529" y="291" on="0"/>
        <pt x="468" y="289" on="0"/>
        <pt x="436" y="287" on="1"/>
        <pt x="409" y="218" on="0"/>
        <pt x="350" y="119" on="0"/>
        <pt x="315" y="84" on="1"/>
        <pt x="340" y="75" on="0"/>
        <pt x="394" y="57" on="0"/>
        <pt x="455" y="42" on="0"/>
        <pt x="528" y="33" on="0"/>
      </contour>
    </TTGlyph>
    <TTGlyph name="Euro" xMin="-1" yMin="0" xMax="327" yMax="313">
      <contour>
        <pt x="256" y="313" on="1"/>
        <pt x="288" y="313" on="0"/>
        <pt x="327" y="289" on="0"/>
        <pt x="327" y="275" on="1"/>
        <pt x="327" y="266" on="0"/>
        <pt x="317" y="231" on="0"/>
        <pt x="312" y="217" on="1"/>
        <pt x="310" y="215" on="0"/>
        <pt x="301" y="220" on="0"/>
        <pt x="302" y="224" on="1"/>
        <pt x="312" y="247" on="0"/>
        <pt x="300" y="266" on="1"/>
        <pt x="292" y="278" on="0"/>
        <pt x="259" y="294" on="0"/>
        <pt x="238" y="294" on="1"/>
        <pt x="192" y="294" on="0"/>
        <pt x="127" y="243" on="0"/>
        <pt x="113" y="195" on="1"/>
        <pt x="139" y="196" on="0"/>
        <pt x="199" y="195" on="0"/>
        <pt x="232" y="195" on="1"/>
        <pt x="237" y="193" on="0"/>
        <pt x="235" y="185" on="0"/>
        <pt x="227" y="184" on="1"/>
        <pt x="198" y="183" on="0"/>
        <pt x="138" y="181" on="0"/>
        <pt x="109" y="179" on="1"/>
        <pt x="107" y="172" on="0"/>
        <pt x="106" y="158" on="0"/>
        <pt x="105" y="150" on="1"/>
        <pt x="130" y="150" on="0"/>
        <pt x="184" y="149" on="0"/>
        <pt x="214" y="149" on="1"/>
        <pt x="219" y="147" on="0"/>
        <pt x="217" y="140" on="0"/>
        <pt x="209" y="138" on="1"/>
        <pt x="156" y="138" on="0"/>
        <pt x="105" y="135" on="1"/>
        <pt x="105" y="130" on="1"/>
        <pt x="105" y="73" on="0"/>
        <pt x="146" y="14" on="0"/>
        <pt x="180" y="14" on="1"/>
        <pt x="206" y="14" on="0"/>
        <pt x="243" y="43" on="0"/>
        <pt x="255" y="76" on="1"/>
        <pt x="258" y="79" on="0"/>
        <pt x="265" y="78" on="0"/>
        <pt x="265" y="74" on="1"/>
        <pt x="258" y="50" on="0"/>
        <pt x="241" y="11" on="0"/>
        <pt x="232" y="8" on="1"/>
        <pt x="222" y="5" on="0"/>
        <pt x="188" y="0" on="0"/>
        <pt x="171" y="0" on="1"/>
        <pt x="112" y="0" on="0"/>
        <pt x="51" y="58" on="0"/>
        <pt x="51" y="115" on="1"/>
        <pt x="51" y="129" on="1"/>
        <pt x="39" y="128" on="0"/>
        <pt x="16" y="124" on="0"/>
        <pt x="4" y="122" on="1"/>
        <pt x="-1" y="123" on="0"/>
        <pt x="4" y="131" on="0"/>
        <pt x="18" y="139" on="0"/>
        <pt x="36" y="146" on="0"/>
        <pt x="44" y="147" on="1"/>
        <pt x="46" y="147" on="0"/>
        <pt x="51" y="148" on="0"/>
        <pt x="54" y="148" on="1"/>
        <pt x="55" y="155" on="0"/>
        <pt x="58" y="167" on="0"/>
        <pt x="60" y="174" on="1"/>
        <pt x="50" y="172" on="0"/>
        <pt x="31" y="170" on="0"/>
        <pt x="22" y="168" on="1"/>
        <pt x="17" y="169" on="0"/>
        <pt x="22" y="177" on="0"/>
        <pt x="35" y="185" on="0"/>
        <pt x="53" y="192" on="0"/>
        <pt x="61" y="193" on="1"/>
        <pt x="68" y="193" on="1"/>
        <pt x="91" y="244" on="0"/>
        <pt x="189" y="313" on="0"/>
      </contour>
    </TTGlyph>
    <TTGlyph name="F" xMin="50" yMin="0" xMax="856" yMax="645">
      <contour>
        <pt x="852" y="610" on="1"/>
        <pt x="856" y="607" on="0"/>
        <pt x="850" y="594" on="0"/>
        <pt x="837" y="581" on="0"/>
        <pt x="819" y="571" on="0"/>
        <pt x="812" y="571" on="1"/>
        <pt x="788" y="573" on="0"/>
        <pt x="739" y="579" on="0"/>
        <pt x="715" y="583" on="1"/>
        <pt x="694" y="577" on="0"/>
        <pt x="663" y="554" on="0"/>
        <pt x="638" y="516" on="0"/>
        <pt x="617" y="459" on="0"/>
        <pt x="606" y="418" on="1"/>
        <pt x="599" y="395" on="0"/>
        <pt x="587" y="351" on="0"/>
        <pt x="579" y="331" on="1"/>
        <pt x="682" y="331" on="1"/>
        <pt x="687" y="329" on="0"/>
        <pt x="684" y="324" on="0"/>
        <pt x="676" y="322" on="1"/>
        <pt x="650" y="321" on="0"/>
        <pt x="600" y="320" on="0"/>
        <pt x="575" y="319" on="1"/>
        <pt x="515" y="154" on="0"/>
        <pt x="330" y="0" on="0"/>
        <pt x="201" y="0" on="1"/>
        <pt x="129" y="0" on="0"/>
        <pt x="50" y="68" on="0"/>
        <pt x="50" y="128" on="1"/>
        <pt x="50" y="163" on="0"/>
        <pt x="91" y="223" on="0"/>
        <pt x="129" y="240" on="1"/>
        <pt x="133" y="240" on="0"/>
        <pt x="137" y="233" on="0"/>
        <pt x="135" y="230" on="1"/>
        <pt x="117" y="216" on="0"/>
        <pt x="100" y="183" on="0"/>
        <pt x="100" y="154" on="1"/>
        <pt x="100" y="128" on="0"/>
        <pt x="118" y="85" on="0"/>
        <pt x="156" y="52" on="0"/>
        <pt x="216" y="34" on="0"/>
        <pt x="258" y="34" on="1"/>
        <pt x="306" y="34" on="0"/>
        <pt x="379" y="58" on="0"/>
        <pt x="439" y="121" on="0"/>
        <pt x="491" y="231" on="0"/>
        <pt x="518" y="317" on="1"/>
        <pt x="467" y="315" on="0"/>
        <pt x="371" y="307" on="0"/>
        <pt x="325" y="300" on="1"/>
        <pt x="322" y="301" on="0"/>
        <pt x="330" y="308" on="0"/>
        <pt x="345" y="316" on="0"/>
        <pt x="363" y="323" on="0"/>
        <pt x="368" y="324" on="1"/>
        <pt x="443" y="328" on="0"/>
        <pt x="522" y="330" on="1"/>
        <pt x="527" y="346" on="0"/>
        <pt x="537" y="380" on="0"/>
        <pt x="542" y="398" on="1"/>
        <pt x="564" y="479" on="0"/>
        <pt x="632" y="566" on="0"/>
        <pt x="691" y="587" on="1"/>
        <pt x="637" y="595" on="0"/>
        <pt x="538" y="608" on="0"/>
        <pt x="493" y="608" on="1"/>
        <pt x="418" y="608" on="0"/>
        <pt x="320" y="551" on="0"/>
        <pt x="297" y="482" on="1"/>
        <pt x="294" y="479" on="0"/>
        <pt x="288" y="483" on="0"/>
        <pt x="288" y="488" on="1"/>
        <pt x="310" y="559" on="0"/>
        <pt x="439" y="645" on="0"/>
        <pt x="534" y="645" on="1"/>
        <pt x="571" y="645" on="0"/>
        <pt x="646" y="637" on="0"/>
        <pt x="724" y="626" on="0"/>
        <pt x="807" y="614" on="0"/>
      </contour>
    </TTGlyph>
    <TTGlyph name="G" xMin="-37" yMin="-186" xMax="727" yMax="643">
      <contour>
        <pt x="575" y="605" on="1"/>
        <pt x="507" y="605" on="0"/>
        <pt x="394" y="548" on="0"/>
        <pt x="313" y="449" on="0"/>
        <pt x="268" y="316" on="0"/>
        <pt x="268" y="239" on="1"/>
        <pt x="268" y="171" on="0"/>
        <pt x="317" y="101" on="0"/>
        <pt x="368" y="101" on="1"/>
        <pt x="427" y="101" on="0"/>
        <pt x="513" y="166" on="0"/>
        <pt x="530" y="226" on="1"/>
        <pt x="532" y="234" on="0"/>
        <pt x="554" y="245" on="0"/>
        <pt x="578" y="249" on="0"/>
        <pt x="598" y="246" on="0"/>
        <pt x="598" y="240" on="1"/>
        <pt x="566" y="127" on="0"/>
        <pt x="478" y="-35" on="0"/>
        <pt x="368" y="-138" on="0"/>
        <pt x="238" y="-186" on="0"/>
        <pt x="165" y="-186" on="1"/>
        <pt x="66" y="-186" on="0"/>
        <pt x="-37" y="-104" on="0"/>
        <pt x="-37" y="-34" on="1"/>
        <pt x="-37" y="8" on="0"/>
        <pt x="15" y="80" on="0"/>
        <pt x="69" y="100" on="1"/>
        <pt x="74" y="102" on="0"/>
        <pt x="76" y="91" on="0"/>
        <pt x="72" y="87" on="1"/>
        <pt x="48" y="73" on="0"/>
        <pt x="25" y="28" on="0"/>
        <pt x="25" y="-10" on="1"/>
        <pt x="25" y="-85" on="0"/>
        <pt x="112" y="-168" on="0"/>
        <pt x="191" y="-168" on="1"/>
        <pt x="245" y="-168" on="0"/>
        <pt x="337" y="-135" on="0"/>
        <pt x="415" y="-62" on="0"/>
        <pt x="479" y="57" on="0"/>
        <pt x="506" y="143" on="1"/>
        <pt x="475" y="117" on="0"/>
        <pt x="396" y="82" on="0"/>
        <pt x="348" y="82" on="1"/>
        <pt x="200" y="82" on="0"/>
        <pt x="200" y="216" on="1"/>
        <pt x="200" y="262" on="0"/>
        <pt x="231" y="361" on="0"/>
        <pt x="287" y="456" on="0"/>
        <pt x="365" y="541" on="0"/>
        <pt x="458" y="605" on="0"/>
        <pt x="564" y="643" on="0"/>
        <pt x="621" y="643" on="1"/>
        <pt x="669" y="643" on="0"/>
        <pt x="727" y="601" on="0"/>
        <pt x="727" y="569" on="1"/>
        <pt x="727" y="558" on="0"/>
        <pt x="713" y="528" on="0"/>
        <pt x="692" y="497" on="0"/>
        <pt x="670" y="468" on="0"/>
        <pt x="663" y="457" on="1"/>
        <pt x="660" y="455" on="0"/>
        <pt x="652" y="460" on="0"/>
        <pt x="653" y="464" on="1"/>
        <pt x="667" y="486" on="0"/>
        <pt x="680" y="520" on="0"/>
        <pt x="680" y="540" on="1"/>
        <pt x="680" y="568" on="0"/>
        <pt x="629" y="605" on="0"/>
      </contour>
    </TTGlyph>
    <TTGlyph name="H" xMin="50" yMin="0" xMax="1174" yMax="681">
      <contour>
        <pt x="1129" y="681" on="1"/>
        <pt x="1174" y="681" on="0"/>
        <pt x="1174" y="637" on="1"/>
        <pt x="1174" y="623" on="0"/>
        <pt x="1164" y="586" on="0"/>
        <pt x="1159" y="575" on="1"/>
        <pt x="1153" y="573" on="0"/>
        <pt x="1151" y="579" on="1"/>
        <pt x="1159" y="602" on="0"/>
        <pt x="1132" y="635" on="0"/>
        <pt x="1090" y="635" on="1"/>
        <pt x="1046" y="635" on="0"/>
        <pt x="975" y="593" on="0"/>
        <pt x="911" y="499" on="0"/>
        <pt x="851" y="347" on="0"/>
        <pt x="820" y="237" on="1"/>
        <pt x="834" y="233" on="0"/>
        <pt x="858" y="226" on="0"/>
        <pt x="870" y="223" on="1"/>
        <pt x="872" y="221" on="0"/>
        <pt x="863" y="213" on="0"/>
        <pt x="847" y="205" on="0"/>
        <pt x="825" y="199" on="0"/>
        <pt x="815" y="200" on="1"/>
        <pt x="814" y="200" on="0"/>
        <pt x="810" y="202" on="1"/>
        <pt x="807" y="191" on="0"/>
        <pt x="802" y="172" on="0"/>
        <pt x="799" y="161" on="1"/>
        <pt x="768" y="44" on="0"/>
        <pt x="812" y="44" on="1"/>
        <pt x="851" y="44" on="0"/>
        <pt x="887" y="100" on="1"/>
        <pt x="890" y="103" on="0"/>
        <pt x="896" y="99" on="0"/>
        <pt x="895" y="94" on="1"/>
        <pt x="884" y="77" on="0"/>
        <pt x="857" y="44" on="0"/>
        <pt x="827" y="17" on="0"/>
        <pt x="795" y="0" on="0"/>
        <pt x="781" y="0" on="1"/>
        <pt x="744" y="0" on="0"/>
        <pt x="714" y="60" on="0"/>
        <pt x="731" y="127" on="1"/>
        <pt x="737" y="151" on="0"/>
        <pt x="749" y="196" on="0"/>
        <pt x="757" y="218" on="1"/>
        <pt x="698" y="235" on="0"/>
        <pt x="561" y="261" on="0"/>
        <pt x="490" y="267" on="1"/>
        <pt x="434" y="125" on="0"/>
        <pt x="270" y="0" on="0"/>
        <pt x="173" y="0" on="1"/>
        <pt x="110" y="0" on="0"/>
        <pt x="50" y="53" on="0"/>
        <pt x="50" y="92" on="1"/>
        <pt x="50" y="130" on="0"/>
        <pt x="97" y="202" on="0"/>
        <pt x="189" y="257" on="0"/>
        <pt x="327" y="291" on="0"/>
        <pt x="417" y="291" on="1"/>
        <pt x="443" y="291" on="1"/>
        <pt x="447" y="305" on="0"/>
        <pt x="455" y="333" on="0"/>
        <pt x="460" y="349" on="1"/>
        <pt x="476" y="408" on="0"/>
        <pt x="510" y="489" on="0"/>
        <pt x="544" y="543" on="0"/>
        <pt x="580" y="575" on="0"/>
        <pt x="599" y="585" on="1"/>
        <pt x="573" y="594" on="0"/>
        <pt x="501" y="609" on="0"/>
        <pt x="460" y="609" on="1"/>
        <pt x="413" y="609" on="0"/>
        <pt x="350" y="583" on="0"/>
        <pt x="314" y="538" on="0"/>
        <pt x="305" y="477" on="0"/>
        <pt x="312" y="443" on="1"/>
        <pt x="311" y="438" on="0"/>
        <pt x="305" y="436" on="0"/>
        <pt x="302" y="440" on="1"/>
        <pt x="293" y="482" on="0"/>
        <pt x="311" y="557" on="0"/>
        <pt x="362" y="613" on="0"/>
        <pt x="447" y="645" on="0"/>
        <pt x="506" y="645" on="1"/>
        <pt x="548" y="645" on="0"/>
        <pt x="626" y="626" on="0"/>
        <pt x="657" y="613" on="1"/>
        <pt x="661" y="607" on="0"/>
        <pt x="652" y="597" on="0"/>
        <pt x="637" y="591" on="1"/>
        <pt x="617" y="583" on="0"/>
        <pt x="589" y="555" on="0"/>
        <pt x="565" y="507" on="0"/>
        <pt x="542" y="437" on="0"/>
        <pt x="529" y="387" on="1"/>
        <pt x="522" y="361" on="0"/>
        <pt x="507" y="311" on="0"/>
        <pt x="498" y="288" on="1"/>
        <pt x="564" y="283" on="0"/>
        <pt x="703" y="263" on="0"/>
        <pt x="767" y="249" on="1"/>
        <pt x="801" y="351" on="0"/>
        <pt x="888" y="512" on="0"/>
        <pt x="982" y="623" on="0"/>
        <pt x="1081" y="681" on="0"/>
      </contour>
      <contour>
        <pt x="201" y="24" on="1"/>
        <pt x="245" y="24" on="0"/>
        <pt x="313" y="49" on="0"/>
        <pt x="368" y="106" on="0"/>
        <pt x="414" y="201" on="0"/>
        <pt x="437" y="271" on="1"/>
        <pt x="423" y="272" on="0"/>
        <pt x="395" y="272" on="0"/>
        <pt x="381" y="272" on="1"/>
        <pt x="306" y="272" on="0"/>
        <pt x="199" y="247" on="0"/>
        <pt x="132" y="204" on="0"/>
        <pt x="100" y="146" on="0"/>
        <pt x="100" y="112" on="1"/>
        <pt x="100" y="69" on="0"/>
        <pt x="153" y="24" on="0"/>
      </contour>
    </TTGlyph>
    <TTGlyph name="I" xMin="50" yMin="0" xMax="781" yMax="645">
      <contour>
        <pt x="777" y="645" on="1"/>
        <pt x="781" y="643" on="0"/>
        <pt x="778" y="632" on="0"/>
        <pt x="768" y="619" on="0"/>
        <pt x="755" y="607" on="0"/>
        <pt x="749" y="604" on="1"/>
        <pt x="727" y="598" on="0"/>
        <pt x="695" y="575" on="0"/>
        <pt x="668" y="533" on="0"/>
        <pt x="644" y="466" on="0"/>
        <pt x="631" y="414" on="1"/>
        <pt x="596" y="279" on="0"/>
        <pt x="530" y="185" on="1"/>
        <pt x="543" y="187" on="0"/>
        <pt x="566" y="195" on="0"/>
        <pt x="571" y="198" on="1"/>
        <pt x="574" y="199" on="0"/>
        <pt x="576" y="194" on="0"/>
        <pt x="574" y="191" on="1"/>
        <pt x="566" y="186" on="0"/>
        <pt x="538" y="176" on="0"/>
        <pt x="523" y="174" on="1"/>
        <pt x="460" y="89" on="0"/>
        <pt x="296" y="0" on="0"/>
        <pt x="201" y="0" on="1"/>
        <pt x="128" y="0" on="0"/>
        <pt x="50" y="52" on="0"/>
        <pt x="50" y="93" on="1"/>
        <pt x="50" y="128" on="0"/>
        <pt x="106" y="191" on="0"/>
        <pt x="166" y="206" on="1"/>
        <pt x="171" y="205" on="0"/>
        <pt x="172" y="199" on="0"/>
        <pt x="170" y="197" on="1"/>
        <pt x="109" y="177" on="0"/>
        <pt x="109" y="121" on="1"/>
        <pt x="109" y="79" on="0"/>
        <pt x="175" y="29" on="0"/>
        <pt x="234" y="29" on="1"/>
        <pt x="312" y="29" on="0"/>
        <pt x="436" y="94" on="0"/>
        <pt x="483" y="171" on="1"/>
        <pt x="432" y="174" on="0"/>
        <pt x="378" y="246" on="0"/>
        <pt x="378" y="303" on="1"/>
        <pt x="378" y="365" on="0"/>
        <pt x="444" y="487" on="0"/>
        <pt x="554" y="585" on="0"/>
        <pt x="699" y="645" on="0"/>
      </contour>
      <contour>
        <pt x="569" y="392" on="1"/>
        <pt x="580" y="437" on="0"/>
        <pt x="606" y="501" on="0"/>
        <pt x="638" y="548" on="0"/>
        <pt x="679" y="582" on="0"/>
        <pt x="706" y="597" on="1"/>
        <pt x="637" y="589" on="0"/>
        <pt x="521" y="531" on="0"/>
        <pt x="437" y="450" on="0"/>
        <pt x="391" y="354" on="0"/>
        <pt x="391" y="307" on="1"/>
        <pt x="391" y="247" on="0"/>
        <pt x="443" y="184" on="0"/>
        <pt x="488" y="181" on="1"/>
        <pt x="535" y="261" on="0"/>
      </contour>
    </TTGlyph>
    <TTGlyph name="Iacute" xMin="50" yMin="0" xMax="781" yMax="737">
      <contour>
        <pt x="631" y="734" on="1"/>
        <pt x="636" y="737" on="0"/>
        <pt x="663" y="728" on="0"/>
        <pt x="672" y="724" on="1"/>
        <pt x="674" y="722" on="0"/>
        <pt x="676" y="717" on="0"/>
        <pt x="673" y="715" on="1"/>
        <pt x="663" y="708" on="0"/>
        <pt x="632" y="692" on="0"/>
        <pt x="597" y="677" on="0"/>
        <pt x="560" y="663" on="0"/>
        <pt x="545" y="658" on="1"/>
        <pt x="541" y="658" on="0"/>
        <pt x="541" y="666" on="0"/>
        <pt x="544" y="669" on="1"/>
        <pt x="564" y="681" on="0"/>
        <pt x="612" y="714" on="0"/>
      </contour>
      <contour>
        <pt x="777" y="645" on="1"/>
        <pt x="781" y="643" on="0"/>
        <pt x="778" y="632" on="0"/>
        <pt x="768" y="619" on="0"/>
        <pt x="755" y="607" on="0"/>
        <pt x="749" y="604" on="1"/>
        <pt x="727" y="598" on="0"/>
        <pt x="695" y="575" on="0"/>
        <pt x="668" y="533" on="0"/>
        <pt x="644" y="466" on="0"/>
        <pt x="631" y="414" on="1"/>
        <pt x="596" y="279" on="0"/>
        <pt x="530" y="185" on="1"/>
        <pt x="543" y="187" on="0"/>
        <pt x="566" y="195" on="0"/>
        <pt x="571" y="198" on="1"/>
        <pt x="574" y="199" on="0"/>
        <pt x="576" y="194" on="0"/>
        <pt x="574" y="191" on="1"/>
        <pt x="566" y="186" on="0"/>
        <pt x="538" y="176" on="0"/>
        <pt x="523" y="174" on="1"/>
        <pt x="460" y="89" on="0"/>
        <pt x="296" y="0" on="0"/>
        <pt x="201" y="0" on="1"/>
        <pt x="128" y="0" on="0"/>
        <pt x="50" y="52" on="0"/>
        <pt x="50" y="93" on="1"/>
        <pt x="50" y="128" on="0"/>
        <pt x="106" y="191" on="0"/>
        <pt x="166" y="206" on="1"/>
        <pt x="171" y="205" on="0"/>
        <pt x="172" y="199" on="0"/>
        <pt x="170" y="197" on="1"/>
        <pt x="109" y="177" on="0"/>
        <pt x="109" y="121" on="1"/>
        <pt x="109" y="79" on="0"/>
        <pt x="175" y="29" on="0"/>
        <pt x="234" y="29" on="1"/>
        <pt x="312" y="29" on="0"/>
        <pt x="436" y="94" on="0"/>
        <pt x="483" y="171" on="1"/>
        <pt x="432" y="174" on="0"/>
        <pt x="378" y="246" on="0"/>
        <pt x="378" y="303" on="1"/>
        <pt x="378" y="365" on="0"/>
        <pt x="444" y="487" on="0"/>
        <pt x="554" y="585" on="0"/>
        <pt x="699" y="645" on="0"/>
      </contour>
      <contour>
        <pt x="569" y="392" on="1"/>
        <pt x="580" y="437" on="0"/>
        <pt x="606" y="501" on="0"/>
        <pt x="638" y="548" on="0"/>
        <pt x="679" y="582" on="0"/>
        <pt x="706" y="597" on="1"/>
        <pt x="637" y="589" on="0"/>
        <pt x="521" y="531" on="0"/>
        <pt x="437" y="450" on="0"/>
        <pt x="391" y="354" on="0"/>
        <pt x="391" y="307" on="1"/>
        <pt x="391" y="247" on="0"/>
        <pt x="443" y="184" on="0"/>
        <pt x="488" y="181" on="1"/>
        <pt x="535" y="261" on="0"/>
      </contour>
    </TTGlyph>
    <TTGlyph name="Icircumflex" xMin="50" yMin="0" xMax="781" yMax="751">
      <contour>
        <pt x="589" y="746" on="1"/>
        <pt x="594" y="751" on="0"/>
        <pt x="601" y="745" on="1"/>
        <pt x="614" y="728" on="0"/>
        <pt x="655" y="693" on="0"/>
        <pt x="675" y="684" on="1"/>
        <pt x="680" y="679" on="0"/>
        <pt x="661" y="669" on="0"/>
        <pt x="649" y="671" on="1"/>
        <pt x="630" y="679" on="0"/>
        <pt x="599" y="702" on="0"/>
        <pt x="583" y="715" on="1"/>
        <pt x="577" y="710" on="0"/>
        <pt x="557" y="698" on="0"/>
        <pt x="536" y="685" on="0"/>
        <pt x="515" y="673" on="0"/>
        <pt x="508" y="670" on="1"/>
        <pt x="498" y="670" on="0"/>
        <pt x="503" y="679" on="1"/>
        <pt x="520" y="689" on="0"/>
        <pt x="573" y="727" on="0"/>
      </contour>
      <contour>
        <pt x="777" y="645" on="1"/>
        <pt x="781" y="643" on="0"/>
        <pt x="778" y="632" on="0"/>
        <pt x="768" y="619" on="0"/>
        <pt x="755" y="607" on="0"/>
        <pt x="749" y="604" on="1"/>
        <pt x="727" y="598" on="0"/>
        <pt x="695" y="575" on="0"/>
        <pt x="668" y="533" on="0"/>
        <pt x="644" y="466" on="0"/>
        <pt x="631" y="414" on="1"/>
        <pt x="596" y="279" on="0"/>
        <pt x="530" y="185" on="1"/>
        <pt x="543" y="187" on="0"/>
        <pt x="566" y="195" on="0"/>
        <pt x="571" y="198" on="1"/>
        <pt x="574" y="199" on="0"/>
        <pt x="576" y="194" on="0"/>
        <pt x="574" y="191" on="1"/>
        <pt x="566" y="186" on="0"/>
        <pt x="538" y="176" on="0"/>
        <pt x="523" y="174" on="1"/>
        <pt x="460" y="89" on="0"/>
        <pt x="296" y="0" on="0"/>
        <pt x="201" y="0" on="1"/>
        <pt x="128" y="0" on="0"/>
        <pt x="50" y="52" on="0"/>
        <pt x="50" y="93" on="1"/>
        <pt x="50" y="128" on="0"/>
        <pt x="106" y="191" on="0"/>
        <pt x="166" y="206" on="1"/>
        <pt x="171" y="205" on="0"/>
        <pt x="172" y="199" on="0"/>
        <pt x="170" y="197" on="1"/>
        <pt x="109" y="177" on="0"/>
        <pt x="109" y="121" on="1"/>
        <pt x="109" y="79" on="0"/>
        <pt x="175" y="29" on="0"/>
        <pt x="234" y="29" on="1"/>
        <pt x="312" y="29" on="0"/>
        <pt x="436" y="94" on="0"/>
        <pt x="483" y="171" on="1"/>
        <pt x="432" y="174" on="0"/>
        <pt x="378" y="246" on="0"/>
        <pt x="378" y="303" on="1"/>
        <pt x="378" y="365" on="0"/>
        <pt x="444" y="487" on="0"/>
        <pt x="554" y="585" on="0"/>
        <pt x="699" y="645" on="0"/>
      </contour>
      <contour>
        <pt x="569" y="392" on="1"/>
        <pt x="580" y="437" on="0"/>
        <pt x="606" y="501" on="0"/>
        <pt x="638" y="548" on="0"/>
        <pt x="679" y="582" on="0"/>
        <pt x="706" y="597" on="1"/>
        <pt x="637" y="589" on="0"/>
        <pt x="521" y="531" on="0"/>
        <pt x="437" y="450" on="0"/>
        <pt x="391" y="354" on="0"/>
        <pt x="391" y="307" on="1"/>
        <pt x="391" y="247" on="0"/>
        <pt x="443" y="184" on="0"/>
        <pt x="488" y="181" on="1"/>
        <pt x="535" y="261" on="0"/>
      </contour>
    </TTGlyph>
    <TTGlyph name="Idieresis" xMin="50" yMin="0" xMax="781" yMax="721">
      <contour>
        <pt x="545" y="667" on="1"/>
        <pt x="534" y="667" on="0"/>
        <pt x="534" y="684" on="1"/>
        <pt x="534" y="694" on="0"/>
        <pt x="554" y="721" on="0"/>
        <pt x="570" y="721" on="1"/>
        <pt x="579" y="721" on="0"/>
        <pt x="579" y="708" on="1"/>
        <pt x="579" y="694" on="0"/>
        <pt x="559" y="667" on="0"/>
      </contour>
      <contour>
        <pt x="622" y="667" on="1"/>
        <pt x="610" y="667" on="0"/>
        <pt x="610" y="684" on="1"/>
        <pt x="610" y="694" on="0"/>
        <pt x="630" y="721" on="0"/>
        <pt x="645" y="721" on="1"/>
        <pt x="654" y="721" on="0"/>
        <pt x="654" y="708" on="1"/>
        <pt x="654" y="694" on="0"/>
        <pt x="634" y="667" on="0"/>
      </contour>
      <contour>
        <pt x="777" y="645" on="1"/>
        <pt x="781" y="643" on="0"/>
        <pt x="778" y="632" on="0"/>
        <pt x="768" y="619" on="0"/>
        <pt x="755" y="607" on="0"/>
        <pt x="749" y="604" on="1"/>
        <pt x="727" y="598" on="0"/>
        <pt x="695" y="575" on="0"/>
        <pt x="668" y="533" on="0"/>
        <pt x="644" y="466" on="0"/>
        <pt x="631" y="414" on="1"/>
        <pt x="596" y="279" on="0"/>
        <pt x="530" y="185" on="1"/>
        <pt x="543" y="187" on="0"/>
        <pt x="566" y="195" on="0"/>
        <pt x="571" y="198" on="1"/>
        <pt x="574" y="199" on="0"/>
        <pt x="576" y="194" on="0"/>
        <pt x="574" y="191" on="1"/>
        <pt x="566" y="186" on="0"/>
        <pt x="538" y="176" on="0"/>
        <pt x="523" y="174" on="1"/>
        <pt x="460" y="89" on="0"/>
        <pt x="296" y="0" on="0"/>
        <pt x="201" y="0" on="1"/>
        <pt x="128" y="0" on="0"/>
        <pt x="50" y="52" on="0"/>
        <pt x="50" y="93" on="1"/>
        <pt x="50" y="128" on="0"/>
        <pt x="106" y="191" on="0"/>
        <pt x="166" y="206" on="1"/>
        <pt x="171" y="205" on="0"/>
        <pt x="172" y="199" on="0"/>
        <pt x="170" y="197" on="1"/>
        <pt x="109" y="177" on="0"/>
        <pt x="109" y="121" on="1"/>
        <pt x="109" y="79" on="0"/>
        <pt x="175" y="29" on="0"/>
        <pt x="234" y="29" on="1"/>
        <pt x="312" y="29" on="0"/>
        <pt x="436" y="94" on="0"/>
        <pt x="483" y="171" on="1"/>
        <pt x="432" y="174" on="0"/>
        <pt x="378" y="246" on="0"/>
        <pt x="378" y="303" on="1"/>
        <pt x="378" y="365" on="0"/>
        <pt x="444" y="487" on="0"/>
        <pt x="554" y="585" on="0"/>
        <pt x="699" y="645" on="0"/>
      </contour>
      <contour>
        <pt x="569" y="392" on="1"/>
        <pt x="580" y="437" on="0"/>
        <pt x="606" y="501" on="0"/>
        <pt x="638" y="548" on="0"/>
        <pt x="679" y="582" on="0"/>
        <pt x="706" y="597" on="1"/>
        <pt x="637" y="589" on="0"/>
        <pt x="521" y="531" on="0"/>
        <pt x="437" y="450" on="0"/>
        <pt x="391" y="354" on="0"/>
        <pt x="391" y="307" on="1"/>
        <pt x="391" y="247" on="0"/>
        <pt x="443" y="184" on="0"/>
        <pt x="488" y="181" on="1"/>
        <pt x="535" y="261" on="0"/>
      </contour>
    </TTGlyph>
    <TTGlyph name="Igrave" xMin="50" yMin="0" xMax="781" yMax="733">
      <contour>
        <pt x="615" y="669" on="1"/>
        <pt x="617" y="667" on="0"/>
        <pt x="612" y="660" on="0"/>
        <pt x="607" y="660" on="1"/>
        <pt x="595" y="663" on="0"/>
        <pt x="561" y="675" on="0"/>
        <pt x="527" y="689" on="0"/>
        <pt x="495" y="703" on="0"/>
        <pt x="484" y="709" on="1"/>
        <pt x="482" y="710" on="0"/>
        <pt x="482" y="715" on="0"/>
        <pt x="484" y="717" on="1"/>
        <pt x="494" y="725" on="0"/>
        <pt x="522" y="733" on="0"/>
        <pt x="524" y="731" on="1"/>
        <pt x="541" y="717" on="0"/>
        <pt x="588" y="684" on="0"/>
      </contour>
      <contour>
        <pt x="777" y="645" on="1"/>
        <pt x="781" y="643" on="0"/>
        <pt x="778" y="632" on="0"/>
        <pt x="768" y="619" on="0"/>
        <pt x="755" y="607" on="0"/>
        <pt x="749" y="604" on="1"/>
        <pt x="727" y="598" on="0"/>
        <pt x="695" y="575" on="0"/>
        <pt x="668" y="533" on="0"/>
        <pt x="644" y="466" on="0"/>
        <pt x="631" y="414" on="1"/>
        <pt x="596" y="279" on="0"/>
        <pt x="530" y="185" on="1"/>
        <pt x="543" y="187" on="0"/>
        <pt x="566" y="195" on="0"/>
        <pt x="571" y="198" on="1"/>
        <pt x="574" y="199" on="0"/>
        <pt x="576" y="194" on="0"/>
        <pt x="574" y="191" on="1"/>
        <pt x="566" y="186" on="0"/>
        <pt x="538" y="176" on="0"/>
        <pt x="523" y="174" on="1"/>
        <pt x="460" y="89" on="0"/>
        <pt x="296" y="0" on="0"/>
        <pt x="201" y="0" on="1"/>
        <pt x="128" y="0" on="0"/>
        <pt x="50" y="52" on="0"/>
        <pt x="50" y="93" on="1"/>
        <pt x="50" y="128" on="0"/>
        <pt x="106" y="191" on="0"/>
        <pt x="166" y="206" on="1"/>
        <pt x="171" y="205" on="0"/>
        <pt x="172" y="199" on="0"/>
        <pt x="170" y="197" on="1"/>
        <pt x="109" y="177" on="0"/>
        <pt x="109" y="121" on="1"/>
        <pt x="109" y="79" on="0"/>
        <pt x="175" y="29" on="0"/>
        <pt x="234" y="29" on="1"/>
        <pt x="312" y="29" on="0"/>
        <pt x="436" y="94" on="0"/>
        <pt x="483" y="171" on="1"/>
        <pt x="432" y="174" on="0"/>
        <pt x="378" y="246" on="0"/>
        <pt x="378" y="303" on="1"/>
        <pt x="378" y="365" on="0"/>
        <pt x="444" y="487" on="0"/>
        <pt x="554" y="585" on="0"/>
        <pt x="699" y="645" on="0"/>
      </contour>
      <contour>
        <pt x="569" y="392" on="1"/>
        <pt x="580" y="437" on="0"/>
        <pt x="606" y="501" on="0"/>
        <pt x="638" y="548" on="0"/>
        <pt x="679" y="582" on="0"/>
        <pt x="706" y="597" on="1"/>
        <pt x="637" y="589" on="0"/>
        <pt x="521" y="531" on="0"/>
        <pt x="437" y="450" on="0"/>
        <pt x="391" y="354" on="0"/>
        <pt x="391" y="307" on="1"/>
        <pt x="391" y="247" on="0"/>
        <pt x="443" y="184" on="0"/>
        <pt x="488" y="181" on="1"/>
        <pt x="535" y="261" on="0"/>
      </contour>
    </TTGlyph>
    <TTGlyph name="J" xMin="0" yMin="-185" xMax="866" yMax="644">
      <contour>
        <pt x="861" y="644" on="1"/>
        <pt x="866" y="641" on="0"/>
        <pt x="861" y="629" on="0"/>
        <pt x="850" y="616" on="0"/>
        <pt x="836" y="605" on="0"/>
        <pt x="833" y="603" on="1"/>
        <pt x="812" y="597" on="0"/>
        <pt x="780" y="575" on="0"/>
        <pt x="753" y="533" on="0"/>
        <pt x="728" y="465" on="0"/>
        <pt x="715" y="413" on="1"/>
        <pt x="682" y="285" on="0"/>
        <pt x="634" y="185" on="1"/>
        <pt x="645" y="188" on="0"/>
        <pt x="662" y="194" on="0"/>
        <pt x="666" y="197" on="1"/>
        <pt x="670" y="197" on="0"/>
        <pt x="672" y="192" on="0"/>
        <pt x="670" y="190" on="1"/>
        <pt x="663" y="185" on="0"/>
        <pt x="642" y="177" on="0"/>
        <pt x="629" y="174" on="1"/>
        <pt x="584" y="82" on="0"/>
        <pt x="475" y="-53" on="0"/>
        <pt x="353" y="-142" on="0"/>
        <pt x="221" y="-185" on="0"/>
        <pt x="155" y="-185" on="1"/>
        <pt x="79" y="-185" on="0"/>
        <pt x="0" y="-124" on="0"/>
        <pt x="0" y="-61" on="1"/>
        <pt x="0" y="-27" on="0"/>
        <pt x="36" y="49" on="0"/>
        <pt x="110" y="117" on="0"/>
        <pt x="221" y="172" on="0"/>
        <pt x="296" y="185" on="1"/>
        <pt x="301" y="185" on="0"/>
        <pt x="301" y="177" on="0"/>
        <pt x="296" y="175" on="1"/>
        <pt x="175" y="152" on="0"/>
        <pt x="55" y="38" on="0"/>
        <pt x="55" y="-34" on="1"/>
        <pt x="55" y="-95" on="0"/>
        <pt x="123" y="-157" on="0"/>
        <pt x="189" y="-157" on="1"/>
        <pt x="248" y="-157" on="0"/>
        <pt x="357" y="-121" on="0"/>
        <pt x="455" y="-43" on="0"/>
        <pt x="542" y="81" on="0"/>
        <pt x="580" y="169" on="1"/>
        <pt x="528" y="171" on="0"/>
        <pt x="462" y="242" on="0"/>
        <pt x="462" y="302" on="1"/>
        <pt x="462" y="364" on="0"/>
        <pt x="528" y="486" on="0"/>
        <pt x="638" y="584" on="0"/>
        <pt x="783" y="644" on="0"/>
      </contour>
      <contour>
        <pt x="653" y="391" on="1"/>
        <pt x="675" y="477" on="0"/>
        <pt x="749" y="573" on="0"/>
        <pt x="790" y="596" on="1"/>
        <pt x="721" y="588" on="0"/>
        <pt x="605" y="530" on="0"/>
        <pt x="521" y="449" on="0"/>
        <pt x="475" y="353" on="0"/>
        <pt x="475" y="306" on="1"/>
        <pt x="475" y="248" on="0"/>
        <pt x="533" y="182" on="0"/>
        <pt x="584" y="179" on="1"/>
        <pt x="621" y="270" on="0"/>
      </contour>
    </TTGlyph>
    <TTGlyph name="K" xMin="50" yMin="0" xMax="1017" yMax="645">
      <contour>
        <pt x="571" y="347" on="1"/>
        <pt x="556" y="263" on="0"/>
        <pt x="489" y="133" on="0"/>
        <pt x="394" y="45" on="0"/>
        <pt x="275" y="0" on="0"/>
        <pt x="208" y="0" on="1"/>
        <pt x="132" y="0" on="0"/>
        <pt x="50" y="64" on="0"/>
        <pt x="50" y="115" on="1"/>
        <pt x="50" y="156" on="0"/>
        <pt x="105" y="226" on="0"/>
        <pt x="153" y="242" on="1"/>
        <pt x="158" y="243" on="0"/>
        <pt x="162" y="237" on="0"/>
        <pt x="160" y="232" on="1"/>
        <pt x="134" y="218" on="0"/>
        <pt x="105" y="168" on="0"/>
        <pt x="105" y="136" on="1"/>
        <pt x="105" y="88" on="0"/>
        <pt x="172" y="28" on="0"/>
        <pt x="234" y="28" on="1"/>
        <pt x="294" y="28" on="0"/>
        <pt x="384" y="59" on="0"/>
        <pt x="448" y="126" on="0"/>
        <pt x="491" y="235" on="0"/>
        <pt x="505" y="313" on="1"/>
        <pt x="517" y="382" on="0"/>
        <pt x="547" y="475" on="0"/>
        <pt x="581" y="537" on="0"/>
        <pt x="620" y="573" on="0"/>
        <pt x="642" y="584" on="1"/>
        <pt x="616" y="594" on="0"/>
        <pt x="546" y="607" on="0"/>
        <pt x="504" y="607" on="1"/>
        <pt x="442" y="607" on="0"/>
        <pt x="350" y="566" on="0"/>
        <pt x="295" y="493" on="0"/>
        <pt x="277" y="394" on="0"/>
        <pt x="289" y="336" on="1"/>
        <pt x="288" y="331" on="0"/>
        <pt x="280" y="328" on="0"/>
        <pt x="278" y="332" on="1"/>
        <pt x="264" y="394" on="0"/>
        <pt x="288" y="508" on="0"/>
        <pt x="357" y="594" on="0"/>
        <pt x="471" y="645" on="0"/>
        <pt x="548" y="645" on="1"/>
        <pt x="589" y="645" on="0"/>
        <pt x="667" y="626" on="0"/>
        <pt x="698" y="613" on="1"/>
        <pt x="702" y="607" on="0"/>
        <pt x="694" y="597" on="0"/>
        <pt x="678" y="591" on="1"/>
        <pt x="657" y="582" on="0"/>
        <pt x="626" y="550" on="0"/>
        <pt x="602" y="494" on="0"/>
        <pt x="582" y="408" on="0"/>
      </contour>
      <contour>
        <pt x="651" y="386" on="1"/>
        <pt x="673" y="308" on="0"/>
        <pt x="716" y="182" on="0"/>
        <pt x="769" y="93" on="0"/>
        <pt x="833" y="46" on="0"/>
        <pt x="876" y="46" on="1"/>
        <pt x="899" y="46" on="0"/>
        <pt x="935" y="69" on="0"/>
        <pt x="946" y="87" on="1"/>
        <pt x="949" y="90" on="0"/>
        <pt x="956" y="83" on="0"/>
        <pt x="954" y="78" on="1"/>
        <pt x="936" y="44" on="0"/>
        <pt x="873" y="0" on="0"/>
        <pt x="834" y="0" on="1"/>
        <pt x="788" y="0" on="0"/>
        <pt x="718" y="55" on="0"/>
        <pt x="663" y="149" on="0"/>
        <pt x="622" y="273" on="0"/>
        <pt x="605" y="342" on="1"/>
        <pt x="604" y="347" on="0"/>
        <pt x="605" y="356" on="0"/>
        <pt x="610" y="361" on="1"/>
        <pt x="655" y="419" on="0"/>
        <pt x="752" y="523" on="0"/>
        <pt x="848" y="600" on="0"/>
        <pt x="937" y="645" on="0"/>
        <pt x="975" y="645" on="1"/>
        <pt x="995" y="645" on="0"/>
        <pt x="1017" y="615" on="0"/>
        <pt x="1017" y="594" on="1"/>
        <pt x="1017" y="580" on="0"/>
        <pt x="1010" y="542" on="0"/>
        <pt x="1005" y="528" on="1"/>
        <pt x="997" y="523" on="0"/>
        <pt x="995" y="531" on="1"/>
        <pt x="1000" y="555" on="0"/>
        <pt x="976" y="590" on="0"/>
        <pt x="943" y="590" on="1"/>
        <pt x="879" y="590" on="0"/>
        <pt x="727" y="482" on="0"/>
      </contour>
    </TTGlyph>
    <TTGlyph name="L" xMin="30" yMin="0" xMax="745" yMax="645">
      <contour>
        <pt x="676" y="645" on="1"/>
        <pt x="707" y="645" on="0"/>
        <pt x="745" y="602" on="0"/>
        <pt x="745" y="571" on="1"/>
        <pt x="745" y="551" on="0"/>
        <pt x="727" y="498" on="0"/>
        <pt x="717" y="481" on="1"/>
        <pt x="713" y="478" on="0"/>
        <pt x="704" y="482" on="0"/>
        <pt x="705" y="487" on="1"/>
        <pt x="711" y="505" on="0"/>
        <pt x="709" y="541" on="0"/>
        <pt x="691" y="571" on="0"/>
        <pt x="654" y="590" on="0"/>
        <pt x="626" y="590" on="1"/>
        <pt x="588" y="590" on="0"/>
        <pt x="533" y="563" on="0"/>
        <pt x="487" y="496" on="0"/>
        <pt x="447" y="384" on="0"/>
        <pt x="426" y="300" on="1"/>
        <pt x="391" y="166" on="0"/>
        <pt x="329" y="93" on="1"/>
        <pt x="374" y="76" on="0"/>
        <pt x="473" y="49" on="0"/>
        <pt x="533" y="49" on="1"/>
        <pt x="583" y="49" on="0"/>
        <pt x="635" y="85" on="0"/>
        <pt x="652" y="119" on="1"/>
        <pt x="656" y="122" on="0"/>
        <pt x="663" y="117" on="0"/>
        <pt x="662" y="111" on="1"/>
        <pt x="638" y="57" on="0"/>
        <pt x="558" y="0" on="0"/>
        <pt x="491" y="0" on="1"/>
        <pt x="432" y="0" on="0"/>
        <pt x="335" y="35" on="0"/>
        <pt x="289" y="55" on="1"/>
        <pt x="216" y="0" on="0"/>
        <pt x="110" y="0" on="1"/>
        <pt x="70" y="0" on="0"/>
        <pt x="30" y="28" on="0"/>
        <pt x="30" y="49" on="1"/>
        <pt x="30" y="62" on="0"/>
        <pt x="49" y="92" on="0"/>
        <pt x="83" y="118" on="0"/>
        <pt x="130" y="136" on="0"/>
        <pt x="159" y="136" on="1"/>
        <pt x="196" y="136" on="0"/>
        <pt x="267" y="117" on="0"/>
        <pt x="304" y="103" on="1"/>
        <pt x="321" y="131" on="0"/>
        <pt x="353" y="215" on="0"/>
        <pt x="369" y="276" on="1"/>
        <pt x="392" y="362" on="0"/>
        <pt x="456" y="499" on="0"/>
        <pt x="535" y="594" on="0"/>
        <pt x="626" y="645" on="0"/>
      </contour>
      <contour>
        <pt x="155" y="26" on="1"/>
        <pt x="191" y="26" on="0"/>
        <pt x="248" y="41" on="0"/>
        <pt x="271" y="63" on="1"/>
        <pt x="234" y="79" on="0"/>
        <pt x="158" y="103" on="0"/>
        <pt x="115" y="103" on="1"/>
        <pt x="69" y="103" on="0"/>
        <pt x="69" y="72" on="1"/>
        <pt x="69" y="52" on="0"/>
        <pt x="114" y="26" on="0"/>
      </contour>
    </TTGlyph>
    <TTGlyph name="Lslash" xMin="30" yMin="0" xMax="745" yMax="644">
      <contour>
        <pt x="676" y="644" on="1"/>
        <pt x="707" y="644" on="0"/>
        <pt x="745" y="602" on="0"/>
        <pt x="745" y="571" on="1"/>
        <pt x="745" y="551" on="0"/>
        <pt x="727" y="497" on="0"/>
        <pt x="717" y="481" on="1"/>
        <pt x="713" y="478" on="0"/>
        <pt x="704" y="482" on="0"/>
        <pt x="705" y="487" on="1"/>
        <pt x="712" y="505" on="0"/>
        <pt x="710" y="541" on="0"/>
        <pt x="691" y="570" on="0"/>
        <pt x="654" y="589" on="0"/>
        <pt x="626" y="589" on="1"/>
        <pt x="592" y="589" on="0"/>
        <pt x="540" y="567" on="0"/>
        <pt x="497" y="513" on="0"/>
        <pt x="460" y="424" on="0"/>
        <pt x="441" y="357" on="1"/>
        <pt x="472" y="364" on="0"/>
        <pt x="535" y="375" on="0"/>
        <pt x="567" y="380" on="1"/>
        <pt x="578" y="382" on="0"/>
        <pt x="574" y="370" on="0"/>
        <pt x="563" y="367" on="1"/>
        <pt x="533" y="362" on="0"/>
        <pt x="469" y="349" on="0"/>
        <pt x="437" y="341" on="1"/>
        <pt x="434" y="331" on="0"/>
        <pt x="428" y="310" on="0"/>
        <pt x="426" y="299" on="1"/>
        <pt x="392" y="166" on="0"/>
        <pt x="329" y="93" on="1"/>
        <pt x="374" y="76" on="0"/>
        <pt x="473" y="48" on="0"/>
        <pt x="533" y="48" on="1"/>
        <pt x="584" y="48" on="0"/>
        <pt x="635" y="84" on="0"/>
        <pt x="652" y="119" on="1"/>
        <pt x="656" y="121" on="0"/>
        <pt x="663" y="116" on="0"/>
        <pt x="662" y="110" on="1"/>
        <pt x="638" y="56" on="0"/>
        <pt x="558" y="0" on="0"/>
        <pt x="491" y="0" on="1"/>
        <pt x="432" y="0" on="0"/>
        <pt x="335" y="35" on="0"/>
        <pt x="289" y="55" on="1"/>
        <pt x="216" y="0" on="0"/>
        <pt x="110" y="0" on="1"/>
        <pt x="70" y="0" on="0"/>
        <pt x="30" y="28" on="0"/>
        <pt x="30" y="49" on="1"/>
        <pt x="30" y="62" on="0"/>
        <pt x="49" y="92" on="0"/>
        <pt x="83" y="118" on="0"/>
        <pt x="130" y="136" on="0"/>
        <pt x="159" y="136" on="1"/>
        <pt x="196" y="136" on="0"/>
        <pt x="267" y="116" on="0"/>
        <pt x="304" y="102" on="1"/>
        <pt x="321" y="131" on="0"/>
        <pt x="353" y="215" on="0"/>
        <pt x="369" y="275" on="1"/>
        <pt x="373" y="289" on="0"/>
        <pt x="380" y="314" on="0"/>
        <pt x="384" y="327" on="1"/>
        <pt x="357" y="319" on="0"/>
        <pt x="305" y="302" on="0"/>
        <pt x="281" y="291" on="1"/>
        <pt x="273" y="291" on="0"/>
        <pt x="288" y="313" on="0"/>
        <pt x="308" y="321" on="1"/>
        <pt x="327" y="327" on="0"/>
        <pt x="367" y="339" on="0"/>
        <pt x="390" y="345" on="1"/>
        <pt x="438" y="488" on="0"/>
        <pt x="586" y="644" on="0"/>
      </contour>
      <contour>
        <pt x="155" y="26" on="1"/>
        <pt x="191" y="26" on="0"/>
        <pt x="248" y="40" on="0"/>
        <pt x="272" y="62" on="1"/>
        <pt x="234" y="79" on="0"/>
        <pt x="158" y="102" on="0"/>
        <pt x="115" y="102" on="1"/>
        <pt x="69" y="102" on="0"/>
        <pt x="69" y="72" on="1"/>
        <pt x="69" y="51" on="0"/>
        <pt x="115" y="26" on="0"/>
      </contour>
    </TTGlyph>
    <TTGlyph name="M" xMin="50" yMin="0" xMax="1353" yMax="657">
      <contour>
        <pt x="1344" y="657" on="1"/>
        <pt x="1349" y="657" on="0"/>
        <pt x="1353" y="646" on="0"/>
        <pt x="1350" y="642" on="1"/>
        <pt x="1299" y="592" on="0"/>
        <pt x="1220" y="469" on="0"/>
        <pt x="1166" y="339" on="0"/>
        <pt x="1139" y="212" on="0"/>
        <pt x="1139" y="159" on="1"/>
        <pt x="1139" y="105" on="0"/>
        <pt x="1165" y="44" on="0"/>
        <pt x="1188" y="44" on="1"/>
        <pt x="1208" y="44" on="0"/>
        <pt x="1245" y="74" on="0"/>
        <pt x="1263" y="101" on="1"/>
        <pt x="1266" y="103" on="0"/>
        <pt x="1273" y="99" on="0"/>
        <pt x="1272" y="94" on="1"/>
        <pt x="1261" y="77" on="0"/>
        <pt x="1233" y="44" on="0"/>
        <pt x="1200" y="17" on="0"/>
        <pt x="1166" y="0" on="0"/>
        <pt x="1150" y="0" on="1"/>
        <pt x="1113" y="0" on="0"/>
        <pt x="1077" y="68" on="0"/>
        <pt x="1077" y="125" on="1"/>
        <pt x="1077" y="172" on="0"/>
        <pt x="1099" y="287" on="0"/>
        <pt x="1142" y="407" on="0"/>
        <pt x="1203" y="522" on="0"/>
        <pt x="1242" y="568" on="1"/>
        <pt x="1182" y="523" on="0"/>
        <pt x="1054" y="397" on="0"/>
        <pt x="935" y="254" on="0"/>
        <pt x="832" y="102" on="0"/>
        <pt x="798" y="30" on="1"/>
        <pt x="796" y="26" on="0"/>
        <pt x="784" y="15" on="0"/>
        <pt x="768" y="6" on="0"/>
        <pt x="752" y="0" on="0"/>
        <pt x="746" y="0" on="1"/>
        <pt x="738" y="0" on="0"/>
        <pt x="740" y="7" on="1"/>
        <pt x="759" y="162" on="0"/>
        <pt x="830" y="404" on="0"/>
        <pt x="878" y="506" on="1"/>
        <pt x="798" y="386" on="0"/>
        <pt x="645" y="197" on="0"/>
        <pt x="490" y="68" on="0"/>
        <pt x="330" y="0" on="0"/>
        <pt x="245" y="0" on="1"/>
        <pt x="151" y="0" on="0"/>
        <pt x="50" y="94" on="0"/>
        <pt x="50" y="171" on="1"/>
        <pt x="50" y="222" on="0"/>
        <pt x="108" y="303" on="0"/>
        <pt x="159" y="322" on="1"/>
        <pt x="163" y="324" on="0"/>
        <pt x="166" y="316" on="0"/>
        <pt x="164" y="313" on="1"/>
        <pt x="133" y="293" on="0"/>
        <pt x="108" y="241" on="0"/>
        <pt x="108" y="199" on="1"/>
        <pt x="108" y="166" on="0"/>
        <pt x="130" y="107" on="0"/>
        <pt x="172" y="62" on="0"/>
        <pt x="236" y="36" on="0"/>
        <pt x="278" y="36" on="1"/>
        <pt x="365" y="36" on="0"/>
        <pt x="524" y="116" on="0"/>
        <pt x="675" y="255" on="0"/>
        <pt x="820" y="443" on="0"/>
        <pt x="892" y="551" on="1"/>
        <pt x="822" y="575" on="0"/>
        <pt x="669" y="608" on="0"/>
        <pt x="598" y="608" on="1"/>
        <pt x="517" y="608" on="0"/>
        <pt x="429" y="517" on="0"/>
        <pt x="419" y="440" on="1"/>
        <pt x="417" y="435" on="0"/>
        <pt x="410" y="437" on="0"/>
        <pt x="409" y="442" on="1"/>
        <pt x="420" y="541" on="0"/>
        <pt x="542" y="645" on="0"/>
        <pt x="640" y="645" on="1"/>
        <pt x="680" y="645" on="0"/>
        <pt x="770" y="634" on="0"/>
        <pt x="857" y="616" on="0"/>
        <pt x="936" y="595" on="0"/>
        <pt x="966" y="585" on="1"/>
        <pt x="970" y="586" on="0"/>
        <pt x="976" y="588" on="1"/>
        <pt x="980" y="587" on="0"/>
        <pt x="982" y="579" on="0"/>
        <pt x="980" y="576" on="1"/>
        <pt x="966" y="568" on="0"/>
        <pt x="947" y="541" on="0"/>
        <pt x="936" y="521" on="1"/>
        <pt x="886" y="420" on="0"/>
        <pt x="827" y="201" on="0"/>
        <pt x="808" y="89" on="1"/>
        <pt x="854" y="172" on="0"/>
        <pt x="979" y="339" on="0"/>
        <pt x="1121" y="489" on="0"/>
        <pt x="1272" y="615" on="0"/>
      </contour>
    </TTGlyph>
    <TTGlyph name="N" xMin="43" yMin="0" xMax="1280" yMax="644">
      <contour>
        <pt x="1219" y="644" on="1"/>
        <pt x="1251" y="644" on="0"/>
        <pt x="1280" y="593" on="0"/>
        <pt x="1280" y="542" on="1"/>
        <pt x="1279" y="536" on="0"/>
        <pt x="1269" y="534" on="0"/>
        <pt x="1267" y="540" on="1"/>
        <pt x="1265" y="556" on="0"/>
        <pt x="1239" y="586" on="0"/>
        <pt x="1209" y="586" on="1"/>
        <pt x="1177" y="586" on="0"/>
        <pt x="1111" y="536" on="0"/>
        <pt x="1048" y="452" on="0"/>
        <pt x="993" y="339" on="0"/>
        <pt x="950" y="213" on="0"/>
        <pt x="924" y="80" on="0"/>
        <pt x="922" y="18" on="1"/>
        <pt x="922" y="7" on="0"/>
        <pt x="918" y="0" on="0"/>
        <pt x="913" y="0" on="1"/>
        <pt x="908" y="0" on="0"/>
        <pt x="904" y="9" on="0"/>
        <pt x="902" y="15" on="1"/>
        <pt x="857" y="180" on="0"/>
        <pt x="729" y="434" on="0"/>
        <pt x="648" y="509" on="1"/>
        <pt x="626" y="386" on="0"/>
        <pt x="545" y="196" on="0"/>
        <pt x="436" y="67" on="0"/>
        <pt x="303" y="0" on="0"/>
        <pt x="229" y="0" on="1"/>
        <pt x="182" y="0" on="0"/>
        <pt x="112" y="23" on="0"/>
        <pt x="66" y="63" on="0"/>
        <pt x="43" y="117" on="0"/>
        <pt x="43" y="149" on="1"/>
        <pt x="43" y="189" on="0"/>
        <pt x="82" y="266" on="0"/>
        <pt x="119" y="290" on="1"/>
        <pt x="124" y="292" on="0"/>
        <pt x="128" y="284" on="0"/>
        <pt x="126" y="279" on="1"/>
        <pt x="108" y="261" on="0"/>
        <pt x="87" y="216" on="0"/>
        <pt x="87" y="191" on="1"/>
        <pt x="87" y="128" on="0"/>
        <pt x="171" y="52" on="0"/>
        <pt x="255" y="52" on="1"/>
        <pt x="399" y="52" on="0"/>
        <pt x="593" y="289" on="0"/>
        <pt x="628" y="527" on="1"/>
        <pt x="583" y="563" on="0"/>
        <pt x="489" y="602" on="0"/>
        <pt x="438" y="602" on="1"/>
        <pt x="390" y="602" on="0"/>
        <pt x="327" y="558" on="0"/>
        <pt x="313" y="532" on="1"/>
        <pt x="310" y="529" on="0"/>
        <pt x="303" y="531" on="0"/>
        <pt x="302" y="536" on="1"/>
        <pt x="311" y="555" on="0"/>
        <pt x="345" y="594" on="0"/>
        <pt x="390" y="625" on="0"/>
        <pt x="445" y="644" on="0"/>
        <pt x="475" y="644" on="1"/>
        <pt x="517" y="644" on="0"/>
        <pt x="598" y="615" on="0"/>
        <pt x="636" y="588" on="1"/>
        <pt x="638" y="594" on="0"/>
        <pt x="646" y="609" on="0"/>
        <pt x="655" y="621" on="0"/>
        <pt x="662" y="626" on="0"/>
        <pt x="663" y="622" on="1"/>
        <pt x="662" y="609" on="0"/>
        <pt x="660" y="584" on="0"/>
        <pt x="658" y="572" on="1"/>
        <pt x="702" y="537" on="0"/>
        <pt x="781" y="440" on="0"/>
        <pt x="848" y="326" on="0"/>
        <pt x="902" y="199" on="0"/>
        <pt x="921" y="134" on="1"/>
        <pt x="929" y="189" on="0"/>
        <pt x="961" y="307" on="0"/>
        <pt x="1007" y="420" on="0"/>
        <pt x="1062" y="522" on="0"/>
        <pt x="1123" y="599" on="0"/>
        <pt x="1187" y="644" on="0"/>
      </contour>
    </TTGlyph>
    <TTGlyph name="Ntilde" xMin="43" yMin="0" xMax="1280" yMax="730">
      <contour>
        <pt x="773" y="673" on="1"/>
        <pt x="784" y="689" on="0"/>
        <pt x="821" y="719" on="0"/>
        <pt x="838" y="719" on="1"/>
        <pt x="850" y="719" on="0"/>
        <pt x="869" y="708" on="0"/>
        <pt x="890" y="695" on="0"/>
        <pt x="915" y="684" on="0"/>
        <pt x="931" y="684" on="1"/>
        <pt x="949" y="684" on="0"/>
        <pt x="972" y="707" on="0"/>
        <pt x="982" y="728" on="1"/>
        <pt x="984" y="730" on="0"/>
        <pt x="991" y="727" on="0"/>
        <pt x="990" y="724" on="1"/>
        <pt x="978" y="697" on="0"/>
        <pt x="944" y="665" on="0"/>
        <pt x="914" y="665" on="1"/>
        <pt x="900" y="665" on="0"/>
        <pt x="877" y="675" on="0"/>
        <pt x="856" y="688" on="0"/>
        <pt x="836" y="698" on="0"/>
        <pt x="826" y="698" on="1"/>
        <pt x="813" y="698" on="0"/>
        <pt x="791" y="681" on="0"/>
        <pt x="780" y="667" on="1"/>
        <pt x="776" y="665" on="0"/>
        <pt x="771" y="670" on="0"/>
      </contour>
      <contour>
        <pt x="1219" y="644" on="1"/>
        <pt x="1251" y="644" on="0"/>
        <pt x="1280" y="593" on="0"/>
        <pt x="1280" y="542" on="1"/>
        <pt x="1279" y="536" on="0"/>
        <pt x="1269" y="534" on="0"/>
        <pt x="1267" y="540" on="1"/>
        <pt x="1265" y="556" on="0"/>
        <pt x="1239" y="586" on="0"/>
        <pt x="1209" y="586" on="1"/>
        <pt x="1177" y="586" on="0"/>
        <pt x="1111" y="536" on="0"/>
        <pt x="1048" y="452" on="0"/>
        <pt x="993" y="339" on="0"/>
        <pt x="950" y="213" on="0"/>
        <pt x="924" y="80" on="0"/>
        <pt x="922" y="18" on="1"/>
        <pt x="922" y="7" on="0"/>
        <pt x="918" y="0" on="0"/>
        <pt x="913" y="0" on="1"/>
        <pt x="908" y="0" on="0"/>
        <pt x="904" y="9" on="0"/>
        <pt x="902" y="15" on="1"/>
        <pt x="857" y="180" on="0"/>
        <pt x="729" y="434" on="0"/>
        <pt x="648" y="509" on="1"/>
        <pt x="626" y="386" on="0"/>
        <pt x="545" y="196" on="0"/>
        <pt x="436" y="67" on="0"/>
        <pt x="303" y="0" on="0"/>
        <pt x="229" y="0" on="1"/>
        <pt x="182" y="0" on="0"/>
        <pt x="112" y="23" on="0"/>
        <pt x="66" y="63" on="0"/>
        <pt x="43" y="117" on="0"/>
        <pt x="43" y="149" on="1"/>
        <pt x="43" y="189" on="0"/>
        <pt x="82" y="266" on="0"/>
        <pt x="119" y="290" on="1"/>
        <pt x="124" y="292" on="0"/>
        <pt x="128" y="284" on="0"/>
        <pt x="126" y="279" on="1"/>
        <pt x="108" y="261" on="0"/>
        <pt x="87" y="216" on="0"/>
        <pt x="87" y="191" on="1"/>
        <pt x="87" y="128" on="0"/>
        <pt x="171" y="52" on="0"/>
        <pt x="255" y="52" on="1"/>
        <pt x="399" y="52" on="0"/>
        <pt x="593" y="289" on="0"/>
        <pt x="628" y="527" on="1"/>
        <pt x="583" y="563" on="0"/>
        <pt x="489" y="602" on="0"/>
        <pt x="438" y="602" on="1"/>
        <pt x="390" y="602" on="0"/>
        <pt x="327" y="558" on="0"/>
        <pt x="313" y="532" on="1"/>
        <pt x="310" y="529" on="0"/>
        <pt x="303" y="531" on="0"/>
        <pt x="302" y="536" on="1"/>
        <pt x="311" y="555" on="0"/>
        <pt x="345" y="594" on="0"/>
        <pt x="390" y="625" on="0"/>
        <pt x="445" y="644" on="0"/>
        <pt x="475" y="644" on="1"/>
        <pt x="517" y="644" on="0"/>
        <pt x="598" y="615" on="0"/>
        <pt x="636" y="588" on="1"/>
        <pt x="638" y="594" on="0"/>
        <pt x="646" y="609" on="0"/>
        <pt x="655" y="621" on="0"/>
        <pt x="662" y="626" on="0"/>
        <pt x="663" y="622" on="1"/>
        <pt x="662" y="609" on="0"/>
        <pt x="660" y="584" on="0"/>
        <pt x="658" y="572" on="1"/>
        <pt x="702" y="537" on="0"/>
        <pt x="781" y="440" on="0"/>
        <pt x="848" y="326" on="0"/>
        <pt x="902" y="199" on="0"/>
        <pt x="921" y="134" on="1"/>
        <pt x="929" y="189" on="0"/>
        <pt x="961" y="307" on="0"/>
        <pt x="1007" y="420" on="0"/>
        <pt x="1062" y="522" on="0"/>
        <pt x="1123" y="599" on="0"/>
        <pt x="1187" y="644" on="0"/>
      </contour>
    </TTGlyph>
    <TTGlyph name="O" xMin="70" yMin="0" xMax="691" yMax="644">
      <contour>
        <pt x="466" y="644" on="1"/>
        <pt x="520" y="644" on="0"/>
        <pt x="603" y="609" on="0"/>
        <pt x="661" y="546" on="0"/>
        <pt x="691" y="458" on="0"/>
        <pt x="691" y="406" on="1"/>
        <pt x="691" y="325" on="0"/>
        <pt x="626" y="178" on="0"/>
        <pt x="518" y="66" on="0"/>
        <pt x="379" y="0" on="0"/>
        <pt x="305" y="0" on="1"/>
        <pt x="248" y="0" on="0"/>
        <pt x="161" y="35" on="0"/>
        <pt x="101" y="98" on="0"/>
        <pt x="70" y="182" on="0"/>
        <pt x="70" y="232" on="1"/>
        <pt x="70" y="308" on="0"/>
        <pt x="135" y="456" on="0"/>
        <pt x="244" y="573" on="0"/>
        <pt x="387" y="644" on="0"/>
      </contour>
      <contour>
        <pt x="360" y="36" on="1"/>
        <pt x="412" y="36" on="0"/>
        <pt x="509" y="85" on="0"/>
        <pt x="585" y="174" on="0"/>
        <pt x="631" y="299" on="0"/>
        <pt x="631" y="376" on="1"/>
        <pt x="631" y="424" on="0"/>
        <pt x="606" y="508" on="0"/>
        <pt x="554" y="570" on="0"/>
        <pt x="476" y="606" on="0"/>
        <pt x="422" y="606" on="1"/>
        <pt x="355" y="606" on="0"/>
        <pt x="248" y="553" on="0"/>
        <pt x="173" y="461" on="0"/>
        <pt x="132" y="337" on="0"/>
        <pt x="132" y="265" on="1"/>
        <pt x="132" y="213" on="0"/>
        <pt x="162" y="129" on="0"/>
        <pt x="220" y="69" on="0"/>
        <pt x="305" y="36" on="0"/>
      </contour>
    </TTGlyph>
    <TTGlyph name="OE" xMin="70" yMin="0" xMax="933" yMax="644">
      <contour>
        <pt x="800" y="644" on="1"/>
        <pt x="827" y="644" on="0"/>
        <pt x="876" y="634" on="0"/>
        <pt x="912" y="618" on="0"/>
        <pt x="933" y="597" on="0"/>
        <pt x="933" y="587" on="1"/>
        <pt x="933" y="579" on="0"/>
        <pt x="926" y="555" on="0"/>
        <pt x="915" y="531" on="0"/>
        <pt x="904" y="510" on="0"/>
        <pt x="901" y="506" on="1"/>
        <pt x="899" y="504" on="0"/>
        <pt x="892" y="508" on="0"/>
        <pt x="893" y="512" on="1"/>
        <pt x="899" y="523" on="0"/>
        <pt x="904" y="549" on="0"/>
        <pt x="897" y="563" on="1"/>
        <pt x="885" y="588" on="0"/>
        <pt x="821" y="623" on="0"/>
        <pt x="777" y="623" on="1"/>
        <pt x="717" y="623" on="0"/>
        <pt x="657" y="568" on="0"/>
        <pt x="657" y="523" on="1"/>
        <pt x="657" y="488" on="0"/>
        <pt x="704" y="439" on="0"/>
        <pt x="761" y="422" on="1"/>
        <pt x="764" y="420" on="0"/>
        <pt x="757" y="409" on="0"/>
        <pt x="746" y="396" on="0"/>
        <pt x="732" y="386" on="0"/>
        <pt x="728" y="385" on="1"/>
        <pt x="617" y="390" on="0"/>
        <pt x="496" y="285" on="0"/>
        <pt x="496" y="182" on="1"/>
        <pt x="496" y="147" on="0"/>
        <pt x="516" y="87" on="0"/>
        <pt x="555" y="43" on="0"/>
        <pt x="611" y="18" on="0"/>
        <pt x="646" y="18" on="1"/>
        <pt x="728" y="18" on="0"/>
        <pt x="832" y="94" on="0"/>
        <pt x="855" y="179" on="1"/>
        <pt x="858" y="184" on="0"/>
        <pt x="865" y="180" on="0"/>
        <pt x="866" y="174" on="1"/>
        <pt x="853" y="118" on="0"/>
        <pt x="821" y="44" on="0"/>
        <pt x="807" y="38" on="1"/>
        <pt x="765" y="19" on="0"/>
        <pt x="679" y="0" on="0"/>
        <pt x="620" y="0" on="1"/>
        <pt x="522" y="0" on="0"/>
        <pt x="473" y="46" on="1"/>
        <pt x="434" y="24" on="0"/>
        <pt x="349" y="0" on="0"/>
        <pt x="304" y="0" on="1"/>
        <pt x="248" y="0" on="0"/>
        <pt x="161" y="35" on="0"/>
        <pt x="101" y="98" on="0"/>
        <pt x="70" y="182" on="0"/>
        <pt x="70" y="232" on="1"/>
        <pt x="70" y="283" on="0"/>
        <pt x="99" y="384" on="0"/>
        <pt x="152" y="475" on="0"/>
        <pt x="225" y="554" on="0"/>
        <pt x="313" y="611" on="0"/>
        <pt x="412" y="644" on="0"/>
        <pt x="465" y="644" on="1"/>
        <pt x="517" y="644" on="0"/>
        <pt x="597" y="612" on="0"/>
        <pt x="626" y="583" on="1"/>
        <pt x="651" y="610" on="0"/>
        <pt x="738" y="644" on="0"/>
      </contour>
      <contour>
        <pt x="680" y="405" on="1"/>
        <pt x="643" y="421" on="0"/>
        <pt x="597" y="475" on="0"/>
        <pt x="597" y="510" on="1"/>
        <pt x="597" y="513" on="1"/>
        <pt x="572" y="555" on="0"/>
        <pt x="486" y="606" on="0"/>
        <pt x="422" y="606" on="1"/>
        <pt x="355" y="606" on="0"/>
        <pt x="247" y="553" on="0"/>
        <pt x="172" y="461" on="0"/>
        <pt x="131" y="336" on="0"/>
        <pt x="131" y="265" on="1"/>
        <pt x="131" y="213" on="0"/>
        <pt x="161" y="128" on="0"/>
        <pt x="220" y="68" on="0"/>
        <pt x="305" y="35" on="0"/>
        <pt x="360" y="35" on="1"/>
        <pt x="410" y="35" on="0"/>
        <pt x="460" y="60" on="1"/>
        <pt x="429" y="97" on="0"/>
        <pt x="429" y="158" on="1"/>
        <pt x="429" y="206" on="0"/>
        <pt x="467" y="287" on="0"/>
        <pt x="534" y="351" on="0"/>
        <pt x="626" y="395" on="0"/>
      </contour>
    </TTGlyph>
    <TTGlyph name="Oacute" xMin="70" yMin="0" xMax="691" yMax="737">
      <contour>
        <pt x="468" y="734" on="1"/>
        <pt x="473" y="737" on="0"/>
        <pt x="500" y="728" on="0"/>
        <pt x="509" y="724" on="1"/>
        <pt x="511" y="722" on="0"/>
        <pt x="513" y="717" on="0"/>
        <pt x="510" y="715" on="1"/>
        <pt x="500" y="708" on="0"/>
        <pt x="469" y="692" on="0"/>
        <pt x="434" y="677" on="0"/>
        <pt x="397" y="663" on="0"/>
        <pt x="382" y="658" on="1"/>
        <pt x="378" y="658" on="0"/>
        <pt x="378" y="666" on="0"/>
        <pt x="381" y="669" on="1"/>
        <pt x="401" y="681" on="0"/>
        <pt x="449" y="714" on="0"/>
      </contour>
      <contour>
        <pt x="466" y="644" on="1"/>
        <pt x="520" y="644" on="0"/>
        <pt x="603" y="609" on="0"/>
        <pt x="661" y="546" on="0"/>
        <pt x="691" y="458" on="0"/>
        <pt x="691" y="406" on="1"/>
        <pt x="691" y="325" on="0"/>
        <pt x="626" y="178" on="0"/>
        <pt x="518" y="66" on="0"/>
        <pt x="379" y="0" on="0"/>
        <pt x="305" y="0" on="1"/>
        <pt x="248" y="0" on="0"/>
        <pt x="161" y="35" on="0"/>
        <pt x="101" y="98" on="0"/>
        <pt x="70" y="182" on="0"/>
        <pt x="70" y="232" on="1"/>
        <pt x="70" y="308" on="0"/>
        <pt x="135" y="456" on="0"/>
        <pt x="244" y="573" on="0"/>
        <pt x="387" y="644" on="0"/>
      </contour>
      <contour>
        <pt x="360" y="36" on="1"/>
        <pt x="412" y="36" on="0"/>
        <pt x="509" y="85" on="0"/>
        <pt x="585" y="174" on="0"/>
        <pt x="631" y="299" on="0"/>
        <pt x="631" y="376" on="1"/>
        <pt x="631" y="424" on="0"/>
        <pt x="606" y="508" on="0"/>
        <pt x="554" y="570" on="0"/>
        <pt x="476" y="606" on="0"/>
        <pt x="422" y="606" on="1"/>
        <pt x="355" y="606" on="0"/>
        <pt x="248" y="553" on="0"/>
        <pt x="173" y="461" on="0"/>
        <pt x="132" y="337" on="0"/>
        <pt x="132" y="265" on="1"/>
        <pt x="132" y="213" on="0"/>
        <pt x="162" y="129" on="0"/>
        <pt x="220" y="69" on="0"/>
        <pt x="305" y="36" on="0"/>
      </contour>
    </TTGlyph>
    <TTGlyph name="Ocircumflex" xMin="70" yMin="0" xMax="691" yMax="751">
      <contour>
        <pt x="450" y="746" on="1"/>
        <pt x="455" y="751" on="0"/>
        <pt x="462" y="745" on="1"/>
        <pt x="475" y="728" on="0"/>
        <pt x="516" y="693" on="0"/>
        <pt x="536" y="684" on="1"/>
        <pt x="541" y="679" on="0"/>
        <pt x="522" y="669" on="0"/>
        <pt x="510" y="671" on="1"/>
        <pt x="491" y="679" on="0"/>
        <pt x="460" y="702" on="0"/>
        <pt x="444" y="715" on="1"/>
        <pt x="438" y="710" on="0"/>
        <pt x="418" y="698" on="0"/>
        <pt x="397" y="685" on="0"/>
        <pt x="376" y="673" on="0"/>
        <pt x="369" y="670" on="1"/>
        <pt x="359" y="670" on="0"/>
        <pt x="364" y="679" on="1"/>
        <pt x="381" y="689" on="0"/>
        <pt x="434" y="727" on="0"/>
      </contour>
      <contour>
        <pt x="466" y="644" on="1"/>
        <pt x="520" y="644" on="0"/>
        <pt x="603" y="609" on="0"/>
        <pt x="661" y="546" on="0"/>
        <pt x="691" y="458" on="0"/>
        <pt x="691" y="406" on="1"/>
        <pt x="691" y="325" on="0"/>
        <pt x="626" y="178" on="0"/>
        <pt x="518" y="66" on="0"/>
        <pt x="379" y="0" on="0"/>
        <pt x="305" y="0" on="1"/>
        <pt x="248" y="0" on="0"/>
        <pt x="161" y="35" on="0"/>
        <pt x="101" y="98" on="0"/>
        <pt x="70" y="182" on="0"/>
        <pt x="70" y="232" on="1"/>
        <pt x="70" y="308" on="0"/>
        <pt x="135" y="456" on="0"/>
        <pt x="244" y="573" on="0"/>
        <pt x="387" y="644" on="0"/>
      </contour>
      <contour>
        <pt x="360" y="36" on="1"/>
        <pt x="412" y="36" on="0"/>
        <pt x="509" y="85" on="0"/>
        <pt x="585" y="174" on="0"/>
        <pt x="631" y="299" on="0"/>
        <pt x="631" y="376" on="1"/>
        <pt x="631" y="424" on="0"/>
        <pt x="606" y="508" on="0"/>
        <pt x="554" y="570" on="0"/>
        <pt x="476" y="606" on="0"/>
        <pt x="422" y="606" on="1"/>
        <pt x="355" y="606" on="0"/>
        <pt x="248" y="553" on="0"/>
        <pt x="173" y="461" on="0"/>
        <pt x="132" y="337" on="0"/>
        <pt x="132" y="265" on="1"/>
        <pt x="132" y="213" on="0"/>
        <pt x="162" y="129" on="0"/>
        <pt x="220" y="69" on="0"/>
        <pt x="305" y="36" on="0"/>
      </contour>
    </TTGlyph>
    <TTGlyph name="Odieresis" xMin="70" yMin="0" xMax="691" yMax="721">
      <contour>
        <pt x="406" y="667" on="1"/>
        <pt x="395" y="667" on="0"/>
        <pt x="395" y="684" on="1"/>
        <pt x="395" y="694" on="0"/>
        <pt x="415" y="721" on="0"/>
        <pt x="431" y="721" on="1"/>
        <pt x="440" y="721" on="0"/>
        <pt x="440" y="708" on="1"/>
        <pt x="440" y="694" on="0"/>
        <pt x="420" y="667" on="0"/>
      </contour>
      <contour>
        <pt x="483" y="667" on="1"/>
        <pt x="471" y="667" on="0"/>
        <pt x="471" y="684" on="1"/>
        <pt x="471" y="694" on="0"/>
        <pt x="491" y="721" on="0"/>
        <pt x="506" y="721" on="1"/>
        <pt x="515" y="721" on="0"/>
        <pt x="515" y="708" on="1"/>
        <pt x="515" y="694" on="0"/>
        <pt x="495" y="667" on="0"/>
      </contour>
      <contour>
        <pt x="466" y="644" on="1"/>
        <pt x="520" y="644" on="0"/>
        <pt x="603" y="609" on="0"/>
        <pt x="661" y="546" on="0"/>
        <pt x="691" y="458" on="0"/>
        <pt x="691" y="406" on="1"/>
        <pt x="691" y="325" on="0"/>
        <pt x="626" y="178" on="0"/>
        <pt x="518" y="66" on="0"/>
        <pt x="379" y="0" on="0"/>
        <pt x="305" y="0" on="1"/>
        <pt x="248" y="0" on="0"/>
        <pt x="161" y="35" on="0"/>
        <pt x="101" y="98" on="0"/>
        <pt x="70" y="182" on="0"/>
        <pt x="70" y="232" on="1"/>
        <pt x="70" y="308" on="0"/>
        <pt x="135" y="456" on="0"/>
        <pt x="244" y="573" on="0"/>
        <pt x="387" y="644" on="0"/>
      </contour>
      <contour>
        <pt x="360" y="36" on="1"/>
        <pt x="412" y="36" on="0"/>
        <pt x="509" y="85" on="0"/>
        <pt x="585" y="174" on="0"/>
        <pt x="631" y="299" on="0"/>
        <pt x="631" y="376" on="1"/>
        <pt x="631" y="424" on="0"/>
        <pt x="606" y="508" on="0"/>
        <pt x="554" y="570" on="0"/>
        <pt x="476" y="606" on="0"/>
        <pt x="422" y="606" on="1"/>
        <pt x="355" y="606" on="0"/>
        <pt x="248" y="553" on="0"/>
        <pt x="173" y="461" on="0"/>
        <pt x="132" y="337" on="0"/>
        <pt x="132" y="265" on="1"/>
        <pt x="132" y="213" on="0"/>
        <pt x="162" y="129" on="0"/>
        <pt x="220" y="69" on="0"/>
        <pt x="305" y="36" on="0"/>
      </contour>
    </TTGlyph>
    <TTGlyph name="Ograve" xMin="70" yMin="0" xMax="691" yMax="733">
      <contour>
        <pt x="494" y="669" on="1"/>
        <pt x="496" y="667" on="0"/>
        <pt x="491" y="660" on="0"/>
        <pt x="486" y="660" on="1"/>
        <pt x="474" y="663" on="0"/>
        <pt x="440" y="675" on="0"/>
        <pt x="406" y="689" on="0"/>
        <pt x="374" y="703" on="0"/>
        <pt x="363" y="709" on="1"/>
        <pt x="361" y="710" on="0"/>
        <pt x="361" y="715" on="0"/>
        <pt x="363" y="717" on="1"/>
        <pt x="373" y="725" on="0"/>
        <pt x="401" y="733" on="0"/>
        <pt x="403" y="731" on="1"/>
        <pt x="420" y="717" on="0"/>
        <pt x="467" y="684" on="0"/>
      </contour>
      <contour>
        <pt x="466" y="644" on="1"/>
        <pt x="520" y="644" on="0"/>
        <pt x="603" y="609" on="0"/>
        <pt x="661" y="546" on="0"/>
        <pt x="691" y="458" on="0"/>
        <pt x="691" y="406" on="1"/>
        <pt x="691" y="325" on="0"/>
        <pt x="626" y="178" on="0"/>
        <pt x="518" y="66" on="0"/>
        <pt x="379" y="0" on="0"/>
        <pt x="305" y="0" on="1"/>
        <pt x="248" y="0" on="0"/>
        <pt x="161" y="35" on="0"/>
        <pt x="101" y="98" on="0"/>
        <pt x="70" y="182" on="0"/>
        <pt x="70" y="232" on="1"/>
        <pt x="70" y="308" on="0"/>
        <pt x="135" y="456" on="0"/>
        <pt x="244" y="573" on="0"/>
        <pt x="387" y="644" on="0"/>
      </contour>
      <contour>
        <pt x="360" y="36" on="1"/>
        <pt x="412" y="36" on="0"/>
        <pt x="509" y="85" on="0"/>
        <pt x="585" y="174" on="0"/>
        <pt x="631" y="299" on="0"/>
        <pt x="631" y="376" on="1"/>
        <pt x="631" y="424" on="0"/>
        <pt x="606" y="508" on="0"/>
        <pt x="554" y="570" on="0"/>
        <pt x="476" y="606" on="0"/>
        <pt x="422" y="606" on="1"/>
        <pt x="355" y="606" on="0"/>
        <pt x="248" y="553" on="0"/>
        <pt x="173" y="461" on="0"/>
        <pt x="132" y="337" on="0"/>
        <pt x="132" y="265" on="1"/>
        <pt x="132" y="213" on="0"/>
        <pt x="162" y="129" on="0"/>
        <pt x="220" y="69" on="0"/>
        <pt x="305" y="36" on="0"/>
      </contour>
    </TTGlyph>
    <TTGlyph name="Oslash" xMin="70" yMin="-22" xMax="690" yMax="662">
      <contour>
        <pt x="583" y="616" on="1"/>
        <pt x="635" y="587" on="0"/>
        <pt x="690" y="478" on="0"/>
        <pt x="690" y="406" on="1"/>
        <pt x="690" y="325" on="0"/>
        <pt x="625" y="178" on="0"/>
        <pt x="518" y="66" on="0"/>
        <pt x="379" y="0" on="0"/>
        <pt x="305" y="0" on="1"/>
        <pt x="261" y="0" on="0"/>
        <pt x="191" y="20" on="0"/>
        <pt x="163" y="39" on="1"/>
        <pt x="151" y="22" on="0"/>
        <pt x="132" y="-5" on="0"/>
        <pt x="124" y="-16" on="1"/>
        <pt x="119" y="-22" on="0"/>
        <pt x="102" y="-18" on="0"/>
        <pt x="104" y="-13" on="1"/>
        <pt x="113" y="0" on="0"/>
        <pt x="135" y="32" on="0"/>
        <pt x="148" y="50" on="1"/>
        <pt x="110" y="82" on="0"/>
        <pt x="70" y="175" on="0"/>
        <pt x="70" y="232" on="1"/>
        <pt x="70" y="283" on="0"/>
        <pt x="99" y="384" on="0"/>
        <pt x="152" y="475" on="0"/>
        <pt x="226" y="554" on="0"/>
        <pt x="314" y="611" on="0"/>
        <pt x="413" y="644" on="0"/>
        <pt x="466" y="644" on="1"/>
        <pt x="521" y="644" on="0"/>
        <pt x="566" y="624" on="1"/>
        <pt x="579" y="642" on="0"/>
        <pt x="590" y="657" on="1"/>
        <pt x="596" y="662" on="0"/>
        <pt x="613" y="658" on="0"/>
        <pt x="610" y="652" on="1"/>
        <pt x="598" y="635" on="0"/>
      </contour>
      <contour>
        <pt x="132" y="265" on="1"/>
        <pt x="132" y="165" on="0"/>
        <pt x="186" y="103" on="1"/>
        <pt x="224" y="156" on="0"/>
        <pt x="314" y="280" on="0"/>
        <pt x="406" y="408" on="0"/>
        <pt x="495" y="529" on="0"/>
        <pt x="532" y="579" on="1"/>
        <pt x="486" y="605" on="0"/>
        <pt x="422" y="605" on="1"/>
        <pt x="355" y="605" on="0"/>
        <pt x="247" y="552" on="0"/>
        <pt x="172" y="460" on="0"/>
        <pt x="132" y="336" on="0"/>
      </contour>
      <contour>
        <pt x="360" y="35" on="1"/>
        <pt x="412" y="35" on="0"/>
        <pt x="509" y="84" on="0"/>
        <pt x="584" y="173" on="0"/>
        <pt x="630" y="299" on="0"/>
        <pt x="630" y="376" on="1"/>
        <pt x="630" y="437" on="0"/>
        <pt x="590" y="538" on="0"/>
        <pt x="548" y="568" on="1"/>
        <pt x="511" y="519" on="0"/>
        <pt x="421" y="397" on="0"/>
        <pt x="326" y="268" on="0"/>
        <pt x="236" y="142" on="0"/>
        <pt x="199" y="90" on="1"/>
        <pt x="228" y="64" on="0"/>
        <pt x="308" y="35" on="0"/>
      </contour>
    </TTGlyph>
    <TTGlyph name="Otilde" xMin="70" yMin="0" xMax="691" yMax="730">
      <contour>
        <pt x="345" y="673" on="1"/>
        <pt x="356" y="689" on="0"/>
        <pt x="393" y="719" on="0"/>
        <pt x="410" y="719" on="1"/>
        <pt x="422" y="719" on="0"/>
        <pt x="441" y="708" on="0"/>
        <pt x="462" y="695" on="0"/>
        <pt x="487" y="684" on="0"/>
        <pt x="503" y="684" on="1"/>
        <pt x="521" y="684" on="0"/>
        <pt x="544" y="707" on="0"/>
        <pt x="554" y="728" on="1"/>
        <pt x="556" y="730" on="0"/>
        <pt x="563" y="727" on="0"/>
        <pt x="562" y="724" on="1"/>
        <pt x="550" y="697" on="0"/>
        <pt x="516" y="665" on="0"/>
        <pt x="486" y="665" on="1"/>
        <pt x="472" y="665" on="0"/>
        <pt x="449" y="675" on="0"/>
        <pt x="428" y="688" on="0"/>
        <pt x="408" y="698" on="0"/>
        <pt x="398" y="698" on="1"/>
        <pt x="385" y="698" on="0"/>
        <pt x="363" y="681" on="0"/>
        <pt x="352" y="667" on="1"/>
        <pt x="348" y="665" on="0"/>
        <pt x="343" y="670" on="0"/>
      </contour>
      <contour>
        <pt x="466" y="644" on="1"/>
        <pt x="520" y="644" on="0"/>
        <pt x="603" y="609" on="0"/>
        <pt x="661" y="546" on="0"/>
        <pt x="691" y="458" on="0"/>
        <pt x="691" y="406" on="1"/>
        <pt x="691" y="325" on="0"/>
        <pt x="626" y="178" on="0"/>
        <pt x="518" y="66" on="0"/>
        <pt x="379" y="0" on="0"/>
        <pt x="305" y="0" on="1"/>
        <pt x="248" y="0" on="0"/>
        <pt x="161" y="35" on="0"/>
        <pt x="101" y="98" on="0"/>
        <pt x="70" y="182" on="0"/>
        <pt x="70" y="232" on="1"/>
        <pt x="70" y="308" on="0"/>
        <pt x="135" y="456" on="0"/>
        <pt x="244" y="573" on="0"/>
        <pt x="387" y="644" on="0"/>
      </contour>
      <contour>
        <pt x="360" y="36" on="1"/>
        <pt x="412" y="36" on="0"/>
        <pt x="509" y="85" on="0"/>
        <pt x="585" y="174" on="0"/>
        <pt x="631" y="299" on="0"/>
        <pt x="631" y="376" on="1"/>
        <pt x="631" y="424" on="0"/>
        <pt x="606" y="508" on="0"/>
        <pt x="554" y="570" on="0"/>
        <pt x="476" y="606" on="0"/>
        <pt x="422" y="606" on="1"/>
        <pt x="355" y="606" on="0"/>
        <pt x="248" y="553" on="0"/>
        <pt x="173" y="461" on="0"/>
        <pt x="132" y="337" on="0"/>
        <pt x="132" y="265" on="1"/>
        <pt x="132" y="213" on="0"/>
        <pt x="162" y="129" on="0"/>
        <pt x="220" y="69" on="0"/>
        <pt x="305" y="36" on="0"/>
      </contour>
    </TTGlyph>
    <TTGlyph name="P" xMin="50" yMin="0" xMax="911" yMax="681">
      <contour>
        <pt x="712" y="642" on="1"/>
        <pt x="758" y="636" on="0"/>
        <pt x="832" y="602" on="0"/>
        <pt x="883" y="551" on="0"/>
        <pt x="911" y="486" on="0"/>
        <pt x="911" y="450" on="1"/>
        <pt x="911" y="403" on="0"/>
        <pt x="874" y="321" on="0"/>
        <pt x="807" y="261" on="0"/>
        <pt x="711" y="226" on="0"/>
        <pt x="651" y="226" on="1"/>
        <pt x="586" y="226" on="0"/>
        <pt x="543" y="258" on="1"/>
        <pt x="480" y="123" on="0"/>
        <pt x="310" y="0" on="0"/>
        <pt x="212" y="0" on="1"/>
        <pt x="129" y="0" on="0"/>
        <pt x="50" y="83" on="0"/>
        <pt x="50" y="146" on="1"/>
        <pt x="50" y="165" on="0"/>
        <pt x="63" y="204" on="0"/>
        <pt x="87" y="239" on="0"/>
        <pt x="122" y="267" on="0"/>
        <pt x="144" y="276" on="1"/>
        <pt x="147" y="278" on="0"/>
        <pt x="152" y="274" on="0"/>
        <pt x="150" y="269" on="1"/>
        <pt x="120" y="253" on="0"/>
        <pt x="92" y="199" on="0"/>
        <pt x="92" y="168" on="1"/>
        <pt x="92" y="141" on="0"/>
        <pt x="110" y="92" on="0"/>
        <pt x="149" y="56" on="0"/>
        <pt x="209" y="35" on="0"/>
        <pt x="251" y="35" on="1"/>
        <pt x="299" y="35" on="0"/>
        <pt x="371" y="59" on="0"/>
        <pt x="430" y="119" on="0"/>
        <pt x="479" y="222" on="0"/>
        <pt x="504" y="301" on="1"/>
        <pt x="486" y="330" on="0"/>
        <pt x="479" y="364" on="1"/>
        <pt x="480" y="368" on="0"/>
        <pt x="486" y="372" on="0"/>
        <pt x="488" y="369" on="1"/>
        <pt x="495" y="340" on="0"/>
        <pt x="509" y="317" on="1"/>
        <pt x="513" y="330" on="0"/>
        <pt x="520" y="358" on="0"/>
        <pt x="524" y="372" on="1"/>
        <pt x="549" y="461" on="0"/>
        <pt x="609" y="579" on="0"/>
        <pt x="647" y="615" on="1"/>
        <pt x="642" y="616" on="0"/>
        <pt x="632" y="616" on="1"/>
        <pt x="526" y="616" on="0"/>
        <pt x="382" y="519" on="0"/>
        <pt x="353" y="419" on="1"/>
        <pt x="350" y="416" on="0"/>
        <pt x="343" y="421" on="0"/>
        <pt x="343" y="428" on="1"/>
        <pt x="377" y="528" on="0"/>
        <pt x="536" y="644" on="0"/>
        <pt x="666" y="644" on="1"/>
        <pt x="682" y="644" on="1"/>
        <pt x="720" y="669" on="0"/>
        <pt x="767" y="681" on="1"/>
        <pt x="772" y="681" on="0"/>
        <pt x="772" y="672" on="0"/>
        <pt x="767" y="670" on="1"/>
        <pt x="737" y="661" on="0"/>
      </contour>
      <contour>
        <pt x="662" y="246" on="1"/>
        <pt x="704" y="246" on="0"/>
        <pt x="772" y="274" on="0"/>
        <pt x="821" y="324" on="0"/>
        <pt x="847" y="390" on="0"/>
        <pt x="847" y="428" on="1"/>
        <pt x="847" y="499" on="0"/>
        <pt x="762" y="598" on="0"/>
        <pt x="683" y="612" on="1"/>
        <pt x="633" y="549" on="0"/>
        <pt x="600" y="420" on="1"/>
        <pt x="589" y="379" on="0"/>
        <pt x="564" y="306" on="0"/>
        <pt x="550" y="274" on="1"/>
        <pt x="591" y="246" on="0"/>
      </contour>
    </TTGlyph>
    <TTGlyph name="Q" xMin="71" yMin="-172" xMax="779" yMax="645">
      <contour>
        <pt x="426" y="645" on="1"/>
        <pt x="481" y="645" on="0"/>
        <pt x="564" y="611" on="0"/>
        <pt x="621" y="553" on="0"/>
        <pt x="650" y="475" on="0"/>
        <pt x="650" y="431" on="1"/>
        <pt x="650" y="353" on="0"/>
        <pt x="580" y="214" on="0"/>
        <pt x="462" y="106" on="0"/>
        <pt x="307" y="34" on="0"/>
        <pt x="223" y="23" on="1"/>
        <pt x="249" y="14" on="0"/>
        <pt x="311" y="-15" on="0"/>
        <pt x="379" y="-48" on="0"/>
        <pt x="451" y="-82" on="0"/>
        <pt x="487" y="-96" on="1"/>
        <pt x="526" y="-111" on="0"/>
        <pt x="589" y="-125" on="0"/>
        <pt x="627" y="-125" on="1"/>
        <pt x="678" y="-125" on="0"/>
        <pt x="745" y="-98" on="0"/>
        <pt x="769" y="-72" on="1"/>
        <pt x="771" y="-70" on="0"/>
        <pt x="779" y="-74" on="0"/>
        <pt x="777" y="-79" on="1"/>
        <pt x="750" y="-117" on="0"/>
        <pt x="655" y="-172" on="0"/>
        <pt x="596" y="-172" on="1"/>
        <pt x="575" y="-172" on="0"/>
        <pt x="540" y="-168" on="0"/>
        <pt x="505" y="-159" on="0"/>
        <pt x="469" y="-146" on="0"/>
        <pt x="448" y="-136" on="1"/>
        <pt x="398" y="-113" on="0"/>
        <pt x="294" y="-59" on="0"/>
        <pt x="197" y="-12" on="0"/>
        <pt x="109" y="19" on="0"/>
        <pt x="76" y="18" on="1"/>
        <pt x="71" y="20" on="0"/>
        <pt x="71" y="29" on="0"/>
        <pt x="80" y="37" on="1"/>
        <pt x="88" y="43" on="0"/>
        <pt x="118" y="54" on="0"/>
        <pt x="126" y="54" on="1"/>
        <pt x="139" y="54" on="0"/>
        <pt x="174" y="38" on="0"/>
        <pt x="189" y="38" on="1"/>
        <pt x="266" y="38" on="0"/>
        <pt x="409" y="92" on="0"/>
        <pt x="518" y="191" on="0"/>
        <pt x="584" y="327" on="0"/>
        <pt x="584" y="410" on="1"/>
        <pt x="584" y="456" on="0"/>
        <pt x="562" y="535" on="0"/>
        <pt x="518" y="593" on="0"/>
        <pt x="455" y="625" on="0"/>
        <pt x="413" y="625" on="1"/>
        <pt x="357" y="625" on="0"/>
        <pt x="264" y="578" on="0"/>
        <pt x="196" y="494" on="0"/>
        <pt x="159" y="377" on="0"/>
        <pt x="159" y="306" on="1"/>
        <pt x="159" y="252" on="0"/>
        <pt x="206" y="173" on="0"/>
        <pt x="252" y="166" on="1"/>
        <pt x="287" y="160" on="0"/>
        <pt x="302" y="173" on="1"/>
        <pt x="305" y="175" on="0"/>
        <pt x="310" y="169" on="0"/>
        <pt x="308" y="164" on="1"/>
        <pt x="300" y="153" on="0"/>
        <pt x="262" y="139" on="0"/>
        <pt x="239" y="139" on="1"/>
        <pt x="178" y="139" on="0"/>
        <pt x="104" y="217" on="0"/>
        <pt x="104" y="291" on="1"/>
        <pt x="104" y="362" on="0"/>
        <pt x="156" y="490" on="0"/>
        <pt x="244" y="588" on="0"/>
        <pt x="361" y="645" on="0"/>
      </contour>
    </TTGlyph>
    <TTGlyph name="R" xMin="50" yMin="0" xMax="881" yMax="681">
      <contour>
        <pt x="870" y="76" on="1"/>
        <pt x="872" y="78" on="0"/>
        <pt x="881" y="78" on="0"/>
        <pt x="879" y="73" on="1"/>
        <pt x="858" y="39" on="0"/>
        <pt x="802" y="0" on="0"/>
        <pt x="770" y="0" on="1"/>
        <pt x="726" y="0" on="0"/>
        <pt x="664" y="51" on="0"/>
        <pt x="619" y="136" on="0"/>
        <pt x="589" y="248" on="0"/>
        <pt x="576" y="309" on="1"/>
        <pt x="576" y="316" on="0"/>
        <pt x="580" y="317" on="1"/>
        <pt x="585" y="320" on="0"/>
        <pt x="612" y="327" on="0"/>
        <pt x="623" y="331" on="1"/>
        <pt x="626" y="332" on="0"/>
        <pt x="639" y="329" on="0"/>
        <pt x="658" y="326" on="0"/>
        <pt x="684" y="325" on="0"/>
        <pt x="701" y="329" on="1"/>
        <pt x="744" y="339" on="0"/>
        <pt x="792" y="408" on="0"/>
        <pt x="792" y="467" on="1"/>
        <pt x="792" y="496" on="0"/>
        <pt x="773" y="548" on="0"/>
        <pt x="736" y="587" on="0"/>
        <pt x="681" y="612" on="0"/>
        <pt x="644" y="615" on="1"/>
        <pt x="618" y="582" on="0"/>
        <pt x="577" y="484" on="0"/>
        <pt x="560" y="420" on="1"/>
        <pt x="530" y="310" on="0"/>
        <pt x="451" y="151" on="0"/>
        <pt x="355" y="49" on="0"/>
        <pt x="243" y="0" on="0"/>
        <pt x="182" y="0" on="1"/>
        <pt x="113" y="0" on="0"/>
        <pt x="50" y="63" on="0"/>
        <pt x="50" y="114" on="1"/>
        <pt x="50" y="160" on="0"/>
        <pt x="103" y="230" on="0"/>
        <pt x="141" y="244" on="1"/>
        <pt x="151" y="248" on="0"/>
        <pt x="147" y="237" on="1"/>
        <pt x="89" y="206" on="0"/>
        <pt x="89" y="145" on="1"/>
        <pt x="89" y="96" on="0"/>
        <pt x="151" y="37" on="0"/>
        <pt x="213" y="37" on="1"/>
        <pt x="263" y="37" on="0"/>
        <pt x="338" y="60" on="0"/>
        <pt x="400" y="131" on="0"/>
        <pt x="455" y="263" on="0"/>
        <pt x="485" y="372" on="1"/>
        <pt x="530" y="538" on="0"/>
        <pt x="610" y="615" on="1"/>
        <pt x="517" y="612" on="0"/>
        <pt x="384" y="547" on="0"/>
        <pt x="336" y="478" on="1"/>
        <pt x="332" y="476" on="0"/>
        <pt x="326" y="480" on="0"/>
        <pt x="328" y="485" on="1"/>
        <pt x="375" y="554" on="0"/>
        <pt x="533" y="639" on="0"/>
        <pt x="645" y="644" on="1"/>
        <pt x="682" y="669" on="0"/>
        <pt x="727" y="681" on="1"/>
        <pt x="732" y="681" on="0"/>
        <pt x="732" y="674" on="0"/>
        <pt x="727" y="672" on="1"/>
        <pt x="700" y="665" on="0"/>
        <pt x="674" y="644" on="1"/>
        <pt x="716" y="644" on="0"/>
        <pt x="782" y="618" on="0"/>
        <pt x="828" y="574" on="0"/>
        <pt x="852" y="518" on="0"/>
        <pt x="852" y="488" on="1"/>
        <pt x="852" y="446" on="0"/>
        <pt x="821" y="378" on="0"/>
        <pt x="764" y="330" on="0"/>
        <pt x="683" y="307" on="0"/>
        <pt x="633" y="312" on="1"/>
        <pt x="648" y="234" on="0"/>
        <pt x="684" y="129" on="0"/>
        <pt x="727" y="67" on="0"/>
        <pt x="780" y="41" on="0"/>
        <pt x="811" y="41" on="1"/>
        <pt x="845" y="41" on="0"/>
      </contour>
    </TTGlyph>
    <TTGlyph name="S" xMin="50" yMin="0" xMax="570" yMax="644">
      <contour>
        <pt x="50" y="131" on="1"/>
        <pt x="50" y="174" on="0"/>
        <pt x="95" y="234" on="0"/>
        <pt x="134" y="250" on="1"/>
        <pt x="139" y="252" on="0"/>
        <pt x="143" y="242" on="0"/>
        <pt x="140" y="238" on="1"/>
        <pt x="122" y="228" on="0"/>
        <pt x="101" y="186" on="0"/>
        <pt x="101" y="156" on="1"/>
        <pt x="101" y="95" on="0"/>
        <pt x="191" y="25" on="0"/>
        <pt x="263" y="25" on="1"/>
        <pt x="357" y="25" on="0"/>
        <pt x="438" y="99" on="0"/>
        <pt x="438" y="159" on="1"/>
        <pt x="438" y="215" on="0"/>
        <pt x="392" y="300" on="0"/>
        <pt x="337" y="375" on="0"/>
        <pt x="291" y="451" on="0"/>
        <pt x="291" y="499" on="1"/>
        <pt x="291" y="527" on="0"/>
        <pt x="316" y="579" on="0"/>
        <pt x="361" y="620" on="0"/>
        <pt x="423" y="644" on="0"/>
        <pt x="460" y="644" on="1"/>
        <pt x="511" y="644" on="0"/>
        <pt x="570" y="601" on="0"/>
        <pt x="570" y="571" on="1"/>
        <pt x="570" y="554" on="0"/>
        <pt x="541" y="505" on="0"/>
        <pt x="526" y="487" on="1"/>
        <pt x="522" y="485" on="0"/>
        <pt x="516" y="491" on="0"/>
        <pt x="517" y="495" on="1"/>
        <pt x="522" y="503" on="0"/>
        <pt x="529" y="526" on="0"/>
        <pt x="529" y="540" on="1"/>
        <pt x="529" y="556" on="0"/>
        <pt x="515" y="585" on="0"/>
        <pt x="489" y="606" on="0"/>
        <pt x="455" y="619" on="0"/>
        <pt x="436" y="619" on="1"/>
        <pt x="386" y="619" on="0"/>
        <pt x="340" y="571" on="0"/>
        <pt x="340" y="533" on="1"/>
        <pt x="340" y="503" on="0"/>
        <pt x="363" y="450" on="0"/>
        <pt x="397" y="397" on="0"/>
        <pt x="436" y="344" on="0"/>
        <pt x="470" y="287" on="0"/>
        <pt x="493" y="224" on="0"/>
        <pt x="493" y="187" on="1"/>
        <pt x="493" y="148" on="0"/>
        <pt x="454" y="80" on="0"/>
        <pt x="386" y="29" on="0"/>
        <pt x="296" y="0" on="0"/>
        <pt x="244" y="0" on="1"/>
        <pt x="149" y="0" on="0"/>
        <pt x="50" y="74" on="0"/>
      </contour>
    </TTGlyph>
    <TTGlyph name="Scaron" xMin="50" yMin="0" xMax="570" yMax="748">
      <contour>
        <pt x="432" y="671" on="1"/>
        <pt x="426" y="667" on="0"/>
        <pt x="420" y="672" on="1"/>
        <pt x="407" y="689" on="0"/>
        <pt x="366" y="725" on="0"/>
        <pt x="347" y="733" on="1"/>
        <pt x="342" y="738" on="0"/>
        <pt x="360" y="748" on="0"/>
        <pt x="373" y="746" on="1"/>
        <pt x="391" y="738" on="0"/>
        <pt x="423" y="715" on="0"/>
        <pt x="438" y="702" on="1"/>
        <pt x="444" y="707" on="0"/>
        <pt x="464" y="720" on="0"/>
        <pt x="485" y="733" on="0"/>
        <pt x="506" y="744" on="0"/>
        <pt x="513" y="748" on="1"/>
        <pt x="518" y="748" on="0"/>
        <pt x="520" y="742" on="0"/>
        <pt x="518" y="738" on="1"/>
        <pt x="501" y="728" on="0"/>
        <pt x="448" y="691" on="0"/>
      </contour>
      <contour>
        <pt x="50" y="131" on="1"/>
        <pt x="50" y="174" on="0"/>
        <pt x="95" y="234" on="0"/>
        <pt x="134" y="250" on="1"/>
        <pt x="139" y="252" on="0"/>
        <pt x="143" y="242" on="0"/>
        <pt x="140" y="238" on="1"/>
        <pt x="122" y="228" on="0"/>
        <pt x="101" y="186" on="0"/>
        <pt x="101" y="156" on="1"/>
        <pt x="101" y="95" on="0"/>
        <pt x="191" y="25" on="0"/>
        <pt x="263" y="25" on="1"/>
        <pt x="357" y="25" on="0"/>
        <pt x="438" y="99" on="0"/>
        <pt x="438" y="159" on="1"/>
        <pt x="438" y="215" on="0"/>
        <pt x="392" y="300" on="0"/>
        <pt x="337" y="375" on="0"/>
        <pt x="291" y="451" on="0"/>
        <pt x="291" y="499" on="1"/>
        <pt x="291" y="527" on="0"/>
        <pt x="316" y="579" on="0"/>
        <pt x="361" y="620" on="0"/>
        <pt x="423" y="644" on="0"/>
        <pt x="460" y="644" on="1"/>
        <pt x="511" y="644" on="0"/>
        <pt x="570" y="601" on="0"/>
        <pt x="570" y="571" on="1"/>
        <pt x="570" y="554" on="0"/>
        <pt x="541" y="505" on="0"/>
        <pt x="526" y="487" on="1"/>
        <pt x="522" y="485" on="0"/>
        <pt x="516" y="491" on="0"/>
        <pt x="517" y="495" on="1"/>
        <pt x="522" y="503" on="0"/>
        <pt x="529" y="526" on="0"/>
        <pt x="529" y="540" on="1"/>
        <pt x="529" y="556" on="0"/>
        <pt x="515" y="585" on="0"/>
        <pt x="489" y="606" on="0"/>
        <pt x="455" y="619" on="0"/>
        <pt x="436" y="619" on="1"/>
        <pt x="386" y="619" on="0"/>
        <pt x="340" y="571" on="0"/>
        <pt x="340" y="533" on="1"/>
        <pt x="340" y="503" on="0"/>
        <pt x="363" y="450" on="0"/>
        <pt x="397" y="397" on="0"/>
        <pt x="436" y="344" on="0"/>
        <pt x="470" y="287" on="0"/>
        <pt x="493" y="224" on="0"/>
        <pt x="493" y="187" on="1"/>
        <pt x="493" y="148" on="0"/>
        <pt x="454" y="80" on="0"/>
        <pt x="386" y="29" on="0"/>
        <pt x="296" y="0" on="0"/>
        <pt x="244" y="0" on="1"/>
        <pt x="149" y="0" on="0"/>
        <pt x="50" y="74" on="0"/>
      </contour>
    </TTGlyph>
    <TTGlyph name="T" xMin="50" yMin="0" xMax="833" yMax="644">
      <contour>
        <pt x="826" y="587" on="1"/>
        <pt x="833" y="582" on="0"/>
        <pt x="825" y="572" on="1"/>
        <pt x="816" y="559" on="0"/>
        <pt x="789" y="544" on="0"/>
        <pt x="781" y="546" on="1"/>
        <pt x="771" y="549" on="0"/>
        <pt x="752" y="555" on="0"/>
        <pt x="741" y="558" on="1"/>
        <pt x="716" y="556" on="0"/>
        <pt x="670" y="529" on="0"/>
        <pt x="628" y="476" on="0"/>
        <pt x="590" y="395" on="0"/>
        <pt x="572" y="338" on="1"/>
        <pt x="520" y="169" on="0"/>
        <pt x="333" y="0" on="0"/>
        <pt x="202" y="0" on="1"/>
        <pt x="130" y="0" on="0"/>
        <pt x="50" y="62" on="0"/>
        <pt x="50" y="111" on="1"/>
        <pt x="50" y="146" on="0"/>
        <pt x="95" y="205" on="0"/>
        <pt x="127" y="219" on="1"/>
        <pt x="131" y="219" on="0"/>
        <pt x="134" y="211" on="0"/>
        <pt x="132" y="208" on="1"/>
        <pt x="115" y="195" on="0"/>
        <pt x="101" y="163" on="0"/>
        <pt x="101" y="142" on="1"/>
        <pt x="101" y="91" on="0"/>
        <pt x="178" y="35" on="0"/>
        <pt x="248" y="35" on="1"/>
        <pt x="296" y="35" on="0"/>
        <pt x="369" y="60" on="0"/>
        <pt x="427" y="122" on="0"/>
        <pt x="476" y="227" on="0"/>
        <pt x="502" y="307" on="1"/>
        <pt x="538" y="420" on="0"/>
        <pt x="642" y="551" on="0"/>
        <pt x="710" y="566" on="1"/>
        <pt x="644" y="583" on="0"/>
        <pt x="502" y="603" on="0"/>
        <pt x="429" y="603" on="1"/>
        <pt x="373" y="603" on="0"/>
        <pt x="289" y="568" on="0"/>
        <pt x="235" y="509" on="0"/>
        <pt x="211" y="429" on="0"/>
        <pt x="217" y="384" on="1"/>
        <pt x="212" y="374" on="0"/>
        <pt x="206" y="382" on="1"/>
        <pt x="200" y="432" on="0"/>
        <pt x="228" y="526" on="0"/>
        <pt x="294" y="600" on="0"/>
        <pt x="399" y="644" on="0"/>
        <pt x="472" y="644" on="1"/>
        <pt x="578" y="644" on="0"/>
        <pt x="754" y="609" on="0"/>
      </contour>
    </TTGlyph>
    <TTGlyph name="Thorn" xMin="50" yMin="0" xMax="824" yMax="681">
      <contour>
        <pt x="636" y="530" on="1"/>
        <pt x="680" y="528" on="0"/>
        <pt x="750" y="500" on="0"/>
        <pt x="798" y="455" on="0"/>
        <pt x="824" y="396" on="0"/>
        <pt x="824" y="363" on="1"/>
        <pt x="824" y="313" on="0"/>
        <pt x="783" y="238" on="0"/>
        <pt x="713" y="188" on="0"/>
        <pt x="620" y="162" on="0"/>
        <pt x="567" y="162" on="1"/>
        <pt x="528" y="162" on="0"/>
        <pt x="500" y="174" on="1"/>
        <pt x="442" y="82" on="0"/>
        <pt x="297" y="0" on="0"/>
        <pt x="212" y="0" on="1"/>
        <pt x="176" y="0" on="0"/>
        <pt x="116" y="20" on="0"/>
        <pt x="74" y="56" on="0"/>
        <pt x="50" y="107" on="0"/>
        <pt x="50" y="137" on="1"/>
        <pt x="50" y="186" on="0"/>
        <pt x="104" y="263" on="0"/>
        <pt x="144" y="276" on="1"/>
        <pt x="153" y="278" on="0"/>
        <pt x="150" y="269" on="1"/>
        <pt x="121" y="253" on="0"/>
        <pt x="92" y="199" on="0"/>
        <pt x="92" y="168" on="1"/>
        <pt x="92" y="141" on="0"/>
        <pt x="110" y="92" on="0"/>
        <pt x="149" y="56" on="0"/>
        <pt x="210" y="35" on="0"/>
        <pt x="252" y="35" on="1"/>
        <pt x="290" y="35" on="0"/>
        <pt x="351" y="49" on="0"/>
        <pt x="402" y="84" on="0"/>
        <pt x="446" y="146" on="0"/>
        <pt x="466" y="194" on="1"/>
        <pt x="455" y="202" on="0"/>
        <pt x="445" y="214" on="1"/>
        <pt x="444" y="218" on="0"/>
        <pt x="449" y="223" on="0"/>
        <pt x="452" y="222" on="1"/>
        <pt x="462" y="212" on="0"/>
        <pt x="471" y="207" on="1"/>
        <pt x="485" y="239" on="0"/>
        <pt x="511" y="321" on="0"/>
        <pt x="525" y="372" on="1"/>
        <pt x="536" y="410" on="0"/>
        <pt x="558" y="474" on="0"/>
        <pt x="572" y="502" on="1"/>
        <pt x="503" y="497" on="0"/>
        <pt x="424" y="431" on="0"/>
        <pt x="408" y="377" on="1"/>
        <pt x="405" y="374" on="0"/>
        <pt x="398" y="379" on="0"/>
        <pt x="398" y="386" on="1"/>
        <pt x="407" y="411" on="0"/>
        <pt x="437" y="459" on="0"/>
        <pt x="482" y="498" on="0"/>
        <pt x="544" y="524" on="0"/>
        <pt x="585" y="528" on="1"/>
        <pt x="620" y="594" on="0"/>
        <pt x="710" y="667" on="0"/>
        <pt x="767" y="681" on="1"/>
        <pt x="772" y="681" on="0"/>
        <pt x="773" y="672" on="0"/>
        <pt x="768" y="670" on="1"/>
        <pt x="724" y="658" on="0"/>
        <pt x="662" y="593" on="0"/>
      </contour>
      <contour>
        <pt x="571" y="182" on="1"/>
        <pt x="617" y="182" on="0"/>
        <pt x="688" y="209" on="0"/>
        <pt x="736" y="254" on="0"/>
        <pt x="760" y="315" on="0"/>
        <pt x="760" y="350" on="1"/>
        <pt x="760" y="413" on="0"/>
        <pt x="691" y="493" on="0"/>
        <pt x="625" y="501" on="1"/>
        <pt x="618" y="483" on="0"/>
        <pt x="606" y="443" on="0"/>
        <pt x="600" y="420" on="1"/>
        <pt x="563" y="279" on="0"/>
        <pt x="509" y="190" on="1"/>
        <pt x="539" y="182" on="0"/>
      </contour>
    </TTGlyph>
    <TTGlyph name="U" xMin="58" yMin="0" xMax="860" yMax="644">
      <contour>
        <pt x="427" y="579" on="1"/>
        <pt x="401" y="589" on="0"/>
        <pt x="323" y="605" on="0"/>
        <pt x="281" y="605" on="1"/>
        <pt x="223" y="605" on="0"/>
        <pt x="138" y="556" on="0"/>
        <pt x="87" y="475" on="0"/>
        <pt x="72" y="371" on="0"/>
        <pt x="83" y="316" on="1"/>
        <pt x="82" y="312" on="0"/>
        <pt x="74" y="308" on="0"/>
        <pt x="72" y="312" on="1"/>
        <pt x="58" y="375" on="0"/>
        <pt x="81" y="494" on="0"/>
        <pt x="148" y="587" on="0"/>
        <pt x="255" y="644" on="0"/>
        <pt x="326" y="644" on="1"/>
        <pt x="368" y="644" on="0"/>
        <pt x="446" y="626" on="0"/>
        <pt x="477" y="612" on="1"/>
        <pt x="482" y="608" on="0"/>
        <pt x="474" y="600" on="1"/>
        <pt x="421" y="558" on="0"/>
        <pt x="340" y="453" on="0"/>
        <pt x="283" y="336" on="0"/>
        <pt x="254" y="213" on="0"/>
        <pt x="254" y="153" on="1"/>
        <pt x="254" y="96" on="0"/>
        <pt x="297" y="42" on="0"/>
        <pt x="341" y="42" on="1"/>
        <pt x="393" y="42" on="0"/>
        <pt x="492" y="110" on="0"/>
        <pt x="596" y="252" on="0"/>
        <pt x="712" y="471" on="0"/>
        <pt x="780" y="622" on="1"/>
        <pt x="784" y="630" on="0"/>
        <pt x="822" y="644" on="0"/>
        <pt x="844" y="644" on="1"/>
        <pt x="860" y="644" on="0"/>
        <pt x="860" y="637" on="1"/>
        <pt x="842" y="616" on="0"/>
        <pt x="798" y="539" on="0"/>
        <pt x="754" y="442" on="0"/>
        <pt x="713" y="332" on="0"/>
        <pt x="681" y="227" on="0"/>
        <pt x="662" y="134" on="0"/>
        <pt x="662" y="101" on="1"/>
        <pt x="662" y="44" on="0"/>
        <pt x="700" y="44" on="1"/>
        <pt x="737" y="44" on="0"/>
        <pt x="774" y="100" on="1"/>
        <pt x="777" y="103" on="0"/>
        <pt x="784" y="98" on="0"/>
        <pt x="783" y="93" on="1"/>
        <pt x="756" y="50" on="0"/>
        <pt x="695" y="0" on="0"/>
        <pt x="667" y="0" on="1"/>
        <pt x="638" y="0" on="0"/>
        <pt x="602" y="39" on="0"/>
        <pt x="602" y="78" on="1"/>
        <pt x="602" y="128" on="0"/>
        <pt x="632" y="266" on="0"/>
        <pt x="664" y="346" on="1"/>
        <pt x="573" y="175" on="0"/>
        <pt x="394" y="0" on="0"/>
        <pt x="306" y="0" on="1"/>
        <pt x="251" y="0" on="0"/>
        <pt x="190" y="68" on="0"/>
        <pt x="190" y="125" on="1"/>
        <pt x="190" y="179" on="0"/>
        <pt x="222" y="298" on="0"/>
        <pt x="282" y="416" on="0"/>
        <pt x="370" y="529" on="0"/>
      </contour>
    </TTGlyph>
    <TTGlyph name="Uacute" xMin="58" yMin="0" xMax="860" yMax="737">
      <contour>
        <pt x="647" y="734" on="1"/>
        <pt x="652" y="737" on="0"/>
        <pt x="679" y="728" on="0"/>
        <pt x="688" y="724" on="1"/>
        <pt x="690" y="722" on="0"/>
        <pt x="692" y="717" on="0"/>
        <pt x="689" y="715" on="1"/>
        <pt x="679" y="708" on="0"/>
        <pt x="648" y="692" on="0"/>
        <pt x="613" y="677" on="0"/>
        <pt x="576" y="663" on="0"/>
        <pt x="561" y="658" on="1"/>
        <pt x="557" y="658" on="0"/>
        <pt x="557" y="666" on="0"/>
        <pt x="560" y="669" on="1"/>
        <pt x="580" y="681" on="0"/>
        <pt x="628" y="714" on="0"/>
      </contour>
      <contour>
        <pt x="427" y="579" on="1"/>
        <pt x="401" y="589" on="0"/>
        <pt x="323" y="605" on="0"/>
        <pt x="281" y="605" on="1"/>
        <pt x="223" y="605" on="0"/>
        <pt x="138" y="556" on="0"/>
        <pt x="87" y="475" on="0"/>
        <pt x="72" y="371" on="0"/>
        <pt x="83" y="316" on="1"/>
        <pt x="82" y="312" on="0"/>
        <pt x="74" y="308" on="0"/>
        <pt x="72" y="312" on="1"/>
        <pt x="58" y="375" on="0"/>
        <pt x="81" y="494" on="0"/>
        <pt x="148" y="587" on="0"/>
        <pt x="255" y="644" on="0"/>
        <pt x="326" y="644" on="1"/>
        <pt x="368" y="644" on="0"/>
        <pt x="446" y="626" on="0"/>
        <pt x="477" y="612" on="1"/>
        <pt x="482" y="608" on="0"/>
        <pt x="474" y="600" on="1"/>
        <pt x="421" y="558" on="0"/>
        <pt x="340" y="453" on="0"/>
        <pt x="283" y="336" on="0"/>
        <pt x="254" y="213" on="0"/>
        <pt x="254" y="153" on="1"/>
        <pt x="254" y="96" on="0"/>
        <pt x="297" y="42" on="0"/>
        <pt x="341" y="42" on="1"/>
        <pt x="393" y="42" on="0"/>
        <pt x="492" y="110" on="0"/>
        <pt x="596" y="252" on="0"/>
        <pt x="712" y="471" on="0"/>
        <pt x="780" y="622" on="1"/>
        <pt x="784" y="630" on="0"/>
        <pt x="822" y="644" on="0"/>
        <pt x="844" y="644" on="1"/>
        <pt x="860" y="644" on="0"/>
        <pt x="860" y="637" on="1"/>
        <pt x="842" y="616" on="0"/>
        <pt x="798" y="539" on="0"/>
        <pt x="754" y="442" on="0"/>
        <pt x="713" y="332" on="0"/>
        <pt x="681" y="227" on="0"/>
        <pt x="662" y="134" on="0"/>
        <pt x="662" y="101" on="1"/>
        <pt x="662" y="44" on="0"/>
        <pt x="700" y="44" on="1"/>
        <pt x="737" y="44" on="0"/>
        <pt x="774" y="100" on="1"/>
        <pt x="777" y="103" on="0"/>
        <pt x="784" y="98" on="0"/>
        <pt x="783" y="93" on="1"/>
        <pt x="756" y="50" on="0"/>
        <pt x="695" y="0" on="0"/>
        <pt x="667" y="0" on="1"/>
        <pt x="638" y="0" on="0"/>
        <pt x="602" y="39" on="0"/>
        <pt x="602" y="78" on="1"/>
        <pt x="602" y="128" on="0"/>
        <pt x="632" y="266" on="0"/>
        <pt x="664" y="346" on="1"/>
        <pt x="573" y="175" on="0"/>
        <pt x="394" y="0" on="0"/>
        <pt x="306" y="0" on="1"/>
        <pt x="251" y="0" on="0"/>
        <pt x="190" y="68" on="0"/>
        <pt x="190" y="125" on="1"/>
        <pt x="190" y="179" on="0"/>
        <pt x="222" y="298" on="0"/>
        <pt x="282" y="416" on="0"/>
        <pt x="370" y="529" on="0"/>
      </contour>
    </TTGlyph>
    <TTGlyph name="Ucircumflex" xMin="58" yMin="0" xMax="860" yMax="751">
      <contour>
        <pt x="603" y="746" on="1"/>
        <pt x="608" y="751" on="0"/>
        <pt x="615" y="745" on="1"/>
        <pt x="628" y="728" on="0"/>
        <pt x="669" y="693" on="0"/>
        <pt x="689" y="684" on="1"/>
        <pt x="694" y="679" on="0"/>
        <pt x="675" y="669" on="0"/>
        <pt x="663" y="671" on="1"/>
        <pt x="644" y="679" on="0"/>
        <pt x="613" y="702" on="0"/>
        <pt x="597" y="715" on="1"/>
        <pt x="591" y="710" on="0"/>
        <pt x="571" y="698" on="0"/>
        <pt x="550" y="685" on="0"/>
        <pt x="529" y="673" on="0"/>
        <pt x="522" y="670" on="1"/>
        <pt x="512" y="670" on="0"/>
        <pt x="517" y="679" on="1"/>
        <pt x="534" y="689" on="0"/>
        <pt x="587" y="727" on="0"/>
      </contour>
      <contour>
        <pt x="427" y="579" on="1"/>
        <pt x="401" y="589" on="0"/>
        <pt x="323" y="605" on="0"/>
        <pt x="281" y="605" on="1"/>
        <pt x="223" y="605" on="0"/>
        <pt x="138" y="556" on="0"/>
        <pt x="87" y="475" on="0"/>
        <pt x="72" y="371" on="0"/>
        <pt x="83" y="316" on="1"/>
        <pt x="82" y="312" on="0"/>
        <pt x="74" y="308" on="0"/>
        <pt x="72" y="312" on="1"/>
        <pt x="58" y="375" on="0"/>
        <pt x="81" y="494" on="0"/>
        <pt x="148" y="587" on="0"/>
        <pt x="255" y="644" on="0"/>
        <pt x="326" y="644" on="1"/>
        <pt x="368" y="644" on="0"/>
        <pt x="446" y="626" on="0"/>
        <pt x="477" y="612" on="1"/>
        <pt x="482" y="608" on="0"/>
        <pt x="474" y="600" on="1"/>
        <pt x="421" y="558" on="0"/>
        <pt x="340" y="453" on="0"/>
        <pt x="283" y="336" on="0"/>
        <pt x="254" y="213" on="0"/>
        <pt x="254" y="153" on="1"/>
        <pt x="254" y="96" on="0"/>
        <pt x="297" y="42" on="0"/>
        <pt x="341" y="42" on="1"/>
        <pt x="393" y="42" on="0"/>
        <pt x="492" y="110" on="0"/>
        <pt x="596" y="252" on="0"/>
        <pt x="712" y="471" on="0"/>
        <pt x="780" y="622" on="1"/>
        <pt x="784" y="630" on="0"/>
        <pt x="822" y="644" on="0"/>
        <pt x="844" y="644" on="1"/>
        <pt x="860" y="644" on="0"/>
        <pt x="860" y="637" on="1"/>
        <pt x="842" y="616" on="0"/>
        <pt x="798" y="539" on="0"/>
        <pt x="754" y="442" on="0"/>
        <pt x="713" y="332" on="0"/>
        <pt x="681" y="227" on="0"/>
        <pt x="662" y="134" on="0"/>
        <pt x="662" y="101" on="1"/>
        <pt x="662" y="44" on="0"/>
        <pt x="700" y="44" on="1"/>
        <pt x="737" y="44" on="0"/>
        <pt x="774" y="100" on="1"/>
        <pt x="777" y="103" on="0"/>
        <pt x="784" y="98" on="0"/>
        <pt x="783" y="93" on="1"/>
        <pt x="756" y="50" on="0"/>
        <pt x="695" y="0" on="0"/>
        <pt x="667" y="0" on="1"/>
        <pt x="638" y="0" on="0"/>
        <pt x="602" y="39" on="0"/>
        <pt x="602" y="78" on="1"/>
        <pt x="602" y="128" on="0"/>
        <pt x="632" y="266" on="0"/>
        <pt x="664" y="346" on="1"/>
        <pt x="573" y="175" on="0"/>
        <pt x="394" y="0" on="0"/>
        <pt x="306" y="0" on="1"/>
        <pt x="251" y="0" on="0"/>
        <pt x="190" y="68" on="0"/>
        <pt x="190" y="125" on="1"/>
        <pt x="190" y="179" on="0"/>
        <pt x="222" y="298" on="0"/>
        <pt x="282" y="416" on="0"/>
        <pt x="370" y="529" on="0"/>
      </contour>
    </TTGlyph>
    <TTGlyph name="Udieresis" xMin="58" yMin="0" xMax="860" yMax="721">
      <contour>
        <pt x="573" y="667" on="1"/>
        <pt x="562" y="667" on="0"/>
        <pt x="562" y="684" on="1"/>
        <pt x="562" y="694" on="0"/>
        <pt x="582" y="721" on="0"/>
        <pt x="598" y="721" on="1"/>
        <pt x="607" y="721" on="0"/>
        <pt x="607" y="708" on="1"/>
        <pt x="607" y="694" on="0"/>
        <pt x="587" y="667" on="0"/>
      </contour>
      <contour>
        <pt x="650" y="667" on="1"/>
        <pt x="638" y="667" on="0"/>
        <pt x="638" y="684" on="1"/>
        <pt x="638" y="694" on="0"/>
        <pt x="658" y="721" on="0"/>
        <pt x="673" y="721" on="1"/>
        <pt x="682" y="721" on="0"/>
        <pt x="682" y="708" on="1"/>
        <pt x="682" y="694" on="0"/>
        <pt x="662" y="667" on="0"/>
      </contour>
      <contour>
        <pt x="427" y="579" on="1"/>
        <pt x="401" y="589" on="0"/>
        <pt x="323" y="605" on="0"/>
        <pt x="281" y="605" on="1"/>
        <pt x="223" y="605" on="0"/>
        <pt x="138" y="556" on="0"/>
        <pt x="87" y="475" on="0"/>
        <pt x="72" y="371" on="0"/>
        <pt x="83" y="316" on="1"/>
        <pt x="82" y="312" on="0"/>
        <pt x="74" y="308" on="0"/>
        <pt x="72" y="312" on="1"/>
        <pt x="58" y="375" on="0"/>
        <pt x="81" y="494" on="0"/>
        <pt x="148" y="587" on="0"/>
        <pt x="255" y="644" on="0"/>
        <pt x="326" y="644" on="1"/>
        <pt x="368" y="644" on="0"/>
        <pt x="446" y="626" on="0"/>
        <pt x="477" y="612" on="1"/>
        <pt x="482" y="608" on="0"/>
        <pt x="474" y="600" on="1"/>
        <pt x="421" y="558" on="0"/>
        <pt x="340" y="453" on="0"/>
        <pt x="283" y="336" on="0"/>
        <pt x="254" y="213" on="0"/>
        <pt x="254" y="153" on="1"/>
        <pt x="254" y="96" on="0"/>
        <pt x="297" y="42" on="0"/>
        <pt x="341" y="42" on="1"/>
        <pt x="393" y="42" on="0"/>
        <pt x="492" y="110" on="0"/>
        <pt x="596" y="252" on="0"/>
        <pt x="712" y="471" on="0"/>
        <pt x="780" y="622" on="1"/>
        <pt x="784" y="630" on="0"/>
        <pt x="822" y="644" on="0"/>
        <pt x="844" y="644" on="1"/>
        <pt x="860" y="644" on="0"/>
        <pt x="860" y="637" on="1"/>
        <pt x="842" y="616" on="0"/>
        <pt x="798" y="539" on="0"/>
        <pt x="754" y="442" on="0"/>
        <pt x="713" y="332" on="0"/>
        <pt x="681" y="227" on="0"/>
        <pt x="662" y="134" on="0"/>
        <pt x="662" y="101" on="1"/>
        <pt x="662" y="44" on="0"/>
        <pt x="700" y="44" on="1"/>
        <pt x="737" y="44" on="0"/>
        <pt x="774" y="100" on="1"/>
        <pt x="777" y="103" on="0"/>
        <pt x="784" y="98" on="0"/>
        <pt x="783" y="93" on="1"/>
        <pt x="756" y="50" on="0"/>
        <pt x="695" y="0" on="0"/>
        <pt x="667" y="0" on="1"/>
        <pt x="638" y="0" on="0"/>
        <pt x="602" y="39" on="0"/>
        <pt x="602" y="78" on="1"/>
        <pt x="602" y="128" on="0"/>
        <pt x="632" y="266" on="0"/>
        <pt x="664" y="346" on="1"/>
        <pt x="573" y="175" on="0"/>
        <pt x="394" y="0" on="0"/>
        <pt x="306" y="0" on="1"/>
        <pt x="251" y="0" on="0"/>
        <pt x="190" y="68" on="0"/>
        <pt x="190" y="125" on="1"/>
        <pt x="190" y="179" on="0"/>
        <pt x="222" y="298" on="0"/>
        <pt x="282" y="416" on="0"/>
        <pt x="370" y="529" on="0"/>
      </contour>
    </TTGlyph>
    <TTGlyph name="Ugrave" xMin="58" yMin="0" xMax="860" yMax="733">
      <contour>
        <pt x="692" y="669" on="1"/>
        <pt x="694" y="667" on="0"/>
        <pt x="689" y="660" on="0"/>
        <pt x="684" y="660" on="1"/>
        <pt x="672" y="663" on="0"/>
        <pt x="638" y="675" on="0"/>
        <pt x="604" y="689" on="0"/>
        <pt x="572" y="703" on="0"/>
        <pt x="561" y="709" on="1"/>
        <pt x="559" y="710" on="0"/>
        <pt x="559" y="715" on="0"/>
        <pt x="561" y="717" on="1"/>
        <pt x="571" y="725" on="0"/>
        <pt x="599" y="733" on="0"/>
        <pt x="601" y="731" on="1"/>
        <pt x="618" y="717" on="0"/>
        <pt x="665" y="684" on="0"/>
      </contour>
      <contour>
        <pt x="427" y="579" on="1"/>
        <pt x="401" y="589" on="0"/>
        <pt x="323" y="605" on="0"/>
        <pt x="281" y="605" on="1"/>
        <pt x="223" y="605" on="0"/>
        <pt x="138" y="556" on="0"/>
        <pt x="87" y="475" on="0"/>
        <pt x="72" y="371" on="0"/>
        <pt x="83" y="316" on="1"/>
        <pt x="82" y="312" on="0"/>
        <pt x="74" y="308" on="0"/>
        <pt x="72" y="312" on="1"/>
        <pt x="58" y="375" on="0"/>
        <pt x="81" y="494" on="0"/>
        <pt x="148" y="587" on="0"/>
        <pt x="255" y="644" on="0"/>
        <pt x="326" y="644" on="1"/>
        <pt x="368" y="644" on="0"/>
        <pt x="446" y="626" on="0"/>
        <pt x="477" y="612" on="1"/>
        <pt x="482" y="608" on="0"/>
        <pt x="474" y="600" on="1"/>
        <pt x="421" y="558" on="0"/>
        <pt x="340" y="453" on="0"/>
        <pt x="283" y="336" on="0"/>
        <pt x="254" y="213" on="0"/>
        <pt x="254" y="153" on="1"/>
        <pt x="254" y="96" on="0"/>
        <pt x="297" y="42" on="0"/>
        <pt x="341" y="42" on="1"/>
        <pt x="393" y="42" on="0"/>
        <pt x="492" y="110" on="0"/>
        <pt x="596" y="252" on="0"/>
        <pt x="712" y="471" on="0"/>
        <pt x="780" y="622" on="1"/>
        <pt x="784" y="630" on="0"/>
        <pt x="822" y="644" on="0"/>
        <pt x="844" y="644" on="1"/>
        <pt x="860" y="644" on="0"/>
        <pt x="860" y="637" on="1"/>
        <pt x="842" y="616" on="0"/>
        <pt x="798" y="539" on="0"/>
        <pt x="754" y="442" on="0"/>
        <pt x="713" y="332" on="0"/>
        <pt x="681" y="227" on="0"/>
        <pt x="662" y="134" on="0"/>
        <pt x="662" y="101" on="1"/>
        <pt x="662" y="44" on="0"/>
        <pt x="700" y="44" on="1"/>
        <pt x="737" y="44" on="0"/>
        <pt x="774" y="100" on="1"/>
        <pt x="777" y="103" on="0"/>
        <pt x="784" y="98" on="0"/>
        <pt x="783" y="93" on="1"/>
        <pt x="756" y="50" on="0"/>
        <pt x="695" y="0" on="0"/>
        <pt x="667" y="0" on="1"/>
        <pt x="638" y="0" on="0"/>
        <pt x="602" y="39" on="0"/>
        <pt x="602" y="78" on="1"/>
        <pt x="602" y="128" on="0"/>
        <pt x="632" y="266" on="0"/>
        <pt x="664" y="346" on="1"/>
        <pt x="573" y="175" on="0"/>
        <pt x="394" y="0" on="0"/>
        <pt x="306" y="0" on="1"/>
        <pt x="251" y="0" on="0"/>
        <pt x="190" y="68" on="0"/>
        <pt x="190" y="125" on="1"/>
        <pt x="190" y="179" on="0"/>
        <pt x="222" y="298" on="0"/>
        <pt x="282" y="416" on="0"/>
        <pt x="370" y="529" on="0"/>
      </contour>
    </TTGlyph>
    <TTGlyph name="V" xMin="70" yMin="-1" xMax="789" yMax="644">
      <contour>
        <pt x="789" y="526" on="1"/>
        <pt x="789" y="449" on="0"/>
        <pt x="718" y="318" on="0"/>
        <pt x="603" y="195" on="0"/>
        <pt x="459" y="70" on="0"/>
        <pt x="386" y="-1" on="1"/>
        <pt x="368" y="-1" on="0"/>
        <pt x="377" y="30" on="1"/>
        <pt x="396" y="88" on="0"/>
        <pt x="420" y="218" on="0"/>
        <pt x="426" y="346" on="0"/>
        <pt x="412" y="462" on="0"/>
        <pt x="375" y="551" on="0"/>
        <pt x="311" y="604" on="0"/>
        <pt x="264" y="604" on="1"/>
        <pt x="196" y="604" on="0"/>
        <pt x="108" y="497" on="0"/>
        <pt x="80" y="387" on="1"/>
        <pt x="78" y="383" on="0"/>
        <pt x="70" y="385" on="0"/>
        <pt x="70" y="389" on="1"/>
        <pt x="83" y="445" on="0"/>
        <pt x="122" y="539" on="0"/>
        <pt x="177" y="606" on="0"/>
        <pt x="251" y="644" on="0"/>
        <pt x="299" y="644" on="1"/>
        <pt x="345" y="644" on="0"/>
        <pt x="411" y="598" on="0"/>
        <pt x="455" y="518" on="0"/>
        <pt x="475" y="409" on="0"/>
        <pt x="475" y="282" on="0"/>
        <pt x="454" y="143" on="0"/>
        <pt x="435" y="73" on="1"/>
        <pt x="505" y="131" on="0"/>
        <pt x="617" y="233" on="0"/>
        <pt x="693" y="332" on="0"/>
        <pt x="734" y="434" on="0"/>
        <pt x="734" y="492" on="1"/>
        <pt x="734" y="539" on="0"/>
        <pt x="694" y="597" on="0"/>
        <pt x="665" y="597" on="1"/>
        <pt x="647" y="597" on="0"/>
        <pt x="626" y="580" on="0"/>
        <pt x="618" y="562" on="1"/>
        <pt x="608" y="558" on="0"/>
        <pt x="608" y="569" on="1"/>
        <pt x="613" y="583" on="0"/>
        <pt x="632" y="610" on="0"/>
        <pt x="653" y="631" on="0"/>
        <pt x="675" y="644" on="0"/>
        <pt x="684" y="644" on="1"/>
        <pt x="708" y="644" on="0"/>
        <pt x="747" y="624" on="0"/>
        <pt x="774" y="591" on="0"/>
        <pt x="789" y="548" on="0"/>
      </contour>
    </TTGlyph>
    <TTGlyph name="W" xMin="69" yMin="0" xMax="971" yMax="648">
      <contour>
        <pt x="576" y="34" on="1"/>
        <pt x="580" y="92" on="0"/>
        <pt x="569" y="223" on="0"/>
        <pt x="559" y="346" on="0"/>
        <pt x="559" y="447" on="0"/>
        <pt x="575" y="476" on="1"/>
        <pt x="541" y="429" on="0"/>
        <pt x="482" y="338" on="0"/>
        <pt x="426" y="240" on="0"/>
        <pt x="373" y="131" on="0"/>
        <pt x="345" y="67" on="1"/>
        <pt x="330" y="32" on="0"/>
        <pt x="321" y="0" on="0"/>
        <pt x="312" y="0" on="1"/>
        <pt x="304" y="0" on="0"/>
        <pt x="299" y="15" on="0"/>
        <pt x="307" y="34" on="1"/>
        <pt x="335" y="104" on="0"/>
        <pt x="369" y="244" on="0"/>
        <pt x="379" y="370" on="0"/>
        <pt x="367" y="478" on="0"/>
        <pt x="332" y="558" on="0"/>
        <pt x="275" y="603" on="0"/>
        <pt x="236" y="603" on="1"/>
        <pt x="198" y="603" on="0"/>
        <pt x="141" y="571" on="0"/>
        <pt x="102" y="518" on="0"/>
        <pt x="82" y="449" on="0"/>
        <pt x="82" y="411" on="1"/>
        <pt x="80" y="405" on="0"/>
        <pt x="71" y="403" on="0"/>
        <pt x="71" y="408" on="1"/>
        <pt x="69" y="456" on="0"/>
        <pt x="97" y="543" on="0"/>
        <pt x="149" y="609" on="0"/>
        <pt x="226" y="648" on="0"/>
        <pt x="274" y="648" on="1"/>
        <pt x="336" y="648" on="0"/>
        <pt x="407" y="570" on="0"/>
        <pt x="430" y="437" on="0"/>
        <pt x="406" y="261" on="0"/>
        <pt x="372" y="163" on="1"/>
        <pt x="399" y="220" on="0"/>
        <pt x="465" y="340" on="0"/>
        <pt x="540" y="454" on="0"/>
        <pt x="622" y="557" on="0"/>
        <pt x="664" y="596" on="1"/>
        <pt x="669" y="598" on="0"/>
        <pt x="675" y="578" on="0"/>
        <pt x="671" y="572" on="1"/>
        <pt x="655" y="565" on="0"/>
        <pt x="643" y="550" on="1"/>
        <pt x="626" y="528" on="0"/>
        <pt x="613" y="461" on="0"/>
        <pt x="612" y="380" on="0"/>
        <pt x="620" y="291" on="0"/>
        <pt x="628" y="202" on="0"/>
        <pt x="632" y="118" on="0"/>
        <pt x="628" y="83" on="1"/>
        <pt x="653" y="119" on="0"/>
        <pt x="715" y="185" on="0"/>
        <pt x="779" y="251" on="0"/>
        <pt x="839" y="318" on="0"/>
        <pt x="886" y="393" on="0"/>
        <pt x="915" y="478" on="0"/>
        <pt x="915" y="528" on="1"/>
        <pt x="915" y="561" on="0"/>
        <pt x="896" y="599" on="0"/>
        <pt x="879" y="599" on="1"/>
        <pt x="867" y="599" on="0"/>
        <pt x="850" y="575" on="0"/>
        <pt x="842" y="560" on="1"/>
        <pt x="839" y="558" on="0"/>
        <pt x="833" y="562" on="0"/>
        <pt x="833" y="567" on="1"/>
        <pt x="844" y="597" on="0"/>
        <pt x="885" y="643" on="0"/>
        <pt x="905" y="643" on="1"/>
        <pt x="938" y="643" on="0"/>
        <pt x="971" y="591" on="0"/>
        <pt x="971" y="553" on="1"/>
        <pt x="971" y="495" on="0"/>
        <pt x="934" y="400" on="0"/>
        <pt x="874" y="317" on="0"/>
        <pt x="797" y="241" on="0"/>
        <pt x="717" y="163" on="0"/>
        <pt x="640" y="77" on="0"/>
        <pt x="610" y="26" on="1"/>
        <pt x="602" y="14" on="0"/>
        <pt x="589" y="0" on="0"/>
        <pt x="581" y="0" on="1"/>
        <pt x="576" y="0" on="0"/>
        <pt x="573" y="6" on="0"/>
        <pt x="573" y="16" on="0"/>
        <pt x="576" y="28" on="0"/>
      </contour>
    </TTGlyph>
    <TTGlyph name="X" xMin="50" yMin="0" xMax="851" yMax="644">
      <contour>
        <pt x="813" y="644" on="1"/>
        <pt x="830" y="644" on="0"/>
        <pt x="851" y="617" on="0"/>
        <pt x="851" y="590" on="1"/>
        <pt x="851" y="566" on="0"/>
        <pt x="830" y="502" on="0"/>
        <pt x="814" y="479" on="1"/>
        <pt x="810" y="476" on="0"/>
        <pt x="803" y="481" on="0"/>
        <pt x="803" y="486" on="1"/>
        <pt x="813" y="510" on="0"/>
        <pt x="813" y="532" on="1"/>
        <pt x="813" y="558" on="0"/>
        <pt x="791" y="585" on="0"/>
        <pt x="764" y="585" on="1"/>
        <pt x="730" y="585" on="0"/>
        <pt x="660" y="551" on="0"/>
        <pt x="593" y="490" on="0"/>
        <pt x="531" y="405" on="0"/>
        <pt x="505" y="354" on="1"/>
        <pt x="521" y="284" on="0"/>
        <pt x="564" y="172" on="0"/>
        <pt x="617" y="94" on="0"/>
        <pt x="681" y="52" on="0"/>
        <pt x="720" y="52" on="1"/>
        <pt x="749" y="52" on="0"/>
        <pt x="788" y="86" on="0"/>
        <pt x="800" y="115" on="1"/>
        <pt x="803" y="118" on="0"/>
        <pt x="810" y="113" on="0"/>
        <pt x="810" y="106" on="1"/>
        <pt x="783" y="46" on="0"/>
        <pt x="729" y="0" on="0"/>
        <pt x="694" y="0" on="1"/>
        <pt x="651" y="0" on="0"/>
        <pt x="579" y="45" on="0"/>
        <pt x="520" y="123" on="0"/>
        <pt x="477" y="226" on="0"/>
        <pt x="464" y="284" on="1"/>
        <pt x="389" y="142" on="0"/>
        <pt x="217" y="0" on="0"/>
        <pt x="131" y="0" on="1"/>
        <pt x="93" y="0" on="0"/>
        <pt x="50" y="32" on="0"/>
        <pt x="50" y="58" on="1"/>
        <pt x="50" y="68" on="0"/>
        <pt x="59" y="101" on="0"/>
        <pt x="75" y="139" on="0"/>
        <pt x="97" y="179" on="0"/>
        <pt x="111" y="196" on="1"/>
        <pt x="114" y="200" on="0"/>
        <pt x="124" y="195" on="0"/>
        <pt x="122" y="189" on="1"/>
        <pt x="106" y="166" on="0"/>
        <pt x="95" y="124" on="0"/>
        <pt x="98" y="103" on="1"/>
        <pt x="101" y="80" on="0"/>
        <pt x="138" y="54" on="0"/>
        <pt x="173" y="54" on="1"/>
        <pt x="215" y="54" on="0"/>
        <pt x="292" y="89" on="0"/>
        <pt x="362" y="155" on="0"/>
        <pt x="428" y="249" on="0"/>
        <pt x="459" y="308" on="1"/>
        <pt x="445" y="373" on="0"/>
        <pt x="430" y="475" on="0"/>
        <pt x="416" y="546" on="0"/>
        <pt x="398" y="584" on="0"/>
        <pt x="381" y="584" on="1"/>
        <pt x="361" y="584" on="0"/>
        <pt x="324" y="541" on="0"/>
        <pt x="310" y="513" on="1"/>
        <pt x="305" y="508" on="0"/>
        <pt x="297" y="513" on="0"/>
        <pt x="298" y="520" on="1"/>
        <pt x="309" y="544" on="0"/>
        <pt x="339" y="588" on="0"/>
        <pt x="371" y="623" on="0"/>
        <pt x="401" y="644" on="0"/>
        <pt x="413" y="644" on="1"/>
        <pt x="439" y="644" on="0"/>
        <pt x="465" y="597" on="0"/>
        <pt x="480" y="522" on="0"/>
        <pt x="490" y="426" on="0"/>
        <pt x="500" y="377" on="1"/>
        <pt x="528" y="436" on="0"/>
        <pt x="600" y="534" on="0"/>
        <pt x="682" y="605" on="0"/>
        <pt x="769" y="644" on="0"/>
      </contour>
    </TTGlyph>
    <TTGlyph name="Y" xMin="7" yMin="-128" xMax="914" yMax="644">
      <contour>
        <pt x="444" y="644" on="1"/>
        <pt x="461" y="644" on="0"/>
        <pt x="484" y="626" on="0"/>
        <pt x="490" y="585" on="0"/>
        <pt x="480" y="518" on="0"/>
        <pt x="464" y="469" on="1"/>
        <pt x="444" y="407" on="0"/>
        <pt x="412" y="308" on="0"/>
        <pt x="404" y="258" on="1"/>
        <pt x="398" y="215" on="0"/>
        <pt x="422" y="171" on="0"/>
        <pt x="461" y="171" on="1"/>
        <pt x="548" y="171" on="0"/>
        <pt x="736" y="402" on="0"/>
        <pt x="849" y="628" on="1"/>
        <pt x="860" y="638" on="0"/>
        <pt x="889" y="644" on="0"/>
        <pt x="902" y="644" on="1"/>
        <pt x="914" y="644" on="0"/>
        <pt x="912" y="634" on="1"/>
        <pt x="809" y="414" on="0"/>
        <pt x="628" y="121" on="0"/>
        <pt x="458" y="-55" on="0"/>
        <pt x="292" y="-128" on="0"/>
        <pt x="203" y="-128" on="1"/>
        <pt x="109" y="-128" on="0"/>
        <pt x="7" y="-32" on="0"/>
        <pt x="7" y="44" on="1"/>
        <pt x="7" y="82" on="0"/>
        <pt x="38" y="154" on="0"/>
        <pt x="97" y="213" on="0"/>
        <pt x="183" y="253" on="0"/>
        <pt x="239" y="259" on="1"/>
        <pt x="244" y="258" on="0"/>
        <pt x="243" y="250" on="0"/>
        <pt x="238" y="245" on="1"/>
        <pt x="192" y="239" on="0"/>
        <pt x="127" y="209" on="0"/>
        <pt x="85" y="163" on="0"/>
        <pt x="66" y="104" on="0"/>
        <pt x="66" y="71" on="1"/>
        <pt x="66" y="-5" on="0"/>
        <pt x="158" y="-92" on="0"/>
        <pt x="245" y="-92" on="1"/>
        <pt x="309" y="-92" on="0"/>
        <pt x="424" y="-48" on="0"/>
        <pt x="534" y="55" on="0"/>
        <pt x="646" y="225" on="0"/>
        <pt x="708" y="351" on="1"/>
        <pt x="680" y="305" on="0"/>
        <pt x="613" y="226" on="0"/>
        <pt x="540" y="167" on="0"/>
        <pt x="464" y="134" on="0"/>
        <pt x="427" y="134" on="1"/>
        <pt x="379" y="134" on="0"/>
        <pt x="337" y="185" on="0"/>
        <pt x="343" y="232" on="1"/>
        <pt x="351" y="287" on="0"/>
        <pt x="384" y="397" on="0"/>
        <pt x="400" y="448" on="1"/>
        <pt x="416" y="498" on="0"/>
        <pt x="429" y="559" on="0"/>
        <pt x="427" y="593" on="0"/>
        <pt x="412" y="604" on="0"/>
        <pt x="400" y="604" on="1"/>
        <pt x="377" y="604" on="0"/>
        <pt x="336" y="569" on="0"/>
        <pt x="325" y="551" on="1"/>
        <pt x="321" y="548" on="0"/>
        <pt x="314" y="554" on="0"/>
        <pt x="315" y="559" on="1"/>
        <pt x="324" y="575" on="0"/>
        <pt x="353" y="606" on="0"/>
        <pt x="387" y="630" on="0"/>
        <pt x="425" y="644" on="0"/>
      </contour>
    </TTGlyph>
    <TTGlyph name="Yacute" xMin="7" yMin="-128" xMax="914" yMax="737">
      <contour>
        <pt x="697" y="734" on="1"/>
        <pt x="702" y="737" on="0"/>
        <pt x="729" y="728" on="0"/>
        <pt x="738" y="724" on="1"/>
        <pt x="740" y="722" on="0"/>
        <pt x="742" y="717" on="0"/>
        <pt x="739" y="715" on="1"/>
        <pt x="729" y="708" on="0"/>
        <pt x="698" y="692" on="0"/>
        <pt x="663" y="677" on="0"/>
        <pt x="626" y="663" on="0"/>
        <pt x="611" y="658" on="1"/>
        <pt x="607" y="658" on="0"/>
        <pt x="607" y="666" on="0"/>
        <pt x="610" y="669" on="1"/>
        <pt x="630" y="681" on="0"/>
        <pt x="678" y="714" on="0"/>
      </contour>
      <contour>
        <pt x="444" y="644" on="1"/>
        <pt x="461" y="644" on="0"/>
        <pt x="484" y="626" on="0"/>
        <pt x="490" y="585" on="0"/>
        <pt x="480" y="518" on="0"/>
        <pt x="464" y="469" on="1"/>
        <pt x="444" y="407" on="0"/>
        <pt x="412" y="308" on="0"/>
        <pt x="404" y="258" on="1"/>
        <pt x="398" y="215" on="0"/>
        <pt x="422" y="171" on="0"/>
        <pt x="461" y="171" on="1"/>
        <pt x="548" y="171" on="0"/>
        <pt x="736" y="402" on="0"/>
        <pt x="849" y="628" on="1"/>
        <pt x="860" y="638" on="0"/>
        <pt x="889" y="644" on="0"/>
        <pt x="902" y="644" on="1"/>
        <pt x="914" y="644" on="0"/>
        <pt x="912" y="634" on="1"/>
        <pt x="809" y="414" on="0"/>
        <pt x="628" y="121" on="0"/>
        <pt x="458" y="-55" on="0"/>
        <pt x="292" y="-128" on="0"/>
        <pt x="203" y="-128" on="1"/>
        <pt x="109" y="-128" on="0"/>
        <pt x="7" y="-32" on="0"/>
        <pt x="7" y="44" on="1"/>
        <pt x="7" y="82" on="0"/>
        <pt x="38" y="154" on="0"/>
        <pt x="97" y="213" on="0"/>
        <pt x="183" y="253" on="0"/>
        <pt x="239" y="259" on="1"/>
        <pt x="244" y="258" on="0"/>
        <pt x="243" y="250" on="0"/>
        <pt x="238" y="245" on="1"/>
        <pt x="192" y="239" on="0"/>
        <pt x="127" y="209" on="0"/>
        <pt x="85" y="163" on="0"/>
        <pt x="66" y="104" on="0"/>
        <pt x="66" y="71" on="1"/>
        <pt x="66" y="-5" on="0"/>
        <pt x="158" y="-92" on="0"/>
        <pt x="245" y="-92" on="1"/>
        <pt x="309" y="-92" on="0"/>
        <pt x="424" y="-48" on="0"/>
        <pt x="534" y="55" on="0"/>
        <pt x="646" y="225" on="0"/>
        <pt x="708" y="351" on="1"/>
        <pt x="680" y="305" on="0"/>
        <pt x="613" y="226" on="0"/>
        <pt x="540" y="167" on="0"/>
        <pt x="464" y="134" on="0"/>
        <pt x="427" y="134" on="1"/>
        <pt x="379" y="134" on="0"/>
        <pt x="337" y="185" on="0"/>
        <pt x="343" y="232" on="1"/>
        <pt x="351" y="287" on="0"/>
        <pt x="384" y="397" on="0"/>
        <pt x="400" y="448" on="1"/>
        <pt x="416" y="498" on="0"/>
        <pt x="429" y="559" on="0"/>
        <pt x="427" y="593" on="0"/>
        <pt x="412" y="604" on="0"/>
        <pt x="400" y="604" on="1"/>
        <pt x="377" y="604" on="0"/>
        <pt x="336" y="569" on="0"/>
        <pt x="325" y="551" on="1"/>
        <pt x="321" y="548" on="0"/>
        <pt x="314" y="554" on="0"/>
        <pt x="315" y="559" on="1"/>
        <pt x="324" y="575" on="0"/>
        <pt x="353" y="606" on="0"/>
        <pt x="387" y="630" on="0"/>
        <pt x="425" y="644" on="0"/>
      </contour>
    </TTGlyph>
    <TTGlyph name="Ydieresis" xMin="7" yMin="-128" xMax="914" yMax="721">
      <contour>
        <pt x="619" y="667" on="1"/>
        <pt x="608" y="667" on="0"/>
        <pt x="608" y="684" on="1"/>
        <pt x="608" y="694" on="0"/>
        <pt x="628" y="721" on="0"/>
        <pt x="644" y="721" on="1"/>
        <pt x="653" y="721" on="0"/>
        <pt x="653" y="708" on="1"/>
        <pt x="653" y="694" on="0"/>
        <pt x="633" y="667" on="0"/>
      </contour>
      <contour>
        <pt x="696" y="667" on="1"/>
        <pt x="684" y="667" on="0"/>
        <pt x="684" y="684" on="1"/>
        <pt x="684" y="694" on="0"/>
        <pt x="704" y="721" on="0"/>
        <pt x="719" y="721" on="1"/>
        <pt x="728" y="721" on="0"/>
        <pt x="728" y="708" on="1"/>
        <pt x="728" y="694" on="0"/>
        <pt x="708" y="667" on="0"/>
      </contour>
      <contour>
        <pt x="444" y="644" on="1"/>
        <pt x="461" y="644" on="0"/>
        <pt x="484" y="626" on="0"/>
        <pt x="490" y="585" on="0"/>
        <pt x="480" y="518" on="0"/>
        <pt x="464" y="469" on="1"/>
        <pt x="444" y="407" on="0"/>
        <pt x="412" y="308" on="0"/>
        <pt x="404" y="258" on="1"/>
        <pt x="398" y="215" on="0"/>
        <pt x="422" y="171" on="0"/>
        <pt x="461" y="171" on="1"/>
        <pt x="548" y="171" on="0"/>
        <pt x="736" y="402" on="0"/>
        <pt x="849" y="628" on="1"/>
        <pt x="860" y="638" on="0"/>
        <pt x="889" y="644" on="0"/>
        <pt x="902" y="644" on="1"/>
        <pt x="914" y="644" on="0"/>
        <pt x="912" y="634" on="1"/>
        <pt x="809" y="414" on="0"/>
        <pt x="628" y="121" on="0"/>
        <pt x="458" y="-55" on="0"/>
        <pt x="292" y="-128" on="0"/>
        <pt x="203" y="-128" on="1"/>
        <pt x="109" y="-128" on="0"/>
        <pt x="7" y="-32" on="0"/>
        <pt x="7" y="44" on="1"/>
        <pt x="7" y="82" on="0"/>
        <pt x="38" y="154" on="0"/>
        <pt x="97" y="213" on="0"/>
        <pt x="183" y="253" on="0"/>
        <pt x="239" y="259" on="1"/>
        <pt x="244" y="258" on="0"/>
        <pt x="243" y="250" on="0"/>
        <pt x="238" y="245" on="1"/>
        <pt x="192" y="239" on="0"/>
        <pt x="127" y="209" on="0"/>
        <pt x="85" y="163" on="0"/>
        <pt x="66" y="104" on="0"/>
        <pt x="66" y="71" on="1"/>
        <pt x="66" y="-5" on="0"/>
        <pt x="158" y="-92" on="0"/>
        <pt x="245" y="-92" on="1"/>
        <pt x="309" y="-92" on="0"/>
        <pt x="424" y="-48" on="0"/>
        <pt x="534" y="55" on="0"/>
        <pt x="646" y="225" on="0"/>
        <pt x="708" y="351" on="1"/>
        <pt x="680" y="305" on="0"/>
        <pt x="613" y="226" on="0"/>
        <pt x="540" y="167" on="0"/>
        <pt x="464" y="134" on="0"/>
        <pt x="427" y="134" on="1"/>
        <pt x="379" y="134" on="0"/>
        <pt x="337" y="185" on="0"/>
        <pt x="343" y="232" on="1"/>
        <pt x="351" y="287" on="0"/>
        <pt x="384" y="397" on="0"/>
        <pt x="400" y="448" on="1"/>
        <pt x="416" y="498" on="0"/>
        <pt x="429" y="559" on="0"/>
        <pt x="427" y="593" on="0"/>
        <pt x="412" y="604" on="0"/>
        <pt x="400" y="604" on="1"/>
        <pt x="377" y="604" on="0"/>
        <pt x="336" y="569" on="0"/>
        <pt x="325" y="551" on="1"/>
        <pt x="321" y="548" on="0"/>
        <pt x="314" y="554" on="0"/>
        <pt x="315" y="559" on="1"/>
        <pt x="324" y="575" on="0"/>
        <pt x="353" y="606" on="0"/>
        <pt x="387" y="630" on="0"/>
        <pt x="425" y="644" on="0"/>
      </contour>
    </TTGlyph>
    <TTGlyph name="Z" xMin="49" yMin="-7" xMax="717" yMax="644">
      <contour>
        <pt x="436" y="644" on="1"/>
        <pt x="486" y="644" on="0"/>
        <pt x="570" y="625" on="0"/>
        <pt x="621" y="609" on="1"/>
        <pt x="646" y="601" on="0"/>
        <pt x="670" y="602" on="0"/>
        <pt x="684" y="614" on="1"/>
        <pt x="689" y="619" on="0"/>
        <pt x="708" y="619" on="1"/>
        <pt x="717" y="619" on="0"/>
        <pt x="714" y="612" on="1"/>
        <pt x="651" y="553" on="0"/>
        <pt x="514" y="426" on="0"/>
        <pt x="373" y="293" on="0"/>
        <pt x="231" y="159" on="0"/>
        <pt x="164" y="95" on="1"/>
        <pt x="188" y="97" on="0"/>
        <pt x="237" y="84" on="0"/>
        <pt x="299" y="67" on="0"/>
        <pt x="381" y="52" on="0"/>
        <pt x="437" y="52" on="1"/>
        <pt x="506" y="52" on="0"/>
        <pt x="584" y="110" on="0"/>
        <pt x="609" y="168" on="1"/>
        <pt x="612" y="170" on="0"/>
        <pt x="623" y="164" on="0"/>
        <pt x="621" y="159" on="1"/>
        <pt x="601" y="117" on="0"/>
        <pt x="557" y="55" on="0"/>
        <pt x="502" y="13" on="0"/>
        <pt x="431" y="-7" on="0"/>
        <pt x="386" y="-7" on="1"/>
        <pt x="350" y="-7" on="0"/>
        <pt x="292" y="0" on="0"/>
        <pt x="243" y="12" on="0"/>
        <pt x="197" y="27" on="0"/>
        <pt x="172" y="34" on="1"/>
        <pt x="141" y="43" on="0"/>
        <pt x="99" y="29" on="0"/>
        <pt x="71" y="0" on="1"/>
        <pt x="65" y="-2" on="0"/>
        <pt x="49" y="9" on="0"/>
        <pt x="52" y="14" on="1"/>
        <pt x="137" y="94" on="0"/>
        <pt x="274" y="225" on="0"/>
        <pt x="402" y="348" on="0"/>
        <pt x="533" y="472" on="0"/>
        <pt x="612" y="546" on="1"/>
        <pt x="565" y="562" on="0"/>
        <pt x="454" y="590" on="0"/>
        <pt x="397" y="590" on="1"/>
        <pt x="337" y="590" on="0"/>
        <pt x="280" y="528" on="0"/>
        <pt x="270" y="468" on="1"/>
        <pt x="267" y="463" on="0"/>
        <pt x="258" y="466" on="0"/>
        <pt x="257" y="471" on="1"/>
        <pt x="264" y="509" on="0"/>
        <pt x="290" y="573" on="0"/>
        <pt x="332" y="619" on="0"/>
        <pt x="393" y="644" on="0"/>
      </contour>
    </TTGlyph>
</ttFont>
